<svg width="196" height="177" viewBox="0 0 196 177" fill="none" xmlns="http://www.w3.org/2000/svg">
<g clip-path="url(#clip0_2188_65085)">
<path d="M118.238 10.1099C118.744 7.80627 118.491 5.79344 117.673 5.61416C116.856 5.43487 115.783 7.15701 115.278 9.46066C114.773 11.7643 115.026 13.7771 115.843 13.9564C116.661 14.1357 117.733 12.4136 118.238 10.1099Z" fill="#84E6E1"/>
<path d="M115.067 29.5992C115.067 29.5992 119.729 12.1661 118.31 8.8214C116.891 5.4767 113.373 11.0518 112.598 14.3965C111.824 17.7412 110.201 25.5449 115.067 29.5992Z" fill="#9B4710"/>
<path d="M111.77 110.589C111.77 112.576 100.092 114.188 85.6892 114.188C71.2869 114.188 59.6104 112.576 59.6104 110.589C59.6104 108.602 71.2869 106.992 85.6892 106.992C100.092 106.992 111.77 108.602 111.77 110.589Z" fill="#8077CE"/>
<path d="M64.3657 119.79C64.3657 119.79 66.6451 111.084 64.3657 97.6112C62.0863 84.138 64.1588 62.9955 66.6451 46.6222C69.1332 30.2471 71.037 23.6013 73.9153 36.6607C76.7936 49.7183 117.841 67.5579 117.841 67.5579C117.841 67.5579 110.008 95.6621 108.972 103.332C107.936 111.001 107.117 126.759 107.117 126.759L64.3639 119.792L64.3657 119.79Z" fill="#9B4710"/>
<path d="M108.397 0.700111H78.6144C75.5654 0.700111 73.0938 3.1718 73.0938 6.22078V77.2526C73.0938 80.3016 75.5654 82.7733 78.6144 82.7733H108.397C111.446 82.7733 113.918 80.3016 113.918 77.2526V6.22078C113.918 3.1718 111.446 0.700111 108.397 0.700111Z" fill="#37353F"/>
<path d="M113.191 6.22079V77.2526C113.191 79.8986 111.043 82.0474 108.397 82.0474H78.6119C75.9659 82.0474 73.8172 79.8986 73.8172 77.2526V6.21897C73.8172 3.57297 75.9659 1.42422 78.6119 1.42422L108.397 1.42422C111.043 1.42422 113.191 3.57297 113.191 6.21897V6.22079Z" fill="#8077CE"/>
<path d="M108.734 8.13903H79.5604C78.5972 8.13903 77.8164 8.91986 77.8164 9.88307V16.714C77.8164 17.6772 78.5972 18.4581 79.5604 18.4581H108.734C109.697 18.4581 110.478 17.6772 110.478 16.714V9.88307C110.478 8.91986 109.697 8.13903 108.734 8.13903Z" fill="#FFDDBD"/>
<path d="M105.765 11.8612H91.4335C91.1359 11.8612 90.8945 11.6199 90.8945 11.3222C90.8945 11.0246 91.1359 10.7832 91.4335 10.7832H105.765C106.063 10.7832 106.304 11.0246 106.304 11.3222C106.304 11.6199 106.063 11.8612 105.765 11.8612Z" fill="white"/>
<path d="M103.352 14.794H91.2776C91.0671 14.794 90.8965 14.6234 90.8965 14.4129C90.8965 14.2023 91.0671 14.0317 91.2776 14.0317H103.352C103.562 14.0317 103.733 14.2023 103.733 14.4129C103.733 14.6234 103.562 14.794 103.352 14.794Z" fill="white"/>
<path d="M103.352 16.3946H91.2776C91.0671 16.3946 90.8965 16.224 90.8965 16.0135C90.8965 15.803 91.0671 15.6324 91.2776 15.6324H103.352C103.562 15.6324 103.733 15.803 103.733 16.0135C103.733 16.224 103.562 16.3946 103.352 16.3946Z" fill="white"/>
<path d="M84.7052 11.07C84.7397 10.7179 84.4457 10.4221 84.0936 10.4584C83.8323 10.4838 83.6218 10.6961 83.5946 10.9574C83.5601 11.3095 83.8541 11.6053 84.2061 11.569C84.4675 11.5436 84.678 11.3313 84.7052 11.07Z" fill="#FF9260"/>
<path d="M85.0456 15.4491C84.59 15.2894 84.4049 15.1043 84.2452 14.6488C84.2144 14.5599 84.0873 14.5599 84.0565 14.6488C83.8968 15.1043 83.7117 15.2894 83.2561 15.4491C83.1672 15.48 83.1672 15.607 83.2561 15.6379C83.7117 15.7976 83.8968 15.9827 84.0565 16.4382C84.0873 16.5271 84.2144 16.5271 84.2452 16.4382C84.4049 15.9827 84.59 15.7976 85.0456 15.6379C85.1345 15.607 85.1345 15.48 85.0456 15.4491Z" fill="#FF9260"/>
<path d="M86.4171 14.7159V13.3058C86.4171 12.0808 85.4553 11.0554 84.2303 11.0137C82.9436 10.9702 81.8855 12.001 81.8855 13.2786V14.7177C81.8855 14.8956 81.7404 15.0408 81.5625 15.0408V15.3638L81.5843 15.362C81.9999 15.3203 82.4046 15.1969 82.7657 14.9845C83.3374 14.6506 83.6477 14.1987 83.9254 13.4038C83.9998 13.1915 84.3011 13.1915 84.3755 13.4038C84.6531 14.1969 84.9653 14.6488 85.5351 14.9845C85.8963 15.195 86.301 15.3203 86.7166 15.362H86.7365V15.0408C86.5587 15.0408 86.4135 14.8956 86.4135 14.7177" fill="#FF9260"/>
<path d="M109.052 22.0641H79.8788C78.9156 22.0641 78.1348 22.8449 78.1348 23.8081V30.6391C78.1348 31.6023 78.9156 32.3831 79.8788 32.3831H109.052C110.015 32.3831 110.796 31.6023 110.796 30.6391V23.8081C110.796 22.8449 110.015 22.0641 109.052 22.0641Z" fill="#FFDDBD"/>
<path d="M106.083 25.7881H91.7519C91.4543 25.7881 91.2129 25.5467 91.2129 25.2491C91.2129 24.9515 91.4543 24.7101 91.7519 24.7101H106.083C106.381 24.7101 106.622 24.9515 106.622 25.2491C106.622 25.5467 106.381 25.7881 106.083 25.7881Z" fill="white"/>
<path d="M103.67 28.719H91.596C91.3854 28.719 91.2148 28.5484 91.2148 28.3379C91.2148 28.1274 91.3854 27.9568 91.596 27.9568H103.67C103.88 27.9568 104.051 28.1274 104.051 28.3379C104.051 28.5484 103.88 28.719 103.67 28.719Z" fill="white"/>
<path d="M103.67 30.3215H91.596C91.3854 30.3215 91.2148 30.1509 91.2148 29.9404C91.2148 29.7299 91.3854 29.5593 91.596 29.5593H103.67C103.88 29.5593 104.051 29.7299 104.051 29.9404C104.051 30.1509 103.88 30.3215 103.67 30.3215Z" fill="white"/>
<path d="M84.7033 25.2981C84.7377 24.946 84.4437 24.6502 84.0917 24.6865C83.8303 24.7119 83.6198 24.9242 83.5926 25.1856C83.5581 25.5376 83.8521 25.8335 84.2042 25.7972C84.4655 25.7718 84.676 25.5594 84.7033 25.2981Z" fill="#FF9260"/>
<path d="M85.0436 29.6791C84.5881 29.5194 84.403 29.3343 84.2433 28.8787C84.2124 28.7898 84.0854 28.7898 84.0545 28.8787C83.8948 29.3343 83.7097 29.5194 83.2542 29.6791C83.1653 29.7099 83.1653 29.837 83.2542 29.8678C83.7097 30.0275 83.8948 30.2126 84.0545 30.6681C84.0854 30.7571 84.2124 30.7571 84.2433 30.6681C84.403 30.2126 84.5881 30.0275 85.0436 29.8678C85.1325 29.837 85.1325 29.7099 85.0436 29.6791Z" fill="#FF9260"/>
<path d="M86.4152 28.9459V27.5358C86.4152 26.3108 85.4533 25.2854 84.2283 25.2437C82.9416 25.2001 81.8836 26.2309 81.8836 27.5085V28.9477C81.8836 29.1255 81.7384 29.2707 81.5605 29.2707V29.5938L81.5823 29.592C81.9979 29.5502 82.4026 29.4268 82.7638 29.2145C83.3354 28.8805 83.6458 28.4287 83.9234 27.6338C83.9978 27.4214 84.2991 27.4214 84.3735 27.6338C84.6512 28.4268 84.9633 28.8787 85.5332 29.2145C85.8943 29.425 86.299 29.5502 86.7146 29.592H86.7346V29.2707C86.5567 29.2707 86.4115 29.1255 86.4115 28.9477" fill="#FF9260"/>
<path d="M108.417 35.2324H79.244C78.2808 35.2324 77.5 36.0133 77.5 36.9765V43.8074C77.5 44.7706 78.2808 45.5515 79.244 45.5515H108.417C109.38 45.5515 110.161 44.7706 110.161 43.8074V36.9765C110.161 36.0133 109.38 35.2324 108.417 35.2324Z" fill="#FFDDBD"/>
<path d="M105.449 37.8802H91.1191C90.8214 37.8802 90.5801 38.1212 90.5801 38.4183C90.5801 38.7155 90.8214 38.9564 91.1191 38.9564H105.449C105.747 38.9564 105.988 38.7155 105.988 38.4183C105.988 38.1212 105.747 37.8802 105.449 37.8802Z" fill="white"/>
<path d="M103.037 41.8874H90.9631C90.7526 41.8874 90.582 41.7168 90.582 41.5063C90.582 41.2957 90.7526 41.1252 90.9631 41.1252H103.037C103.248 41.1252 103.418 41.2957 103.418 41.5063C103.418 41.7168 103.248 41.8874 103.037 41.8874Z" fill="white"/>
<path d="M103.037 43.4899H90.9631C90.7526 43.4899 90.582 43.3193 90.582 43.1087C90.582 42.8982 90.7526 42.7276 90.9631 42.7276H103.037C103.248 42.7276 103.418 42.8982 103.418 43.1087C103.418 43.3193 103.248 43.4899 103.037 43.4899Z" fill="white"/>
<path d="M84.7072 38.3612C84.7417 38.0091 84.4477 37.7133 84.0956 37.7496C83.8342 37.775 83.6237 37.9873 83.5965 38.2486C83.562 38.6007 83.856 38.8965 84.2081 38.8602C84.4694 38.8348 84.6799 38.6225 84.7072 38.3612Z" fill="#FF9260"/>
<path d="M85.0475 42.7421C84.592 42.5824 84.4069 42.3973 84.2472 41.9418C84.2163 41.8529 84.0893 41.8529 84.0584 41.9418C83.8987 42.3973 83.7136 42.5824 83.2581 42.7421C83.1692 42.773 83.1692 42.9 83.2581 42.9309C83.7136 43.0906 83.8987 43.2757 84.0584 43.7312C84.0893 43.8201 84.2163 43.8201 84.2472 43.7312C84.4069 43.2757 84.592 43.0906 85.0475 42.9309C85.1364 42.9 85.1364 42.773 85.0475 42.7421Z" fill="#FF9260"/>
<path d="M86.4191 42.0089V40.5988C86.4191 39.3738 85.4572 38.3485 84.2322 38.3067C82.9455 38.2632 81.8875 39.294 81.8875 40.5716V42.0108C81.8875 42.1886 81.7423 42.3338 81.5645 42.3338V42.6568L81.5862 42.655C82.0018 42.6133 82.4065 42.4899 82.7677 42.2775C83.3393 41.9436 83.6497 41.4917 83.9273 40.6968C84.0017 40.4845 84.303 40.4845 84.3774 40.6968C84.6551 41.4899 84.9672 41.9418 85.5371 42.2775C85.8982 42.4881 86.3029 42.6133 86.7185 42.655H86.7385V42.3338C86.5606 42.3338 86.4154 42.1886 86.4154 42.0108" fill="#FF9260"/>
<path d="M110.629 49.5603H77.6662C76.5777 49.5603 75.6953 50.4427 75.6953 51.5312V59.2496C75.6953 60.3381 76.5777 61.2205 77.6662 61.2205H110.629C111.717 61.2205 112.6 60.3381 112.6 59.2496V51.5312C112.6 50.4427 111.717 49.5603 110.629 49.5603Z" fill="#FF5B00"/>
<path d="M104.789 57.0791H91.1448C90.9071 57.0791 90.7129 56.8868 90.7129 56.6472C90.7129 56.4095 90.9053 56.2153 91.1448 56.2153H104.789C105.026 56.2153 105.221 56.4077 105.221 56.6472C105.221 56.885 105.028 57.0791 104.789 57.0791Z" fill="white"/>
<path d="M104.789 58.8885H91.1448C90.9071 58.8885 90.7129 58.6961 90.7129 58.4566C90.7129 58.2188 90.9053 58.0247 91.1448 58.0247H104.789C105.026 58.0247 105.221 58.217 105.221 58.4566C105.221 58.6943 105.028 58.8885 104.789 58.8885Z" fill="white"/>
<path d="M90.7133 54.5748V52.9909H91.267C91.3773 52.9909 91.4683 53.01 91.54 53.0481C91.6117 53.0858 91.665 53.1366 91.7001 53.2005C91.7351 53.2639 91.7527 53.3343 91.7527 53.4116C91.7527 53.4797 91.7406 53.5359 91.7163 53.5802C91.6926 53.6246 91.6612 53.6596 91.622 53.6854C91.5833 53.7112 91.5413 53.7302 91.4959 53.7426V53.7581C91.5444 53.7612 91.5931 53.7782 91.6421 53.8091C91.6911 53.8401 91.732 53.8844 91.765 53.9421C91.798 53.9999 91.8145 54.0705 91.8145 54.154C91.8145 54.2334 91.7965 54.3049 91.7604 54.3683C91.7243 54.4317 91.6673 54.4819 91.5895 54.5191C91.5116 54.5562 91.4103 54.5748 91.2856 54.5748H90.7133ZM90.9051 54.4046H91.2856C91.4108 54.4046 91.4998 54.3804 91.5524 54.3319C91.6055 54.2829 91.632 54.2236 91.632 54.154C91.632 54.1004 91.6184 54.0509 91.591 54.0056C91.5637 53.9597 91.5248 53.9231 91.4743 53.8957C91.4237 53.8679 91.3639 53.854 91.2948 53.854H90.9051V54.4046ZM90.9051 53.6869H91.2608C91.3186 53.6869 91.3706 53.6756 91.417 53.6529C91.464 53.6302 91.5011 53.5983 91.5284 53.557C91.5562 53.5158 91.5702 53.4673 91.5702 53.4116C91.5702 53.342 91.5459 53.283 91.4975 53.2345C91.449 53.1855 91.3722 53.1611 91.267 53.1611H90.9051V53.6869ZM93.466 53.7828C93.466 53.9499 93.4359 54.0942 93.3756 54.2159C93.3152 54.3376 93.2325 54.4314 93.1273 54.4974C93.0221 54.5634 92.902 54.5964 92.7669 54.5964C92.6319 54.5964 92.5117 54.5634 92.4065 54.4974C92.3014 54.4314 92.2186 54.3376 92.1583 54.2159C92.098 54.0942 92.0678 53.9499 92.0678 53.7828C92.0678 53.6158 92.098 53.4714 92.1583 53.3498C92.2186 53.2281 92.3014 53.1342 92.4065 53.0683C92.5117 53.0023 92.6319 52.9693 92.7669 52.9693C92.902 52.9693 93.0221 53.0023 93.1273 53.0683C93.2325 53.1342 93.3152 53.2281 93.3756 53.3498C93.4359 53.4714 93.466 53.6158 93.466 53.7828ZM93.2804 53.7828C93.2804 53.6457 93.2575 53.5299 93.2116 53.4356C93.1662 53.3412 93.1046 53.2698 93.0268 53.2214C92.9494 53.1729 92.8628 53.1487 92.7669 53.1487C92.671 53.1487 92.5842 53.1729 92.5063 53.2214C92.429 53.2698 92.3674 53.3412 92.3215 53.4356C92.2761 53.5299 92.2534 53.6457 92.2534 53.7828C92.2534 53.92 92.2761 54.0357 92.3215 54.1301C92.3674 54.2244 92.429 54.2958 92.5063 54.3443C92.5842 54.3928 92.671 54.417 92.7669 54.417C92.8628 54.417 92.9494 54.3928 93.0268 54.3443C93.1046 54.2958 93.1662 54.2244 93.2116 54.1301C93.2575 54.0357 93.2804 53.92 93.2804 53.7828ZM95.1249 53.7828C95.1249 53.9499 95.0947 54.0942 95.0344 54.2159C94.9741 54.3376 94.8913 54.4314 94.7862 54.4974C94.681 54.5634 94.5609 54.5964 94.4258 54.5964C94.2907 54.5964 94.1706 54.5634 94.0654 54.4974C93.9602 54.4314 93.8775 54.3376 93.8172 54.2159C93.7568 54.0942 93.7267 53.9499 93.7267 53.7828C93.7267 53.6158 93.7568 53.4714 93.8172 53.3498C93.8775 53.2281 93.9602 53.1342 94.0654 53.0683C94.1706 53.0023 94.2907 52.9693 94.4258 52.9693C94.5609 52.9693 94.681 53.0023 94.7862 53.0683C94.8913 53.1342 94.9741 53.2281 95.0344 53.3498C95.0947 53.4714 95.1249 53.6158 95.1249 53.7828ZM94.9393 53.7828C94.9393 53.6457 94.9164 53.5299 94.8705 53.4356C94.8251 53.3412 94.7635 53.2698 94.6856 53.2214C94.6083 53.1729 94.5217 53.1487 94.4258 53.1487C94.3299 53.1487 94.243 53.1729 94.1652 53.2214C94.0878 53.2698 94.0262 53.3412 93.9803 53.4356C93.935 53.5299 93.9123 53.6457 93.9123 53.7828C93.9123 53.92 93.935 54.0357 93.9803 54.1301C94.0262 54.2244 94.0878 54.2958 94.1652 54.3443C94.243 54.3928 94.3299 54.417 94.4258 54.417C94.5217 54.417 94.6083 54.3928 94.6856 54.3443C94.7635 54.2958 94.8251 54.2244 94.8705 54.1301C94.9164 54.0357 94.9393 53.92 94.9393 53.7828ZM95.4474 54.5748V52.9909H95.6392V53.7766H95.6577L96.3692 52.9909H96.6198L95.9547 53.7055L96.6198 54.5748H96.3878L95.8372 53.8385L95.6392 54.0612V54.5748H95.4474ZM98.7365 52.9909V54.5748H98.5509L97.6878 53.3312H97.6723V54.5748H97.4806V52.9909H97.6662L98.5323 54.2376H98.5478V52.9909H98.7365ZM100.457 53.7828C100.457 53.9499 100.426 54.0942 100.366 54.2159C100.306 54.3376 100.223 54.4314 100.118 54.4974C100.013 54.5634 99.8926 54.5964 99.7575 54.5964C99.6224 54.5964 99.5023 54.5634 99.3971 54.4974C99.292 54.4314 99.2092 54.3376 99.1489 54.2159C99.0886 54.0942 99.0584 53.9499 99.0584 53.7828C99.0584 53.6158 99.0886 53.4714 99.1489 53.3498C99.2092 53.2281 99.292 53.1342 99.3971 53.0683C99.5023 53.0023 99.6224 52.9693 99.7575 52.9693C99.8926 52.9693 100.013 53.0023 100.118 53.0683C100.223 53.1342 100.306 53.2281 100.366 53.3498C100.426 53.4714 100.457 53.6158 100.457 53.7828ZM100.271 53.7828C100.271 53.6457 100.248 53.5299 100.202 53.4356C100.157 53.3412 100.095 53.2698 100.017 53.2214C99.94 53.1729 99.8534 53.1487 99.7575 53.1487C99.6616 53.1487 99.5747 53.1729 99.4969 53.2214C99.4196 53.2698 99.3579 53.3412 99.3121 53.4356C99.2667 53.5299 99.244 53.6457 99.244 53.7828C99.244 53.92 99.2667 54.0357 99.3121 54.1301C99.3579 54.2244 99.4196 54.2958 99.4969 54.3443C99.5747 54.3928 99.6616 54.417 99.7575 54.417C99.8534 54.417 99.94 54.3928 100.017 54.3443C100.095 54.2958 100.157 54.2244 100.202 54.1301C100.248 54.0357 100.271 53.92 100.271 53.7828ZM101.067 54.5748L100.634 52.9909H100.829L101.16 54.2809H101.175L101.512 52.9909H101.729L102.066 54.2809H102.081L102.412 52.9909H102.607L102.174 54.5748H101.976L101.627 53.3126H101.614L101.265 54.5748H101.067Z" fill="white"/>
<path d="M82.4434 53.2898C82.4833 52.8942 82.153 52.5621 81.7556 52.602C81.4616 52.631 81.2257 52.8688 81.1966 53.161C81.1567 53.5566 81.487 53.8887 81.8845 53.8488C82.1785 53.8197 82.4144 53.582 82.4434 53.2898Z" fill="white"/>
<path d="M82.8221 58.2098C82.3122 58.0319 82.1017 57.8214 81.9238 57.3114C81.8893 57.2116 81.7478 57.2116 81.7115 57.3114C81.5336 57.8214 81.3231 58.0319 80.8131 58.2098C80.7133 58.2442 80.7133 58.3858 80.8131 58.4221C81.3231 58.6 81.5336 58.8105 81.7115 59.3204C81.746 59.4202 81.8875 59.4202 81.9238 59.3204C82.1017 58.8105 82.3122 58.6 82.8221 58.4221C82.922 58.3876 82.922 58.2461 82.8221 58.2098Z" fill="white"/>
<path d="M84.3637 57.3877V55.8033C84.3637 54.4277 83.282 53.2753 81.9064 53.2281C80.46 53.1791 79.2731 54.337 79.2731 55.7707V57.3858C79.2731 57.5855 79.1116 57.7488 78.9102 57.7488V58.1118L78.9337 58.11C79.402 58.0646 79.8557 57.923 80.2604 57.6853C80.901 57.3096 81.2513 56.8015 81.5634 55.9104C81.6469 55.6727 81.9863 55.6727 82.0697 55.9104C82.3819 56.8015 82.7322 57.3096 83.3728 57.6853C83.7775 57.923 84.233 58.0628 84.6994 58.11H84.723V57.7488C84.5234 57.7488 84.36 57.5873 84.36 57.3858" fill="white"/>
<path d="M106.337 100.303C106.337 100.303 114.034 82.9784 116.457 74.9043C118.88 66.8302 120.979 61.6616 116.457 52.2953C111.934 42.9291 104.615 30.1691 106.337 43.0906C108.06 56.0102 113.92 60.1625 113.92 66.0807V77.2563L106.337 100.304V100.303Z" fill="#9B4710"/>
<path d="M117.844 58.8903C117.844 58.8903 120.439 54.6328 119.729 46.526C119.02 38.4174 117.499 36.4919 117.297 32.5392C117.094 28.5866 112.573 20.5106 111.909 33.5428C111.127 48.9234 117.844 58.8922 117.844 58.8922V58.8903Z" fill="#9B4710"/>
<path d="M111.769 110.589L113.194 163.69H53.3701L59.6076 110.589C59.6076 112.576 71.2842 114.188 85.6865 114.188C100.089 114.188 111.767 112.576 111.767 110.589H111.769Z" fill="#37353F"/>
<mask id="mask0_2188_65085" style="mask-type:luminance" maskUnits="userSpaceOnUse" x="53" y="110" width="61" height="56">
<path d="M111.768 110.589L113.919 165.435L53.3691 163.689L59.6067 110.587C59.6067 112.574 71.2832 114.186 85.6855 114.186C100.088 114.186 111.766 112.574 111.766 110.587L111.768 110.589Z" fill="white"/>
</mask>
<g mask="url(#mask0_2188_65085)">
<path d="M92.0176 141.074C90.4315 138.978 88.2646 138.23 86.1431 138.207C83.9798 138.183 81.7984 138.833 79.6968 139.552C79.5716 139.08 79.4155 138.608 79.225 138.138C78.147 135.481 76.1071 133.661 74.0183 133.036C71.4467 132.269 68.8279 132.924 66.3071 133.755C62.0841 135.149 57.9844 137.33 54.1261 140.129C46.4694 145.686 39.7963 153.847 34.7711 163.734C34.1395 164.975 33.5406 166.248 32.9654 167.541C31.7948 170.175 34.7384 172.598 35.9035 169.975C39.7328 161.357 44.8905 153.965 50.8957 148.375C53.892 145.586 57.0915 143.196 60.4362 141.365C62.1385 140.432 63.8771 139.63 65.6411 138.96C67.5412 138.239 69.5103 137.524 71.4866 137.499C73.1036 137.477 74.8676 138.053 75.9547 139.885C76.1289 140.181 76.2668 140.495 76.3739 140.82C74.9348 141.437 73.5138 142.143 72.1291 142.956C68.4377 145.125 64.0096 148.94 63.6158 155.224C63.525 156.669 63.8136 158.202 64.5631 159.228C65.6375 160.698 67.0984 160.244 68.376 159.692C70.5756 158.74 72.6717 157.251 74.5047 155.284C76.902 152.711 79.4319 148.709 79.9854 144.379C80.9454 144.06 81.9036 143.778 82.851 143.522C85.7928 142.728 90.5748 142.276 90.6692 148.159C90.7146 151.014 89.8852 153.818 88.9814 156.313C87.9415 159.181 86.6349 161.794 85.0723 164.135C83.5678 166.387 85.9688 169.803 87.4788 167.543C90.6474 162.798 93.464 156.5 94.0066 149.889C94.2662 146.722 93.7108 143.314 92.0176 141.076V141.074ZM66.4396 155.444C66.5558 154.968 66.6646 155.045 66.7572 155.261C66.5848 155.326 66.4523 155.389 66.4396 155.444ZM67.5975 154.988C67.5339 155.017 67.298 155.083 67.0548 155.159C67.0984 154.907 67.1601 154.653 67.2254 154.415C67.3579 153.932 67.543 153.469 67.7426 153.028C68.572 151.197 69.8968 149.901 71.2162 148.865C72.7243 147.684 74.3468 146.733 76.0182 145.945C74.3395 150.366 70.9004 153.518 67.5975 154.987V154.988Z" fill="#F470C7"/>
<path d="M93.1769 91.8183C92.0663 93.6822 92.01 95.9107 92.4437 97.9869C92.8866 100.105 93.7958 102.139 94.7377 104.086C94.4382 104.279 94.146 104.502 93.8629 104.76C92.2586 106.212 91.4347 108.477 91.4474 110.613C91.4637 113.24 92.4692 115.701 93.578 118.041C95.4327 121.959 97.8065 125.639 100.556 128.991C106.011 135.642 113.055 140.944 120.938 144.377C121.927 144.809 122.933 145.205 123.947 145.573C126.011 146.323 127.058 143.085 125.003 142.337C118.249 139.884 112.056 135.949 106.928 130.917C104.369 128.407 102.042 125.636 100.071 122.641C99.0678 121.117 98.1459 119.538 97.3093 117.914C96.4109 116.164 95.4999 114.347 95.0625 112.42C94.705 110.843 94.7268 109.032 95.7612 107.696C95.9282 107.48 96.1151 107.301 96.3166 107.146C97.0479 108.46 97.8356 109.743 98.6903 110.976C100.968 114.259 104.538 118.015 108.955 117.46C109.969 117.333 110.968 116.821 111.516 115.935C112.301 114.665 111.679 113.304 111.027 112.139C109.904 110.132 108.434 108.306 106.688 106.809C104.405 104.851 101.109 102.978 98.0061 103.085C97.5833 102.194 97.1859 101.299 96.8084 100.413C95.636 97.6566 94.3112 93.0506 98.3492 92.0779C100.307 91.606 102.418 91.9962 104.331 92.508C106.529 93.096 108.608 93.9816 110.554 95.1594C112.427 96.2937 114.272 93.4353 112.396 92.2993C108.45 89.911 103.51 88.1016 98.8355 88.5589C96.596 88.7785 94.3638 89.8311 93.1787 91.8202L93.1769 91.8183ZM108.508 114.665C108.156 114.623 108.185 114.505 108.316 114.382C108.398 114.54 108.47 114.661 108.508 114.665ZM107.95 113.602C107.982 113.66 108.078 113.881 108.182 114.106C107.999 114.101 107.81 114.079 107.634 114.052C107.273 113.994 106.915 113.883 106.567 113.752C105.127 113.215 103.953 112.115 102.959 110.979C101.825 109.682 100.825 108.239 99.928 106.723C103.333 107.703 106.236 110.593 107.95 113.602Z" fill="#F470C7"/>
<path d="M72.8381 124.363C74.6239 123.131 75.6039 121.128 76.0739 119.059C76.553 116.95 76.573 114.72 76.5276 112.558C76.8797 112.507 77.239 112.426 77.6038 112.311C79.6672 111.66 81.3586 109.943 82.237 107.996C83.3168 105.6 83.4257 102.943 83.393 100.355C83.3368 96.0196 82.7125 91.6859 81.6091 87.4936C79.4186 79.1745 75.2209 71.4235 69.4843 65.019C68.7638 64.215 68.0161 63.4365 67.2466 62.6797C65.6823 61.1389 63.3811 63.647 64.94 65.1823C70.0596 70.2257 74.0522 76.3797 76.6183 83.0909C77.8996 86.4392 78.8614 89.9255 79.4077 93.4698C79.6854 95.2738 79.8669 97.094 79.9503 98.9179C80.0393 100.882 80.1119 102.914 79.7053 104.849C79.3732 106.431 78.6001 108.068 77.1029 108.852C76.8615 108.979 76.6165 109.065 76.3679 109.121C76.2499 107.622 76.0684 106.128 75.8053 104.651C75.1012 100.718 73.4206 95.8164 69.1722 94.4807C68.1958 94.174 67.076 94.223 66.2104 94.8001C64.9672 95.6276 64.9654 97.1231 65.0725 98.4551C65.2576 100.747 65.8347 103.019 66.7984 105.108C68.0597 107.84 70.2756 110.914 73.1412 112.11C73.1557 113.095 73.1448 114.075 73.1176 115.039C73.0359 118.033 72.3227 122.772 68.2466 121.975C66.2684 121.589 64.5135 120.355 62.9873 119.093C61.2342 117.643 59.7115 115.974 58.4321 114.092C57.2016 112.28 54.3324 114.112 55.5665 115.926C58.1599 119.739 61.8966 123.443 66.3392 124.971C68.4662 125.705 70.9362 125.676 72.8399 124.362L72.8381 124.363ZM68.4117 97.2084C68.7148 97.3935 68.6386 97.4878 68.4698 97.5459C68.4626 97.368 68.4462 97.2283 68.4117 97.2084ZM68.4771 98.4079C68.4716 98.3426 68.4771 98.1012 68.4771 97.8526C68.6404 97.9343 68.8037 98.0323 68.9526 98.1303C69.2575 98.3335 69.5351 98.584 69.7983 98.8453C70.8817 99.9324 71.4933 101.421 71.9234 102.869C72.4152 104.52 72.7237 106.25 72.907 108.001C70.2193 105.693 68.782 101.858 68.4789 98.4079H68.4771Z" fill="#F470C7"/>
</g>
<path d="M118.896 59.6834C118.896 59.6834 115.17 48.0577 111.047 42.2412" stroke="black" stroke-width="0.228667" stroke-miterlimit="10"/>
<path d="M88.4237 93.0796C88.4237 93.0796 89.1659 80.209 81.8794 73.7192C74.5929 67.2294 73.0649 50.0522 73.0649 50.0522L68.2012 62.6234L74.5911 106.458L88.4218 93.0814L88.4237 93.0796Z" fill="#9B4710"/>
<path d="M88.4436 88.4845C88.4436 88.4845 86.5126 77.1619 80.6943 72.3654C75.0938 67.7485 73.0957 49.1593 73.0957 49.1593" stroke="black" stroke-width="0.228667" stroke-miterlimit="10"/>
<path d="M110.74 43.8271C111.506 43.4532 111.249 41.3541 110.167 39.1386C109.085 36.923 107.587 35.4301 106.822 35.8039C106.056 36.1778 106.313 38.2769 107.395 40.4925C108.477 42.708 109.975 44.201 110.74 43.8271Z" fill="#84E6E1"/>
<path d="M70.5862 34.845C70.8307 32.3915 70.4685 30.3467 69.7774 30.2779C69.0862 30.209 68.3277 32.1421 68.0833 34.5956C67.8388 37.0491 68.2009 39.0939 68.8921 39.1627C69.5833 39.2316 70.3417 37.2985 70.5862 34.845Z" fill="#84E6E1"/>
<path d="M116.24 33.8515C117.068 33.7322 117.468 31.7432 117.132 29.4089C116.796 27.0745 115.852 25.2788 115.023 25.398C114.195 25.5173 113.796 27.5063 114.132 29.8406C114.468 32.175 115.412 33.9707 116.24 33.8515Z" fill="#84E6E1"/>
<path d="M64.4395 64.1987L75.8419 63.2386" stroke="#FF5B00" stroke-width="0.415593" stroke-miterlimit="10"/>
<path d="M49.3568 90.8946C47.8033 90.4681 47.1409 89.8892 46.5057 88.4101C46.3805 88.1198 45.9613 88.147 45.8778 88.4537C45.4513 90.0072 44.8724 90.6696 43.3933 91.3047C43.103 91.43 43.1302 91.8492 43.4369 91.9327C44.9904 92.3592 45.6528 92.9381 46.288 94.4172C46.4132 94.7075 46.8324 94.6803 46.9159 94.3736C47.3424 92.8201 47.9213 92.1577 49.4004 91.5225C49.6908 91.3973 49.6635 90.9781 49.3568 90.8946Z" fill="#FF9260"/>
<path d="M139.332 14.8666C138.1 13.8285 137.74 13.0263 137.782 11.4166C137.791 11.1008 137.397 10.9502 137.194 11.1934C136.156 12.4256 135.354 12.785 133.744 12.7432C133.428 12.7342 133.278 13.128 133.521 13.3312C134.753 14.3693 135.112 15.1715 135.071 16.7812C135.062 17.097 135.455 17.2476 135.659 17.0044C136.697 15.7722 137.499 15.4128 139.109 15.4546C139.424 15.4636 139.575 15.0698 139.332 14.8666Z" fill="#FF9260"/>
<path d="M135.26 129.461C135.527 131.808 127.785 134.566 116.582 135.838C105.379 137.112 96.9256 135.799 96.6588 133.452C96.392 131.105 104.414 128.615 115.616 127.341C126.819 126.067 134.993 127.113 135.26 129.459V129.461Z" fill="#8077CE"/>
<path d="M109.887 85.6298C109.588 75.2001 102.588 67.0171 100.786 60.3513C98.9839 53.6855 98.5375 48.1122 108.644 60.883C118.749 73.6539 127.685 85.3612 129.451 107.284C131.217 129.209 134.73 144.187 129.923 149.07C125.115 153.954 102.225 156.453 99.365 147.074C101.962 134.646 100.278 125.726 96.8424 111.892C96.8424 111.892 89.3999 111.306 87.2657 101.442C85.7811 94.5841 90.2383 93.1649 90.2383 93.1649C88.7756 90.6423 89.9479 86.931 93.9605 85.9982C95.9386 80.3632 101.757 79.2017 109.889 85.6298H109.887Z" fill="#9B4710"/>
<path d="M90.2363 93.1631C95.982 91.4046 103.076 99.5604 103.076 99.5604" stroke="black" stroke-width="0.228667" stroke-miterlimit="10"/>
<path d="M93.959 85.9964C99.6267 85.5463 106.505 91.1015 107.615 92.9145" stroke="black" stroke-width="0.228667" stroke-miterlimit="10"/>
<path d="M96.8419 111.892C95.165 105.896 93.0508 100.586 93.0508 100.586" stroke="black" stroke-width="0.228667" stroke-miterlimit="10"/>
<path d="M146.19 173.982L135.258 129.461C135.258 129.461 128.839 135.532 115.957 136.336C103.076 137.14 96.6568 133.454 96.6568 133.454L93.0508 177.115L146.192 173.982H146.19Z" fill="#37353F"/>
<mask id="mask1_2188_65085" style="mask-type:luminance" maskUnits="userSpaceOnUse" x="93" y="129" width="54" height="49">
<path d="M146.425 173.982L135.492 129.461C135.492 129.461 129.073 135.532 116.192 136.336C103.31 137.14 96.8912 133.454 96.8912 133.454L93.2852 177.115L146.427 173.982H146.425Z" fill="white"/>
</mask>
<g mask="url(#mask1_2188_65085)">
<path d="M137.139 160.304C135.553 158.208 133.386 157.46 131.264 157.437C129.101 157.413 126.919 158.063 124.818 158.781C124.693 158.31 124.537 157.838 124.346 157.368C123.268 154.711 121.228 152.89 119.139 152.266C116.568 151.499 113.949 152.154 111.428 152.985C107.205 154.379 103.105 156.56 99.2472 159.359C91.5905 164.915 84.9174 173.077 79.8922 182.964C79.2606 184.205 78.6617 185.477 78.0864 186.771C76.9159 189.405 79.8595 191.827 81.0246 189.205C84.8539 180.586 90.0116 173.195 96.0168 167.605C99.0131 164.816 102.213 162.426 105.557 160.594C107.26 159.662 108.998 158.859 110.762 158.19C112.662 157.469 114.631 156.754 116.608 156.729C118.225 156.707 119.989 157.282 121.076 159.115C121.25 159.411 121.388 159.725 121.495 160.05C120.056 160.667 118.635 161.373 117.25 162.186C113.559 164.355 109.131 168.169 108.737 174.454C108.646 175.899 108.935 177.432 109.684 178.458C110.759 179.928 112.219 179.474 113.497 178.922C115.697 177.969 117.793 176.481 119.626 174.514C122.023 171.941 124.553 167.939 125.106 163.609C126.067 163.289 127.025 163.008 127.972 162.752C130.914 161.957 135.696 161.505 135.79 167.389C135.836 170.244 135.006 173.048 134.103 175.543C133.063 178.41 131.756 181.024 130.193 183.365C128.689 185.617 131.09 189.033 132.6 186.773C135.769 182.027 138.585 175.73 139.128 169.119C139.387 165.952 138.832 162.543 137.139 160.306V160.304ZM111.561 174.674C111.677 174.198 111.786 174.274 111.878 174.49C111.706 174.556 111.573 174.619 111.561 174.674ZM112.719 174.218C112.655 174.247 112.419 174.313 112.176 174.389C112.219 174.137 112.281 173.882 112.347 173.645C112.479 173.162 112.664 172.699 112.864 172.258C113.693 170.427 115.018 169.131 116.337 168.095C117.845 166.914 119.468 165.963 121.139 165.175C119.461 169.596 116.022 172.748 112.719 174.216V174.218Z" fill="#F470C7"/>
<path d="M137.698 123.55C136.588 125.414 136.531 127.643 136.965 129.719C137.408 131.837 138.317 133.871 139.259 135.819C138.96 136.011 138.668 136.234 138.384 136.492C136.78 137.944 135.956 140.209 135.969 142.345C135.985 144.972 136.991 147.433 138.099 149.773C139.954 153.691 142.328 157.371 145.077 160.723C150.533 167.375 157.576 172.676 165.46 176.109C166.449 176.541 167.454 176.937 168.469 177.305C170.532 178.055 171.579 174.817 169.525 174.069C162.77 171.616 156.578 167.681 151.449 162.649C148.89 160.139 146.564 157.368 144.593 154.373C143.589 152.849 142.667 151.27 141.831 149.646C140.932 147.896 140.021 146.079 139.584 144.152C139.226 142.575 139.248 140.764 140.283 139.428C140.45 139.212 140.637 139.033 140.838 138.878C141.569 140.192 142.357 141.475 143.212 142.708C145.489 145.991 149.059 149.747 153.476 149.192C154.491 149.065 155.489 148.553 156.037 147.667C156.823 146.397 156.2 145.036 155.549 143.871C154.426 141.864 152.956 140.038 151.21 138.541C148.927 136.583 145.631 134.71 142.528 134.817C142.105 133.926 141.707 133.031 141.33 132.145C140.157 129.389 138.833 124.783 142.871 123.81C144.829 123.338 146.939 123.728 148.852 124.24C151.05 124.828 153.13 125.714 155.075 126.891C156.948 128.026 158.794 125.167 156.917 124.031C152.972 121.643 148.032 119.834 143.357 120.291C141.118 120.511 138.885 121.563 137.7 123.552L137.698 123.55ZM153.03 146.397C152.678 146.355 152.707 146.237 152.838 146.114C152.919 146.272 152.992 146.393 153.03 146.397ZM152.471 145.334C152.504 145.392 152.6 145.613 152.703 145.838C152.52 145.833 152.331 145.811 152.155 145.784C151.794 145.726 151.437 145.615 151.088 145.484C149.649 144.947 148.475 143.847 147.48 142.711C146.346 141.414 145.346 139.971 144.45 138.455C147.854 139.435 150.758 142.325 152.471 145.334Z" fill="#F470C7"/>
<path d="M117.96 143.591C119.746 142.359 120.726 140.356 121.196 138.287C121.675 136.178 121.695 133.947 121.65 131.786C122.002 131.735 122.361 131.654 122.726 131.539C124.789 130.888 126.481 129.171 127.359 127.224C128.439 124.828 128.548 122.171 128.515 119.583C128.459 115.248 127.835 110.914 126.731 106.722C124.541 98.4025 120.343 90.6514 114.606 84.2469C113.886 83.443 113.138 82.6644 112.369 81.9076C110.804 80.3669 108.503 82.8749 110.062 84.4103C115.182 89.4536 119.174 95.6077 121.74 102.319C123.022 105.667 123.984 109.153 124.53 112.698C124.807 114.502 124.989 116.322 125.072 118.146C125.161 120.109 125.234 122.142 124.827 124.077C124.495 125.659 123.722 127.296 122.225 128.08C121.984 128.207 121.739 128.293 121.49 128.349C121.372 126.85 121.191 125.356 120.927 123.879C120.223 119.946 118.543 115.044 114.294 113.709C113.318 113.402 112.198 113.451 111.332 114.028C110.089 114.856 110.087 116.351 110.195 117.683C110.38 119.975 110.957 122.247 111.92 124.336C113.182 127.067 115.398 130.142 118.263 131.338C118.278 132.323 118.267 133.303 118.24 134.267C118.158 137.261 117.445 142 113.369 141.203C111.391 140.817 109.636 139.582 108.109 138.321C106.356 136.871 104.834 135.201 103.554 133.32C102.324 131.508 99.4545 133.34 100.689 135.154C103.282 138.967 107.019 142.671 111.461 144.199C113.588 144.933 116.058 144.903 117.962 143.59L117.96 143.591ZM113.534 116.436C113.837 116.621 113.761 116.716 113.592 116.774C113.585 116.596 113.568 116.456 113.534 116.436ZM113.599 117.636C113.594 117.571 113.599 117.329 113.599 117.081C113.762 117.162 113.926 117.26 114.075 117.358C114.38 117.562 114.657 117.812 114.92 118.073C116.004 119.16 116.615 120.649 117.045 122.097C117.537 123.748 117.846 125.478 118.029 127.229C115.341 124.921 113.904 121.086 113.601 117.636H113.599Z" fill="#F470C7"/>
</g>
<path d="M97.4064 114.188L96.4482 111.892C96.4482 111.892 85.327 106.435 86.7462 96.7328C87.1273 94.1286 90.0165 93.3355 90.218 92.9163C90.3468 92.6477 88.9694 90.4463 89.9203 88.6696C91.5428 85.6407 93.6806 86.2722 93.9583 85.9982C93.9583 85.9982 93.9583 81.2071 101.034 81.3232" stroke="black" stroke-width="0.228667" stroke-miterlimit="10"/>
<path d="M110.936 63.7976C110.936 63.7976 116.471 70.9752 118.404 74.1312" stroke="black" stroke-width="0.228667" stroke-miterlimit="10"/>
<path d="M108.605 78.2544C108.605 78.2544 109.587 81.9367 109.717 83.3722C109.848 84.8077 109.888 85.6298 109.888 85.6298C109.888 85.6298 105.044 82.3632 103.623 81.9421" stroke="black" stroke-width="0.228667" stroke-miterlimit="10"/>
<path d="M105.596 58.8806C106.264 58.3513 105.563 56.3559 104.031 54.4239C102.499 52.4919 100.716 51.3547 100.049 51.884C99.381 52.4133 100.082 54.4086 101.614 56.3407C103.145 58.2727 104.928 59.4099 105.596 58.8806Z" fill="#84E6E1"/>
<path d="M93.957 163.756L96.1221 133.617" stroke="black" stroke-width="0.228667" stroke-miterlimit="10"/>
</g>
<defs>
<clipPath id="clip0_2188_65085">
<rect width="196" height="177" fill="white"/>
</clipPath>
</defs>
</svg>
