<svg width="224" height="177" viewBox="0 0 224 177" fill="none" xmlns="http://www.w3.org/2000/svg">
<g clip-path="url(#clip0_2188_64817)">
<path d="M12.3516 173.895V79.3162C12.3516 65.8578 17.8969 53.2053 27.9661 43.6899C38.0354 34.1745 51.4243 28.9319 65.666 28.9319C79.9077 28.9319 93.2966 34.1722 103.366 43.6899C113.435 53.2053 118.98 65.8578 118.98 79.3162V173.895H12.3516Z" stroke="#FFDDBD" stroke-width="0.442784" stroke-miterlimit="10"/>
<path d="M65.6674 33.1096C92.6538 33.1096 114.566 53.8141 114.566 79.3185V169.722H16.7715V79.3185C16.7715 53.8163 38.6811 33.1096 65.6698 33.1096H65.6674Z" stroke="#FFDDBD" stroke-width="0.442784" stroke-miterlimit="10"/>
<path d="M17.166 73.4206H113.522" stroke="#FFDDBD" stroke-width="0.442784" stroke-miterlimit="10"/>
<path d="M17.166 100.003H113.522" stroke="#FFDDBD" stroke-width="0.442784" stroke-miterlimit="10"/>
<path d="M64.8203 33.3398V160.394" stroke="#FFDDBD" stroke-width="0.522438" stroke-miterlimit="10"/>
<path d="M17.4902 127.325H113.846" stroke="#FFDDBD" stroke-width="0.442784" stroke-miterlimit="10"/>
<path d="M163.489 134.89C162.543 135.156 161.585 135.284 160.643 135.284C156.569 135.284 152.774 132.915 151.284 129.136L127.91 90.6317L92.4356 88.9602L91.4938 102.45L72.002 97.5457L74.8484 79.3584C75.9284 74.1291 81.0942 70.5736 86.6911 71.2067L131.897 76.3231C137.607 76.8478 142.557 80.2794 144.804 85.2718L169.749 121.954C172.242 127.168 169.295 133.263 163.492 134.89H163.489Z" fill="#37353F"/>
<path d="M117.862 87.8421L126.312 85.6304L135.887 89.6819L137.605 100.267L130.996 107.584L155.672 174.034L72 174.397C72 174.397 79.4149 142.26 100.099 127.024L99.3589 124.292L85.1828 87.6517L98.5319 85.6016L110.262 84.4947L117.864 87.8444L117.862 87.8421Z" fill="#37353F"/>
<path d="M91.4907 102.45L89.2511 134.52C88.3959 140.779 82.0564 145.008 75.5318 143.67C70.2137 142.581 66.5449 138.136 66.5449 133.152C66.5449 132.552 66.5988 131.943 66.7089 131.332L71.9989 97.5435L91.4907 102.447V102.45Z" fill="#37353F"/>
<path d="M164.88 114.794L134.973 154.616L144.592 169.181L172.591 140.646C176.482 136.679 176.887 130.673 173.558 126.271L164.88 114.794Z" fill="#37353F"/>
<path d="M101.045 125.824L126.735 123.866L128.87 148.891L104.21 150.77C103.641 150.813 103.141 150.412 103.095 149.873L101.043 125.824L101.045 125.824Z" fill="#FF9260"/>
<path d="M70.9417 140.168C82.1659 150.678 122.143 134.83 122.143 134.83L124.359 121.954L70.9651 125.941C70.9651 125.941 65.2394 134.826 70.944 140.168H70.9417Z" fill="#37353F"/>
<path d="M85.1797 124.879L116.09 123.026" stroke="black" stroke-width="0.250676" stroke-linecap="round" stroke-linejoin="round"/>
<path d="M121.735 65.3974C122.202 65.3908 122.549 63.421 122.511 60.9979C122.473 58.5747 122.063 56.6158 121.596 56.6224C121.129 56.629 120.781 58.5987 120.82 61.0219C120.858 63.445 121.268 65.404 121.735 65.3974Z" fill="#FF5B00"/>
<path d="M91.512 47.0263C91.8025 56.2163 99.7984 63.4425 109.373 63.1702C118.948 62.8957 126.476 55.2245 126.185 46.0367C125.895 36.8467 120.696 29.7268 108.324 29.8928C98.7465 30.0234 91.2215 37.8386 91.512 47.0263Z" fill="black"/>
<path d="M101.607 73.9985L110.932 86.5846L116.186 76.011C116.186 76.011 117.264 69.998 118.061 65.4794C118.065 65.4528 118.07 65.424 118.077 65.3974C118.539 62.7739 118.906 60.6729 118.904 60.58L113.827 58.811L113.527 58.707L104.92 55.7093L101.607 74.0007V73.9985Z" fill="#8E410F"/>
<path d="M105.823 57.3432C105.823 57.3432 109.074 61.6249 111.787 63.3141C113.533 64.3989 116.965 65.2446 118.075 65.3996C118.537 62.7761 118.905 60.6751 118.902 60.5821L113.826 58.8132L113.526 58.7092L105.82 57.3454L105.823 57.3432Z" fill="#72310B"/>
<path d="M101.08 52.9618C101.08 52.9618 106.269 62.5282 116.889 62.4595C127.507 62.3887 128.875 56.1565 126.359 49.6387C126.061 48.8705 125.832 48.2019 125.651 47.6108C125.351 46.6189 125.192 45.8463 125.117 45.2109C124.848 42.9881 125.553 42.3793 124.552 39.7359C121.362 31.5488 113.335 32.1134 113.335 32.1134C90.2121 33.5568 101.078 52.9618 101.078 52.9618H101.08Z" fill="#8E410F"/>
<path d="M110.451 47.1548C110.451 47.1548 110.828 48.2108 112.592 48.7111C112.827 48.7798 113.087 48.8373 113.375 48.8794C113.605 48.9148 113.851 48.9414 114.118 48.9569C116.521 49.0942 117.704 48.1709 117.704 48.1709C117.704 48.1709 116.763 45.9991 114.408 45.7069C114.312 45.6936 114.211 45.6847 114.111 45.6781C113.18 45.6272 112.445 45.8087 111.883 46.0633C110.901 46.5039 110.451 47.157 110.451 47.157V47.1548Z" fill="#FF5B00"/>
<path d="M96.8129 49.4262C95.6579 51.556 97.6212 55.2245 100.51 56.6192C103.398 58.0162 106.65 57.6664 107.803 55.5366C108.958 53.4069 107.018 49.4949 104.132 48.0979C101.243 46.7009 97.9679 47.2964 96.8153 49.4262H96.8129Z" fill="#8F410F"/>
<path d="M110.451 47.7636C110.451 47.7636 110.835 48.7045 112.632 49.1451C112.871 49.2048 113.136 49.2558 113.431 49.2934C113.665 49.3244 113.916 49.3487 114.19 49.3598C116.643 49.4771 117.852 48.6536 117.852 48.6536C117.852 48.6536 116.896 46.7208 114.492 46.464C114.394 46.4507 114.291 46.4441 114.188 46.4397C113.239 46.3954 112.487 46.5592 111.913 46.7872C110.91 47.1813 110.451 47.7658 110.451 47.7658V47.7636Z" fill="white"/>
<path d="M111.633 47.6972C111.642 48.3414 112.05 48.8927 112.633 49.1428C112.858 49.2447 113.113 49.2978 113.378 49.2934C113.395 49.2934 113.413 49.2934 113.432 49.2912C114.355 49.2535 115.084 48.5274 115.07 47.6485C115.063 47.1747 114.84 46.7518 114.493 46.464C114.395 46.4507 114.292 46.4441 114.189 46.4397C113.24 46.3954 112.488 46.5592 111.914 46.7872C111.734 47.0507 111.628 47.3651 111.635 47.6994L111.633 47.6972Z" fill="black"/>
<path d="M117.692 48.5672C117.692 48.5672 115.518 44.2922 110.385 47.6152" stroke="black" stroke-width="0.482611" stroke-linecap="round" stroke-linejoin="round"/>
<path d="M120.773 47.4602C120.773 47.4602 121.336 47.7547 123.076 47.6041C123.311 47.5864 123.559 47.551 123.833 47.4979C124.049 47.4536 124.281 47.4005 124.527 47.3296C124.899 47.2233 125.232 47.1038 125.527 46.9776C125.227 45.9858 125.068 45.2131 124.993 44.5777C124.634 44.5556 124.241 44.5821 123.824 44.6751C123.732 44.6928 123.641 44.7172 123.547 44.7438C122.69 44.9895 122.078 45.3592 121.647 45.7334C120.891 46.3843 120.773 47.4624 120.773 47.4624V47.4602Z" fill="#FF5B00"/>
<path d="M120.803 47.6683C120.803 47.6683 121.461 48.3879 123.202 48.2373C123.436 48.2196 123.684 48.1842 123.958 48.131C124.174 48.0868 124.406 48.0336 124.652 47.9628C125.024 47.8565 125.357 47.737 125.652 47.6108C125.352 46.6189 125.193 45.8463 125.118 45.2109C124.76 45.1887 124.366 45.2153 123.949 45.3083C123.858 45.326 123.766 45.3504 123.673 45.3769C122.815 45.6227 122.204 45.9924 121.773 46.3666C121.016 47.0174 120.805 47.6706 120.805 47.6706L120.803 47.6683Z" fill="white"/>
<path d="M121.394 47.6241C121.715 48.1488 122.315 48.4255 122.917 48.3812C123.151 48.368 123.386 48.3015 123.604 48.1842C123.618 48.1776 123.634 48.1687 123.646 48.1598C124.386 47.7281 124.634 46.8182 124.196 46.1009C123.96 45.7157 123.573 45.4633 123.149 45.3747C123.062 45.4079 122.976 45.4456 122.887 45.4854C122.085 45.8596 121.547 46.3201 121.184 46.754C121.162 47.0507 121.228 47.3518 121.394 47.6263V47.6241Z" fill="black"/>
<path d="M125.052 45.16C123.827 45.0493 122.269 45.5054 120.697 47.5599" stroke="black" stroke-width="0.454497" stroke-linecap="round" stroke-linejoin="round"/>
<path d="M104.712 65.3974C105.179 65.3908 105.526 63.4211 105.488 60.9979C105.449 58.5748 105.039 56.6158 104.572 56.6224C104.105 56.6291 103.758 58.5988 103.796 61.0219C103.835 63.4451 104.245 65.4041 104.712 65.3974Z" fill="#FF5B00"/>
<path d="M116.917 32.0824C117.543 32.1599 118.166 32.2772 118.74 32.4167C119.434 32.5872 120.111 32.8971 120.584 33.4085C121.055 33.9199 121.289 34.655 121.062 35.2992C120.511 36.8534 116.531 37.0327 115.1 37.3714C114.486 37.5175 113.83 37.688 113.431 38.1507C112.989 38.6644 112.989 39.3994 113.092 40.0547C113.195 40.71 113.382 41.3786 113.235 42.0273C113.059 42.8088 112.412 43.4398 111.665 43.8117C110.918 44.1837 110.07 44.3342 109.233 44.4538C108.355 44.58 107.389 44.7172 106.801 45.346C106.328 45.8507 106.206 46.5813 106.314 47.2477C106.518 48.5163 107.179 50.2874 108.847 50.2343C108.371 50.2498 107.9 50.3937 107.422 50.3583C106.921 50.3184 106.431 50.1944 105.97 50.004C105.026 49.6122 104.431 48.8993 103.604 48.3812C101.931 47.3363 99.595 47.3053 97.8965 48.3104C97.7747 48.3835 97.6505 48.4609 97.51 48.4831C97.2452 48.5229 96.9852 48.348 96.8563 48.1244C96.7275 47.9008 96.7017 47.6418 96.6783 47.3872C96.6431 47.0064 96.6127 46.6013 96.8071 46.267C96.8727 46.154 96.9618 46.0522 97.0203 45.9371C97.2546 45.4766 96.9805 44.9497 96.9665 44.4737C96.9524 44.0065 96.8774 43.5505 96.8189 43.0767C96.697 42.0694 96.697 41.02 97.114 40.068C97.3272 39.5809 97.6412 39.1404 97.9762 38.7197C99.6232 36.6431 101.832 34.9693 104.334 33.9C105.883 33.238 107.532 32.8085 109.2 32.5075C111.241 32.1399 113.321 31.9606 115.399 31.9783C115.884 31.9828 116.4 32.0204 116.915 32.0846L116.917 32.0824Z" fill="black"/>
<path d="M117.078 55.0452C117.006 55.0562 117.418 57.0488 119.147 57.3011C121.696 57.6731 122.691 55.3662 122.691 55.3662C122.691 55.3662 120.787 54.4452 117.078 55.0452Z" fill="#FF27E7"/>
<path d="M122.69 55.3684C122.763 55.3507 122.17 54.1507 120.394 54.0223C118.621 53.8961 116.861 55.0385 116.861 55.0385C116.861 55.0385 119.042 56.2495 122.69 55.3662V55.3684Z" fill="#801478"/>
<path d="M123.105 55.2112C122.547 55.2731 121.997 55.3706 121.439 55.4458C120.947 55.5122 120.437 55.5676 119.94 55.541C119.143 55.4967 118.347 55.2953 117.588 55.0783C117.206 54.9698 116.812 54.868 116.449 54.7108C116.363 54.6732 116.292 54.7816 116.374 54.8348C117.033 55.2488 117.815 55.4724 118.579 55.6362C118.972 55.7204 119.371 55.789 119.774 55.82C120.233 55.8554 120.692 55.8111 121.144 55.7491C121.819 55.6561 122.47 55.5122 123.119 55.313C123.173 55.2953 123.168 55.2067 123.105 55.2134V55.2112Z" fill="black"/>
<path d="M105.198 52.7139C104.465 50.9095 102.239 50.2321 100.361 50.2299C100.049 50.2299 99.7374 50.2498 99.4281 50.2808C99.2641 50.2985 99.1025 50.3206 98.9408 50.3516C98.7792 50.3826 98.648 50.4336 98.5004 50.4955C98.3879 50.542 98.4606 50.6837 98.5566 50.6926C98.6855 50.7037 98.805 50.7169 98.9361 50.7081C99.0673 50.6992 99.2079 50.6882 99.3461 50.6793C99.6109 50.6616 99.8756 50.6439 100.14 50.6394C100.658 50.6306 101.178 50.6549 101.689 50.7479C102.549 50.9029 103.394 51.2261 104.076 51.7531C104.449 52.0409 104.807 52.3862 105.084 52.7582C105.121 52.8091 105.226 52.7803 105.198 52.7117V52.7139Z" fill="black"/>
<path d="M102.243 50.6992C102.09 50.7745 101.997 50.9184 101.903 51.0512C101.809 51.184 101.72 51.3257 101.641 51.4718C101.477 51.7774 101.357 52.105 101.331 52.4482C101.285 53.0681 101.552 53.7278 102.098 54.0931C102.25 54.195 102.383 53.9846 102.283 53.8673C101.915 53.44 101.676 52.9375 101.73 52.3773C101.758 52.0917 101.847 51.8106 101.962 51.5471C102.025 51.401 102.1 51.2593 102.18 51.1198C102.247 51.0003 102.318 50.8852 102.329 50.7479C102.334 50.7036 102.276 50.6815 102.238 50.6992H102.243Z" fill="black"/>
<path d="M117.815 45.7223C116.941 44.9519 115.934 44.4006 114.732 44.2611C113.228 44.0862 111.6 44.467 110.257 45.098C109.939 45.2486 110.164 45.709 110.494 45.6293C111.867 45.2973 113.223 44.839 114.664 44.932C115.739 45.0006 116.721 45.4168 117.599 45.9902C117.768 46.0987 117.965 45.8552 117.817 45.7245L117.815 45.7223Z" fill="black"/>
<path d="M121.744 44.4803C122.023 44.3586 122.33 44.3054 122.625 44.2279C122.892 44.1593 123.164 44.1017 123.438 44.0597C123.932 43.9822 124.45 43.9401 124.93 43.8781C125.115 43.856 125.275 43.7453 125.275 43.5527C125.275 43.3734 125.118 43.2317 124.93 43.2272C124.363 43.2184 123.808 43.3069 123.264 43.4619C122.976 43.5438 122.693 43.6435 122.416 43.7564C122.121 43.8781 121.859 44.0619 121.589 44.2257C121.418 44.3298 121.566 44.5556 121.746 44.4781L121.744 44.4803Z" fill="black"/>
<path d="M120.717 44.8434C120.061 45.0736 119.585 45.6869 119.379 46.3001C119.274 46.6145 119.239 46.9466 119.29 47.2743C119.339 47.5798 119.475 47.8676 119.639 48.1333C119.981 48.6889 120.448 49.1627 120.818 49.7029C121.162 50.2055 121.408 50.7966 121.162 51.3855C121.026 51.7109 120.607 51.8836 120.269 51.9478C119.773 52.043 119.278 51.9146 118.829 51.7198C118.686 51.6578 118.585 51.8283 118.707 51.9168C119.356 52.3862 120.33 52.4504 121.019 52.0143C121.333 51.8172 121.513 51.5427 121.581 51.1929C121.642 50.8852 121.614 50.5708 121.511 50.2741C121.293 49.6498 120.825 49.1406 120.408 48.627C120.002 48.1266 119.571 47.5753 119.585 46.9156C119.592 46.5282 119.721 46.1562 119.925 45.8219C120.143 45.4655 120.443 45.1887 120.766 44.9209C120.801 44.8921 120.766 44.8279 120.719 44.8434H120.717Z" fill="black"/>
<path d="M110.226 33.8934C119.202 33.8934 126.478 29.5529 126.478 24.1986C126.478 18.8444 119.202 14.5039 110.226 14.5039C101.251 14.5039 93.9746 18.8444 93.9746 24.1986C93.9746 29.5529 101.251 33.8934 110.226 33.8934Z" fill="black"/>
<path d="M110.275 21.6061C116.469 21.6061 121.49 17.2656 121.49 11.9114C121.49 6.55711 116.469 2.21662 110.275 2.21662C104.082 2.21662 99.0605 6.55711 99.0605 11.9114C99.0605 17.2656 104.082 21.6061 110.275 21.6061Z" fill="black"/>
<path d="M102.756 92.4138L123.297 111.33L124.356 125.649L101.184 126.583L102.756 92.4138Z" fill="#37353F"/>
<path d="M102.041 91.7408L123.302 111.33L122.704 118.954" stroke="black" stroke-width="0.250676" stroke-linecap="round" stroke-linejoin="round"/>
<path d="M123.104 75.329L129.409 80.0403L126.998 86.6532L135.605 87.0982L121.49 109.665" stroke="black" stroke-width="0.250676" stroke-linecap="round" stroke-linejoin="round"/>
<path d="M90.9555 71.8311L88.0247 78.9045L93.6357 83.4652L86.4434 87.9506L110.675 100.709" stroke="black" stroke-width="0.250676" stroke-linecap="round" stroke-linejoin="round"/>
<path d="M88.2305 95.5399L93.0987 108.119" stroke="black" stroke-width="0.250676" stroke-linecap="round" stroke-linejoin="round"/>
<path d="M134.057 104.194L137.854 99.3988C138.787 98.221 139.147 96.7244 138.848 95.2809L137.648 89.5114" stroke="black" stroke-width="0.250676" stroke-linecap="round" stroke-linejoin="round"/>
<path d="M120.694 114.172C121.435 114.172 122.036 113.604 122.036 112.904C122.036 112.203 121.435 111.635 120.694 111.635C119.953 111.635 119.352 112.203 119.352 112.904C119.352 113.604 119.953 114.172 120.694 114.172Z" fill="black"/>
<path d="M120.694 120.223C121.435 120.223 122.036 119.655 122.036 118.954C122.036 118.254 121.435 117.686 120.694 117.686C119.953 117.686 119.352 118.254 119.352 118.954C119.352 119.655 119.953 120.223 120.694 120.223Z" fill="black"/>
<path d="M110.936 113.805C111.678 113.805 112.279 113.237 112.279 112.536C112.279 111.836 111.678 111.268 110.936 111.268C110.195 111.268 109.594 111.836 109.594 112.536C109.594 113.237 110.195 113.805 110.936 113.805Z" fill="black"/>
<path d="M110.936 119.858C111.678 119.858 112.279 119.29 112.279 118.589C112.279 117.888 111.678 117.32 110.936 117.32C110.195 117.32 109.594 117.888 109.594 118.589C109.594 119.29 110.195 119.858 110.936 119.858Z" fill="black"/>
<path d="M118.984 173.895L120.695 164.386" stroke="black" stroke-width="0.250676" stroke-linecap="round" stroke-linejoin="round"/>
<path d="M84.1758 143.761C84.1758 143.761 92.9799 143.25 98.5581 141.928C104.136 140.606 106.479 139.978 106.479 139.978" stroke="black" stroke-width="0.250676" stroke-linecap="round" stroke-linejoin="round"/>
<path d="M140.992 145.191L143.963 144.501L152.678 164.291L149.824 166.545L140.992 145.191Z" fill="black"/>
<path d="M83.7076 146.239L86.444 147.536L79.4625 167.933L75.7422 167.893L83.7076 146.239Z" fill="black"/>
<path d="M165.96 122.056C164.46 120.863 164.022 119.939 164.074 118.089C164.083 117.723 163.605 117.553 163.357 117.832C162.094 119.249 161.117 119.663 159.159 119.614C158.772 119.605 158.592 120.057 158.887 120.292C160.386 121.485 160.824 122.408 160.773 124.259C160.764 124.624 161.241 124.795 161.49 124.516C162.753 123.099 163.73 122.685 165.688 122.733C166.075 122.742 166.255 122.291 165.96 122.056Z" fill="white"/>
<path d="M117.073 71.0716L110.935 86.5868L102.276 70.3278C102.276 70.3278 100.034 65.7516 96.3819 65.8623C92.7296 65.973 91.4902 67.7043 91.4902 67.7043L97.9867 72.4886L91.4902 71.7535L97.2277 87.541L117.073 105.35L124.357 86.9056L123.106 75.3312C123.106 75.3312 123.666 71.9661 126.316 72.0524L128.965 72.1388C128.965 72.1388 125.31 65.9044 117.45 71.1381" fill="#FFDDBD"/>
<path d="M105.14 76.0132C105.14 76.0132 101.19 72.7831 97.2285 71.9285" stroke="black" stroke-width="0.250676" stroke-linecap="round" stroke-linejoin="round"/>
<path d="M114.338 77.9857C114.338 77.9857 119.759 73.4494 124.714 72.5151" stroke="black" stroke-width="0.250676" stroke-linecap="round" stroke-linejoin="round"/>
<path d="M103.971 79.2543C104.341 79.2543 104.641 78.9708 104.641 78.6211C104.641 78.2714 104.341 77.9879 103.971 77.9879C103.601 77.9879 103.301 78.2714 103.301 78.6211C103.301 78.9708 103.601 79.2543 103.971 79.2543Z" fill="#FF9260"/>
<path d="M105.537 81.9885C105.907 81.9885 106.207 81.705 106.207 81.3553C106.207 81.0056 105.907 80.7221 105.537 80.7221C105.167 80.7221 104.867 81.0056 104.867 81.3553C104.867 81.705 105.167 81.9885 105.537 81.9885Z" fill="#FF9260"/>
<path d="M107.152 84.4925C107.522 84.4925 107.822 84.209 107.822 83.8593C107.822 83.5096 107.522 83.2261 107.152 83.2261C106.782 83.2261 106.482 83.5096 106.482 83.8593C106.482 84.209 106.782 84.4925 107.152 84.4925Z" fill="#FF9260"/>
<path d="M108.721 87.5365C109.091 87.5365 109.391 87.2531 109.391 86.9034C109.391 86.5537 109.091 86.2702 108.721 86.2702C108.351 86.2702 108.051 86.5537 108.051 86.9034C108.051 87.2531 108.351 87.5365 108.721 87.5365Z" fill="#FF9260"/>
<path d="M110.231 90.9593C110.601 90.9593 110.901 90.6758 110.901 90.3261C110.901 89.9764 110.601 89.6929 110.231 89.6929C109.861 89.6929 109.561 89.9764 109.561 90.3261C109.561 90.6758 109.861 90.9593 110.231 90.9593Z" fill="#FF9260"/>
<path d="M111.606 94.3156C111.976 94.3156 112.276 94.0321 112.276 93.6824C112.276 93.3327 111.976 93.0492 111.606 93.0492C111.236 93.0492 110.936 93.3327 110.936 93.6824C110.936 94.0321 111.236 94.3156 111.606 94.3156Z" fill="#FF9260"/>
<path d="M110.678 86.0976L117.076 105.348" stroke="#FF9260" stroke-width="0.12651" stroke-linecap="round" stroke-linejoin="round"/>
<path d="M119.901 135.24C119.901 135.24 131.465 132.906 133.733 134.204C135.256 135.076 138.264 139.978 138.777 142.187C138.906 142.747 136.821 148.468 139.07 146.577C140.382 145.475 141.67 143.372 141.232 141.638C140.864 140.188 139.747 137.356 139.747 137.356C139.747 137.356 142.607 140.708 142.933 141.924C143.259 143.139 143.563 146.093 144.114 147.368C144.664 148.643 145.669 148.736 145.78 147.842C145.89 146.947 145.698 145.488 145.698 145.488C145.698 145.488 146.337 149.287 147.719 149.044C149.102 148.8 147.806 142.918 147.806 142.918C147.806 142.918 149.336 145.156 150.158 145.667C150.981 146.179 152.719 146.708 151.255 144.6C149.79 142.493 144.062 131.587 143.139 130.013C142.216 128.439 139.381 122.213 134.897 121.627C130.411 121.04 119.402 122.322 119.402 122.322L119.906 135.238L119.901 135.24Z" fill="#8E410F"/>
<path d="M142.379 131.498C142.379 131.498 146.467 138.233 147.013 140.002C147.559 141.769 147.847 143.115 147.847 143.115" stroke="black" stroke-width="0.250676" stroke-linecap="round" stroke-linejoin="round"/>
<path d="M140.715 133.768L144.423 139.925C144.915 140.741 145.227 141.647 145.342 142.581L145.752 145.98" stroke="black" stroke-width="0.250676" stroke-linecap="round" stroke-linejoin="round"/>
<path d="M138.5 135.351L140.135 137.828" stroke="black" stroke-width="0.250676" stroke-linecap="round" stroke-linejoin="round"/>
<path d="M133.364 131.177C133.106 132.893 133.27 133.834 133.27 133.834" stroke="black" stroke-width="0.250676" stroke-linecap="round" stroke-linejoin="round"/>
<path d="M139.388 146.468C139.86 145.914 140.099 145.354 139.921 145.218C139.742 145.083 139.215 145.422 138.742 145.976C138.27 146.53 138.031 147.089 138.21 147.225C138.388 147.361 138.916 147.022 139.388 146.468Z" fill="#FFDDBD"/>
<path d="M145.408 148.569C145.637 148.564 145.808 147.983 145.79 147.272C145.772 146.56 145.571 145.988 145.342 145.993C145.113 145.998 144.943 146.579 144.961 147.291C144.979 148.002 145.179 148.575 145.408 148.569Z" fill="#FFDDBD"/>
<path d="M151.939 146.182C152.14 146.078 152.009 145.487 151.648 144.863C151.286 144.239 150.83 143.817 150.629 143.921C150.428 144.025 150.559 144.615 150.92 145.24C151.282 145.864 151.738 146.286 151.939 146.182Z" fill="#FFDDBD"/>
<path d="M147.889 149.207C148.18 149.201 148.4 148.556 148.38 147.768C148.359 146.979 148.107 146.346 147.816 146.352C147.525 146.359 147.305 147.003 147.326 147.792C147.346 148.58 147.598 149.214 147.889 149.207Z" fill="#FFDDBD"/>
<path d="M127.705 118.573L103.766 120.398C102.67 120.482 101.906 122.016 102.061 123.82L105.003 123.597L108.705 166.95C108.82 168.291 109.572 169.328 110.387 169.266L132.779 167.559C133.595 167.497 134.162 166.359 134.047 165.019L130.399 122.282C130.216 120.134 129.01 118.474 127.705 118.573Z" fill="#FFDDBD"/>
<mask id="mask0_2188_64817" style="mask-type:luminance" maskUnits="userSpaceOnUse" x="102" y="118" width="33" height="52">
<path d="M127.703 118.416L103.764 120.241C102.668 120.325 101.904 121.859 102.059 123.663L105.001 123.44L108.703 166.793C108.818 168.134 109.57 169.17 110.385 169.108L132.777 167.401C133.593 167.339 134.16 166.201 134.045 164.862L130.397 122.125C130.214 119.977 129.008 118.317 127.703 118.416Z" fill="white"/>
</mask>
<g mask="url(#mask0_2188_64817)">
<path d="M110.155 126.696C108.941 126.296 108.444 125.826 108.02 124.679C107.936 124.454 107.601 124.454 107.517 124.679C107.093 125.826 106.596 126.296 105.382 126.696C105.143 126.776 105.143 127.093 105.382 127.172C106.596 127.573 107.093 128.042 107.517 129.189C107.601 129.415 107.936 129.415 108.02 129.189C108.444 128.042 108.941 127.573 110.155 127.172C110.394 127.093 110.394 126.776 110.155 126.696Z" fill="#FFEAD7"/>
<path d="M113.813 124.848V121.29C113.813 118.199 111.245 115.616 107.977 115.512C104.542 115.403 101.722 118 101.722 121.221V124.848C101.722 125.297 101.335 125.662 100.859 125.662V126.477L100.916 126.471C102.026 126.366 103.106 126.052 104.069 125.519C105.592 124.675 106.423 123.537 107.166 121.536C107.365 121 108.171 121 108.368 121.536C109.108 123.537 109.942 124.677 111.465 125.519C112.428 126.052 113.508 126.366 114.618 126.471L114.675 126.477V125.662C114.199 125.662 113.813 125.297 113.813 124.848Z" fill="#FFEAD7"/>
<path d="M123.971 126.696C122.757 126.296 122.261 125.826 121.837 124.679C121.752 124.454 121.417 124.454 121.333 124.679C120.909 125.826 120.412 126.296 119.199 126.696C118.96 126.776 118.96 127.093 119.199 127.172C120.412 127.573 120.909 128.042 121.333 129.189C121.417 129.415 121.752 129.415 121.837 129.189C122.261 128.042 122.757 127.573 123.971 127.172C124.21 127.093 124.21 126.776 123.971 126.696Z" fill="#FFEAD7"/>
<path d="M127.629 124.848V121.29C127.629 118.199 125.061 115.616 121.793 115.512C118.359 115.403 115.538 118 115.538 121.221V124.848C115.538 125.297 115.151 125.662 114.676 125.662V126.477L114.732 126.471C115.842 126.366 116.923 126.052 117.885 125.519C119.408 124.675 120.24 123.537 120.983 121.536C121.182 121 121.988 121 122.184 121.536C122.925 123.537 123.759 124.677 125.282 125.519C126.244 126.052 127.324 126.366 128.435 126.471L128.491 126.477V125.662C128.016 125.662 127.629 125.297 127.629 124.848Z" fill="#FFEAD7"/>
<path d="M137.78 126.696C136.566 126.296 136.069 125.826 135.645 124.679C135.561 124.454 135.226 124.454 135.142 124.679C134.718 125.826 134.221 126.296 133.007 126.696C132.768 126.776 132.768 127.093 133.007 127.172C134.221 127.573 134.718 128.042 135.142 129.189C135.226 129.415 135.561 129.415 135.645 129.189C136.069 128.042 136.566 127.573 137.78 127.172C138.019 127.093 138.019 126.776 137.78 126.696Z" fill="#FFEAD7"/>
<path d="M141.438 124.848V121.29C141.438 118.199 138.87 115.616 135.602 115.512C132.167 115.403 129.347 118 129.347 121.221V124.848C129.347 125.297 128.96 125.662 128.484 125.662V126.477L128.541 126.471C129.651 126.366 130.731 126.052 131.694 125.519C133.217 124.675 134.048 123.537 134.791 121.536C134.99 121 135.796 121 135.993 121.536C136.733 123.537 137.567 124.677 139.09 125.519C140.053 126.052 141.133 126.366 142.243 126.471L142.3 126.477V125.662C141.824 125.662 141.438 125.297 141.438 124.848Z" fill="#FFEAD7"/>
<path d="M133.013 132.933C134.227 133.334 134.723 133.803 135.147 134.95C135.232 135.176 135.567 135.176 135.651 134.95C136.075 133.803 136.572 133.334 137.785 132.933C138.024 132.853 138.024 132.537 137.785 132.457C136.572 132.056 136.075 131.587 135.651 130.44C135.567 130.214 135.232 130.214 135.147 130.44C134.723 131.587 134.227 132.056 133.013 132.457C132.774 132.537 132.774 132.853 133.013 132.933Z" fill="#FFEAD7"/>
<path d="M129.352 134.782V138.339C129.352 141.43 131.92 144.014 135.188 144.118C138.623 144.226 141.443 141.629 141.443 138.408V134.782C141.443 134.332 141.83 133.967 142.306 133.967V133.152L142.249 133.159C141.139 133.263 140.059 133.577 139.096 134.111C137.573 134.954 136.741 136.092 135.999 138.094C135.8 138.629 134.994 138.629 134.797 138.094C134.057 136.092 133.223 134.952 131.7 134.111C130.737 133.577 129.657 133.263 128.546 133.159L128.49 133.152V133.967C128.966 133.967 129.352 134.332 129.352 134.782Z" fill="#FFEAD7"/>
<path d="M119.199 132.933C120.412 133.334 120.909 133.803 121.333 134.95C121.417 135.176 121.752 135.176 121.837 134.95C122.261 133.803 122.757 133.334 123.971 132.933C124.21 132.853 124.21 132.537 123.971 132.457C122.757 132.056 122.261 131.587 121.837 130.44C121.752 130.214 121.417 130.214 121.333 130.44C120.909 131.587 120.412 132.056 119.199 132.457C118.96 132.537 118.96 132.853 119.199 132.933Z" fill="#FFEAD7"/>
<path d="M115.538 134.782V138.339C115.538 141.43 118.106 144.014 121.374 144.118C124.808 144.226 127.629 141.629 127.629 138.408V134.782C127.629 134.332 128.016 133.967 128.491 133.967V133.152L128.435 133.159C127.324 133.263 126.244 133.577 125.282 134.111C123.759 134.954 122.927 136.092 122.184 138.094C121.985 138.629 121.179 138.629 120.983 138.094C120.242 136.092 119.408 134.952 117.885 134.111C116.923 133.577 115.842 133.263 114.732 133.159L114.676 133.152V133.967C115.151 133.967 115.538 134.332 115.538 134.782Z" fill="#FFEAD7"/>
<path d="M105.382 132.933C106.596 133.334 107.093 133.803 107.517 134.95C107.601 135.176 107.936 135.176 108.02 134.95C108.444 133.803 108.941 133.334 110.155 132.933C110.394 132.853 110.394 132.537 110.155 132.457C108.941 132.056 108.444 131.587 108.02 130.44C107.936 130.214 107.601 130.214 107.517 130.44C107.093 131.587 106.596 132.056 105.382 132.457C105.143 132.537 105.143 132.853 105.382 132.933Z" fill="#FFEAD7"/>
<path d="M101.722 134.782V138.339C101.722 141.43 104.289 144.014 107.557 144.118C110.992 144.226 113.813 141.629 113.813 138.408V134.782C113.813 134.332 114.199 133.967 114.675 133.967V133.152L114.618 133.159C113.508 133.263 112.428 133.577 111.465 134.111C109.942 134.954 109.111 136.092 108.368 138.094C108.169 138.629 107.363 138.629 107.166 138.094C106.426 136.092 105.592 134.952 104.069 134.111C103.106 133.577 102.026 133.263 100.916 133.159L100.859 133.152V133.967C101.335 133.967 101.722 134.332 101.722 134.782Z" fill="#FFEAD7"/>
<path d="M110.155 153.412C108.941 153.011 108.444 152.542 108.02 151.395C107.936 151.169 107.601 151.169 107.517 151.395C107.093 152.542 106.596 153.011 105.382 153.412C105.143 153.491 105.143 153.808 105.382 153.888C106.596 154.288 107.093 154.758 107.517 155.905C107.601 156.13 107.936 156.13 108.02 155.905C108.444 154.758 108.941 154.288 110.155 153.888C110.394 153.808 110.394 153.491 110.155 153.412Z" fill="#FFEAD7"/>
<path d="M113.813 151.565V148.007C113.813 144.917 111.245 142.333 107.977 142.229C104.542 142.121 101.722 144.718 101.722 147.939V151.565C101.722 152.015 101.335 152.38 100.859 152.38V153.195L100.916 153.188C102.026 153.084 103.106 152.77 104.069 152.236C105.592 151.393 106.423 150.255 107.166 148.253C107.365 147.717 108.171 147.717 108.368 148.253C109.108 150.255 109.942 151.395 111.465 152.236C112.428 152.77 113.508 153.084 114.618 153.188L114.675 153.195V152.38C114.199 152.38 113.813 152.015 113.813 151.565Z" fill="#FFEAD7"/>
<path d="M123.971 153.412C122.757 153.011 122.261 152.542 121.837 151.395C121.752 151.169 121.417 151.169 121.333 151.395C120.909 152.542 120.412 153.011 119.199 153.412C118.96 153.491 118.96 153.808 119.199 153.888C120.412 154.288 120.909 154.758 121.333 155.905C121.417 156.13 121.752 156.13 121.837 155.905C122.261 154.758 122.757 154.288 123.971 153.888C124.21 153.808 124.21 153.491 123.971 153.412Z" fill="#FFEAD7"/>
<path d="M127.629 151.565V148.008C127.629 144.917 125.061 142.333 121.793 142.229C118.359 142.121 115.538 144.718 115.538 147.939V151.565C115.538 152.015 115.151 152.38 114.676 152.38V153.195L114.732 153.188C115.842 153.084 116.923 152.77 117.885 152.236C119.408 151.393 120.24 150.255 120.983 148.253C121.182 147.717 121.988 147.717 122.184 148.253C122.925 150.255 123.759 151.395 125.282 152.236C126.244 152.77 127.324 153.084 128.435 153.188L128.491 153.195V152.38C128.016 152.38 127.629 152.015 127.629 151.565Z" fill="#FFEAD7"/>
<path d="M137.78 153.412C136.566 153.011 136.069 152.542 135.645 151.395C135.561 151.169 135.226 151.169 135.142 151.395C134.718 152.542 134.221 153.011 133.007 153.412C132.768 153.491 132.768 153.808 133.007 153.888C134.221 154.288 134.718 154.758 135.142 155.905C135.226 156.13 135.561 156.13 135.645 155.905C136.069 154.758 136.566 154.288 137.78 153.888C138.019 153.808 138.019 153.491 137.78 153.412Z" fill="#FFEAD7"/>
<path d="M141.438 151.565V148.008C141.438 144.917 138.87 142.333 135.602 142.229C132.167 142.121 129.347 144.718 129.347 147.939V151.565C129.347 152.015 128.96 152.38 128.484 152.38V153.195L128.541 153.188C129.651 153.084 130.731 152.77 131.694 152.236C133.217 151.393 134.048 150.255 134.791 148.253C134.99 147.717 135.796 147.717 135.993 148.253C136.733 150.255 137.567 151.395 139.09 152.236C140.053 152.77 141.133 153.084 142.243 153.188L142.3 153.195V152.38C141.824 152.38 141.438 152.015 141.438 151.565Z" fill="#FFEAD7"/>
<path d="M133.013 159.651C134.227 160.051 134.723 160.521 135.147 161.667C135.232 161.893 135.567 161.893 135.651 161.667C136.075 160.521 136.572 160.051 137.785 159.651C138.024 159.571 138.024 159.254 137.785 159.175C136.572 158.774 136.075 158.304 135.651 157.158C135.567 156.932 135.232 156.932 135.147 157.158C134.723 158.304 134.227 158.774 133.013 159.175C132.774 159.254 132.774 159.571 133.013 159.651Z" fill="#FFEAD7"/>
<path d="M129.352 161.497V165.055C129.352 168.145 131.92 170.729 135.188 170.833C138.623 170.942 141.443 168.345 141.443 165.123V161.497C141.443 161.048 141.83 160.682 142.306 160.682V159.867L142.249 159.874C141.139 159.978 140.059 160.293 139.096 160.826C137.573 161.67 136.741 162.808 135.999 164.809C135.8 165.345 134.994 165.345 134.797 164.809C134.057 162.808 133.223 161.667 131.7 160.826C130.737 160.293 129.657 159.978 128.546 159.874L128.49 159.867V160.682C128.966 160.682 129.352 161.048 129.352 161.497Z" fill="#FFEAD7"/>
<path d="M119.199 159.651C120.412 160.051 120.909 160.521 121.333 161.667C121.417 161.893 121.752 161.893 121.837 161.667C122.261 160.521 122.757 160.051 123.971 159.651C124.21 159.571 124.21 159.254 123.971 159.175C122.757 158.774 122.261 158.304 121.837 157.158C121.752 156.932 121.417 156.932 121.333 157.158C120.909 158.304 120.412 158.774 119.199 159.175C118.96 159.254 118.96 159.571 119.199 159.651Z" fill="#FFEAD7"/>
<path d="M115.538 161.497V165.055C115.538 168.145 118.106 170.729 121.374 170.833C124.808 170.942 127.629 168.345 127.629 165.123V161.497C127.629 161.048 128.016 160.682 128.491 160.682V159.867L128.435 159.874C127.324 159.978 126.244 160.293 125.282 160.826C123.759 161.67 122.927 162.808 122.184 164.809C121.985 165.345 121.179 165.345 120.983 164.809C120.242 162.808 119.408 161.667 117.885 160.826C116.923 160.293 115.842 159.978 114.732 159.874L114.676 159.867V160.682C115.151 160.682 115.538 161.048 115.538 161.497Z" fill="#FFEAD7"/>
<path d="M105.382 159.651C106.596 160.051 107.093 160.521 107.517 161.667C107.601 161.893 107.936 161.893 108.02 161.667C108.444 160.521 108.941 160.051 110.155 159.651C110.394 159.571 110.394 159.254 110.155 159.175C108.941 158.774 108.444 158.304 108.02 157.158C107.936 156.932 107.601 156.932 107.517 157.158C107.093 158.304 106.596 158.774 105.382 159.175C105.143 159.254 105.143 159.571 105.382 159.651Z" fill="#FFEAD7"/>
<path d="M101.722 161.497V165.055C101.722 168.145 104.289 170.729 107.557 170.833C110.992 170.941 113.813 168.345 113.813 165.123V161.497C113.813 161.047 114.199 160.682 114.675 160.682V159.867L114.618 159.874C113.508 159.978 112.428 160.293 111.465 160.826C109.942 161.67 109.111 162.808 108.368 164.809C108.169 165.345 107.363 165.345 107.166 164.809C106.426 162.808 105.592 161.667 104.069 160.826C103.106 160.293 102.026 159.978 100.916 159.874L100.859 159.867V160.682C101.335 160.682 101.722 161.047 101.722 161.497Z" fill="#FFEAD7"/>
</g>
<path d="M79.2222 51.6534C77.2777 51.4231 76.3781 50.8741 75.3567 49.2933C75.1552 48.9834 74.6562 49.083 74.607 49.4461C74.3633 51.2836 73.7823 52.1338 72.1096 53.099C71.7816 53.2894 71.887 53.761 72.2712 53.8075C74.2157 54.0377 75.1154 54.5868 76.1368 56.1675C76.3383 56.4775 76.8373 56.3779 76.8865 56.0148C77.1301 54.1772 77.7111 53.3271 79.3839 52.3618C79.7119 52.1714 79.6064 51.6998 79.2222 51.6534Z" fill="#FFDDBD"/>
<path d="M199.819 150.299C199.819 150.299 193.941 121.332 193.573 117.81C193.205 114.29 193.885 109.598 197.413 109.186C200.939 108.775 202.527 112.394 203.471 118.655C204.416 124.916 208.497 149.139 208.497 149.139" fill="#A7B964"/>
<path d="M198.133 113.134L203.285 150.195" stroke="#365650" stroke-width="0.306903" stroke-miterlimit="10" stroke-linecap="round"/>
<path d="M203.418 156.336L196.001 127.066L187.234 129.273L195.872 157.673" fill="#808F3C"/>
<path d="M199.207 157.279C199.218 157.133 191.846 128.113 191.846 128.113" stroke="#365650" stroke-width="0.306903" stroke-miterlimit="10" stroke-linecap="round"/>
<path d="M203.31 156.361C203.322 156.214 195.949 127.194 195.949 127.194" stroke="#496836" stroke-width="0.248334" stroke-linejoin="round"/>
<path d="M187.232 129.273C187.232 129.273 184.219 133.852 183.462 135.12C182.708 136.389 181.876 139.752 184.446 140.006C187.016 140.261 189.823 138.158 192.391 133.438C193.96 130.551 195.999 127.066 195.999 127.066" fill="#A7B964"/>
<path d="M191.52 128.193L185.836 136.889" stroke="#365650" stroke-width="0.306903" stroke-miterlimit="10" stroke-linecap="round"/>
<path d="M190.461 115.195C193.79 127.766 196.587 140.64 198.839 153.717" stroke="#365650" stroke-width="0.306903" stroke-miterlimit="10" stroke-linecap="round"/>
<path d="M192.925 110.907C192.899 110.287 192.658 109.744 191.917 109.84C191.51 109.893 191.254 110.249 191.074 110.566C190.765 111.11 190.563 111.706 190.477 112.319C190.425 111.783 190.371 111.248 190.287 110.716C190.207 110.223 190.092 109.718 189.793 109.308C189.134 108.405 187.944 109.213 187.825 109.835C187.677 110.599 188.228 111.874 188.556 112.587C188.31 112.317 188.064 112.045 187.82 111.775C187.454 111.372 187.016 110.935 186.456 110.933C186.147 110.933 185.824 111.102 185.732 111.38C185.695 111.5 185.688 111.934 185.702 112.06C185.889 113.641 187.483 114.515 188.865 115.102C189.331 115.301 189.844 115.571 190.357 115.629C190.87 115.687 191.116 115.204 191.329 114.845C191.824 114.008 192.391 113.189 192.714 112.273C192.824 111.961 192.944 111.407 192.922 110.907H192.925Z" fill="#FF926C"/>
<path d="M190.686 114.174C190.517 114.181 190.353 114.212 190.192 114.256C189.789 114.367 189.414 114.571 189.128 114.861C189.079 114.909 189.023 114.996 188.978 115.067C188.941 115.129 188.966 115.208 189.034 115.239C189.313 115.365 190.002 115.664 190.403 115.709C190.916 115.766 191.162 115.284 191.375 114.925C191.452 114.792 191.534 114.659 191.614 114.526C191.651 114.464 191.626 114.385 191.555 114.352C191.288 114.223 190.986 114.157 190.686 114.17V114.174Z" fill="#496836"/>
<path d="M214.503 125.879C212.482 138.696 209.851 151.601 206.627 164.497" stroke="#365650" stroke-width="0.306903" stroke-miterlimit="10" stroke-linecap="round"/>
<path d="M218.517 122.806C218.745 122.224 218.742 121.637 218.021 121.456C217.623 121.356 217.241 121.593 216.948 121.821C216.442 122.213 216.013 122.689 215.685 123.225C215.854 122.711 216.022 122.198 216.158 121.677C216.285 121.192 216.383 120.686 216.273 120.196C216.032 119.122 214.605 119.439 214.242 119.97C213.797 120.624 213.787 122.001 213.801 122.778C213.684 122.439 213.567 122.098 213.45 121.759C213.277 121.254 213.049 120.694 212.532 120.488C212.246 120.376 211.878 120.415 211.684 120.639C211.599 120.734 211.419 121.135 211.381 121.254C210.913 122.782 212.03 124.166 213.068 125.209C213.42 125.561 213.783 125.997 214.233 126.236C214.682 126.475 215.106 126.118 215.448 125.864C216.245 125.268 217.1 124.717 217.77 123.989C217.997 123.741 218.332 123.274 218.517 122.802V122.806Z" fill="#FFD490"/>
<path d="M215.123 125.016C214.966 124.963 214.8 124.93 214.634 124.912C214.217 124.87 213.786 124.921 213.406 125.085C213.341 125.113 213.254 125.171 213.186 125.222C213.125 125.266 213.118 125.348 213.167 125.403C213.373 125.623 213.889 126.145 214.24 126.333C214.69 126.572 215.114 126.216 215.456 125.961C215.583 125.866 215.709 125.773 215.838 125.68C215.899 125.636 215.906 125.554 215.857 125.499C215.662 125.284 215.409 125.113 215.126 125.016H215.123Z" fill="#496836"/>
<path d="M199.137 152.493C199.137 152.493 202.281 124.033 202.984 120.666C203.686 117.298 205.713 113.123 209.11 113.676C212.507 114.23 212.905 118.011 211.926 124.075C210.944 130.139 207.54 153.717 207.54 153.717" fill="#65732D"/>
<path d="M208.609 117.533L202.389 153.316" stroke="#365650" stroke-width="0.306903" stroke-miterlimit="10" stroke-linecap="round"/>
<path d="M202.127 156.525L212.784 131.237L220.326 134.288L208.534 158.26" fill="#808F3C"/>
<path d="M205.766 157.884C205.775 157.751 216.357 132.683 216.357 132.683" stroke="#365650" stroke-width="0.306903" stroke-miterlimit="10" stroke-linecap="round"/>
<path d="M220.327 134.288C220.327 134.288 222.396 138.753 222.897 139.982C223.398 141.211 223.682 144.324 221.346 144.233C219.01 144.144 216.789 141.919 215.138 137.379C214.128 134.602 212.783 131.235 212.783 131.235" fill="#A7B964"/>
<path d="M216.637 132.796L220.528 141.275" stroke="#365650" stroke-width="0.306903" stroke-miterlimit="10" stroke-linecap="round"/>
<path d="M203.737 134.866C202.957 147.802 201.58 156.299 199.609 169.418" stroke="#496836" stroke-width="0.248334" stroke-linejoin="round"/>
<path d="M207.44 131.463C207.611 130.863 207.552 130.278 206.814 130.161C206.409 130.097 206.051 130.365 205.779 130.617C205.313 131.049 204.931 131.562 204.657 132.123C204.776 131.598 204.893 131.071 204.98 130.54C205.06 130.046 205.109 129.532 204.952 129.056C204.607 128.009 203.218 128.447 202.907 129.008C202.525 129.696 202.649 131.069 202.738 131.841C202.588 131.514 202.44 131.186 202.29 130.858C202.07 130.371 201.789 129.831 201.253 129.672C200.957 129.585 200.597 129.654 200.421 129.895C200.346 129.999 200.205 130.413 200.18 130.535C199.861 132.096 201.105 133.38 202.241 134.328C202.625 134.649 203.031 135.052 203.499 135.251C203.97 135.45 204.359 135.06 204.673 134.777C205.409 134.115 206.208 133.493 206.805 132.709C207.009 132.441 207.297 131.948 207.435 131.465L207.44 131.463Z" fill="#FFD490"/>
<path d="M204.272 133.953C204.111 133.914 203.942 133.896 203.773 133.894C203.354 133.887 202.93 133.976 202.567 134.173C202.503 134.206 202.424 134.272 202.361 134.328C202.304 134.376 202.304 134.46 202.361 134.509C202.588 134.708 203.15 135.187 203.518 135.342C203.989 135.541 204.378 135.151 204.692 134.868C204.809 134.764 204.926 134.66 205.045 134.556C205.102 134.507 205.102 134.423 205.045 134.372C204.83 134.175 204.563 134.027 204.272 133.953Z" fill="#496836"/>
<path d="M213.141 152.112H191.639V173.895H213.141V152.112Z" fill="#FF9260"/>
<mask id="mask1_2188_64817" style="mask-type:luminance" maskUnits="userSpaceOnUse" x="191" y="152" width="23" height="23">
<path d="M213.561 152.384H191.033V174.189H213.561V152.384Z" fill="white"/>
</mask>
<g mask="url(#mask1_2188_64817)">
<path d="M190.947 152.712H201.401" stroke="black" stroke-width="0.213192" stroke-miterlimit="10" stroke-linecap="round"/>
<path d="M190.947 154.583H201.401" stroke="black" stroke-width="0.213192" stroke-miterlimit="10" stroke-linecap="round"/>
<path d="M190.947 156.456H201.401" stroke="black" stroke-width="0.213192" stroke-miterlimit="10" stroke-linecap="round"/>
<path d="M191.303 165.683V157.676" stroke="black" stroke-width="0.213192" stroke-miterlimit="10" stroke-linecap="round"/>
<path d="M194.291 165.683V157.676" stroke="black" stroke-width="0.213192" stroke-miterlimit="10" stroke-linecap="round"/>
<path d="M197.277 165.683V157.676" stroke="black" stroke-width="0.213192" stroke-miterlimit="10" stroke-linecap="round"/>
<path d="M200.262 165.683V157.676" stroke="black" stroke-width="0.213192" stroke-miterlimit="10" stroke-linecap="round"/>
<path d="M190.988 167.696H201.442" stroke="black" stroke-width="0.213192" stroke-miterlimit="10" stroke-linecap="round"/>
<path d="M190.988 169.569H201.442" stroke="black" stroke-width="0.213192" stroke-miterlimit="10" stroke-linecap="round"/>
<path d="M190.988 171.442H201.442" stroke="black" stroke-width="0.213192" stroke-miterlimit="10" stroke-linecap="round"/>
<path d="M191.346 180.669V172.662" stroke="black" stroke-width="0.213192" stroke-miterlimit="10" stroke-linecap="round"/>
<path d="M194.334 180.669V172.662" stroke="black" stroke-width="0.213192" stroke-miterlimit="10" stroke-linecap="round"/>
<path d="M197.318 180.669V172.662" stroke="black" stroke-width="0.213192" stroke-miterlimit="10" stroke-linecap="round"/>
<path d="M200.305 180.669V172.662" stroke="black" stroke-width="0.213192" stroke-miterlimit="10" stroke-linecap="round"/>
<path d="M203.338 159.613H213.789" stroke="black" stroke-width="0.213192" stroke-miterlimit="10" stroke-linecap="round"/>
<path d="M203.338 161.486H213.789" stroke="black" stroke-width="0.213192" stroke-miterlimit="10" stroke-linecap="round"/>
<path d="M203.338 163.359H213.789" stroke="black" stroke-width="0.213192" stroke-miterlimit="10" stroke-linecap="round"/>
<path d="M203.689 172.586V164.579" stroke="black" stroke-width="0.213192" stroke-miterlimit="10" stroke-linecap="round"/>
<path d="M206.68 172.586V164.579" stroke="black" stroke-width="0.213192" stroke-miterlimit="10" stroke-linecap="round"/>
<path d="M209.662 172.586V164.579" stroke="black" stroke-width="0.213192" stroke-miterlimit="10" stroke-linecap="round"/>
<path d="M212.648 172.586V164.579" stroke="black" stroke-width="0.213192" stroke-miterlimit="10" stroke-linecap="round"/>
<path d="M203.383 173.784H213.834" stroke="black" stroke-width="0.213192" stroke-miterlimit="10" stroke-linecap="round"/>
<path d="M204.088 157.676V150.914" stroke="black" stroke-width="0.19445" stroke-miterlimit="10" stroke-linecap="round"/>
<path d="M207.074 157.676V150.914" stroke="black" stroke-width="0.19445" stroke-miterlimit="10" stroke-linecap="round"/>
<path d="M210.059 157.676V150.914" stroke="black" stroke-width="0.19445" stroke-miterlimit="10" stroke-linecap="round"/>
<path d="M213.047 157.676V150.914" stroke="black" stroke-width="0.19445" stroke-miterlimit="10" stroke-linecap="round"/>
</g>
<path d="M-0.84375 174.034H218.074" stroke="black" stroke-width="0.438098" stroke-miterlimit="10" stroke-linecap="round"/>
</g>
<defs>
<clipPath id="clip0_2188_64817">
<rect width="224" height="177" fill="white"/>
</clipPath>
</defs>
</svg>
