<svg width="242" height="177" viewBox="0 0 242 177" fill="none" xmlns="http://www.w3.org/2000/svg">
<path d="M219.875 132.843C218.356 131.562 217.913 130.573 217.964 128.588C217.975 128.199 217.49 128.013 217.239 128.313C215.959 129.832 214.97 130.275 212.984 130.224C212.595 130.213 212.409 130.698 212.709 130.949C214.229 132.229 214.672 133.219 214.62 135.204C214.609 135.593 215.095 135.779 215.346 135.479C216.626 133.959 217.615 133.516 219.6 133.568C219.99 133.579 220.175 133.093 219.875 132.843Z" fill="#FF9260"/>
<path d="M54.8045 129.756C52.8193 129.799 51.8323 129.349 50.5611 127.82C50.3105 127.52 49.8248 127.702 49.8338 128.091C49.8763 130.076 49.4264 131.063 47.8978 132.334C47.5979 132.585 47.7792 133.071 48.1686 133.062C50.1538 133.019 51.1408 133.469 52.412 134.998C52.6627 135.298 53.1483 135.116 53.1394 134.727C53.0968 132.742 53.5467 131.755 55.0753 130.484C55.3752 130.233 55.1939 129.747 54.8045 129.756Z" fill="#FF9260"/>
<path d="M39.6675 35.908C47.5621 35.908 53.9619 29.5082 53.9619 21.6136C53.9619 13.719 47.5621 7.31912 39.6675 7.31912C31.7729 7.31912 25.373 13.719 25.373 21.6136C25.373 29.5082 31.7729 35.908 39.6675 35.908Z" fill="#FFDDBD"/>
<path d="M53.9609 36.9957L106.439 70.242" stroke="#FFDDBD" stroke-width="0.671416" stroke-miterlimit="10"/>
<path d="M63.9863 25.8927L147.202 44.8311" stroke="#FFDDBD" stroke-width="0.671416" stroke-miterlimit="10"/>
<path d="M36.875 40.825L46.1293 84.4939" stroke="#FFDDBD" stroke-width="0.671416" stroke-miterlimit="10"/>
<path d="M179.329 73.9313C180.03 72.5102 176.129 69.1541 170.616 66.4355C165.103 63.7168 160.066 62.665 159.365 64.0861C158.664 65.5073 162.565 68.8634 168.078 71.582C173.591 74.3007 178.628 75.3525 179.329 73.9313Z" fill="#37353F"/>
<path d="M187.956 89.4212C190.663 83.8504 182.282 74.1946 169.237 67.8542C156.191 61.5139 143.42 60.89 140.713 66.4608C138.005 72.0315 146.386 81.6874 159.432 88.0277C172.478 94.368 185.248 94.9919 187.956 89.4212Z" fill="#FF5B00"/>
<path d="M187.315 89.8878C190.023 84.317 181.642 74.6612 168.596 68.3208C155.55 61.9805 142.78 61.3566 140.072 66.9273C137.365 72.4981 145.746 82.1539 158.791 88.4943C171.837 94.8346 184.608 95.4585 187.315 89.8878Z" fill="#FF9260"/>
<path d="M165.063 99.1464C168.355 99.1464 171.023 96.4781 171.023 93.1865C171.023 89.8949 168.355 87.2265 165.063 87.2265C161.772 87.2265 159.104 89.8949 159.104 93.1865C159.104 96.4781 161.772 99.1464 165.063 99.1464Z" fill="black"/>
<path d="M172.714 105.554C176.005 105.554 178.674 102.886 178.674 99.594C178.674 96.3024 176.005 93.6341 172.714 93.6341C169.422 93.6341 166.754 96.3024 166.754 99.594C166.754 102.886 169.422 105.554 172.714 105.554Z" fill="black"/>
<path d="M183.112 106.78C186.404 106.78 189.072 104.112 189.072 100.82C189.072 97.5289 186.404 94.8605 183.112 94.8605C179.821 94.8605 177.152 97.5289 177.152 100.82C177.152 104.112 179.821 106.78 183.112 106.78Z" fill="black"/>
<path d="M191.501 103.287C193.876 103.287 195.802 101.361 195.802 98.9853C195.802 96.6096 193.876 94.6837 191.501 94.6837C189.125 94.6837 187.199 96.6096 187.199 98.9853C187.199 101.361 189.125 103.287 191.501 103.287Z" fill="black"/>
<path d="M152.802 88.3769C153.256 86.766 152.649 85.1855 151.446 84.8467C150.243 84.5079 148.9 85.5392 148.447 87.1501C147.993 88.761 148.6 90.3416 149.803 90.6804C151.006 91.0191 152.349 89.9879 152.802 88.3769Z" fill="#FF84EE"/>
<path d="M171.798 83.1941C173.418 77.4428 170.24 71.5157 164.701 69.9555C159.161 68.3952 153.358 71.7928 151.738 77.544C150.118 83.2953 153.295 89.2224 158.835 90.7826C164.374 92.3428 170.178 88.9453 171.798 83.1941Z" fill="black"/>
<path d="M162.146 100.82L152.59 99.7238C152.59 99.7238 152.975 95.5275 153.275 92.3763C153.275 92.3562 153.279 92.3383 153.279 92.3181C153.454 90.4896 153.595 89.0237 153.61 88.9633L157.126 88.6321L157.335 88.6119L163.297 88.0524L162.144 100.82H162.146Z" fill="#802E00"/>
<path d="M162.44 88.9924C162.44 88.9924 159.629 91.3065 157.617 91.9802C156.323 92.4121 154.007 92.4032 153.279 92.3204C153.454 90.4919 153.595 89.0259 153.611 88.9655L157.127 88.6343L157.335 88.6141L162.437 88.9946L162.44 88.9924Z" fill="#602300"/>
<path d="M166.211 86.8617C166.211 86.8617 161.241 92.3808 154.551 90.5545C147.864 88.7283 148.106 84.3395 150.849 80.4072C151.172 79.9439 151.436 79.5366 151.655 79.1718C152.02 78.5608 152.257 78.0707 152.418 77.6589C152.982 76.2198 152.647 75.6961 153.746 74.0981C157.21 69.1655 162.174 70.8888 162.174 70.8888C176.509 75.7274 166.211 86.8617 166.211 86.8617Z" fill="#802E00"/>
<path d="M161.326 81.4143C161.326 81.4143 160.901 82.0566 159.699 82.0947C159.538 82.1014 159.366 82.0947 159.176 82.0768C159.023 82.0611 158.865 82.0387 158.692 82.0029C157.15 81.6918 156.568 80.8772 156.568 80.8772C156.568 80.8772 157.546 79.5858 159.086 79.7828C159.149 79.7895 159.214 79.8007 159.279 79.8141C159.874 79.935 160.306 80.1811 160.617 80.4452C161.159 80.904 161.326 81.4165 161.326 81.4165V81.4143Z" fill="#FF5B00"/>
<path d="M169.527 85.2167C169.879 86.8326 167.99 88.9521 165.92 89.4019C163.849 89.8518 161.86 89.0729 161.511 87.457C161.159 85.8412 163.077 83.5539 165.147 83.1063C167.218 82.6564 169.178 83.6031 169.53 85.219L169.527 85.2167Z" fill="#802E00"/>
<path d="M161.222 81.8216C161.222 81.8216 160.813 82.3856 159.6 82.3789C159.439 82.3789 159.262 82.37 159.069 82.3431C158.915 82.3252 158.754 82.2984 158.579 82.2603C157.01 81.9291 156.393 81.1748 156.393 81.1748C156.393 81.1748 157.339 80.0446 158.899 80.2752C158.964 80.2841 159.029 80.2953 159.096 80.3087C159.703 80.4385 160.148 80.6735 160.47 80.922C161.034 81.3539 161.22 81.8194 161.22 81.8194L161.222 81.8216Z" fill="white"/>
<path d="M160.485 81.5799C160.364 82.0096 160.011 82.3073 159.599 82.3789C159.438 82.408 159.268 82.4013 159.102 82.3543C159.091 82.352 159.08 82.3476 159.069 82.3431C158.493 82.164 158.162 81.5575 158.328 80.9712C158.417 80.6556 158.632 80.4117 158.901 80.2751C158.966 80.2841 159.031 80.2953 159.098 80.3087C159.704 80.4385 160.15 80.6735 160.472 80.9219C160.539 81.1278 160.55 81.3561 160.488 81.5777L160.485 81.5799Z" fill="black"/>
<path d="M156.51 81.1458C156.51 81.1458 158.638 78.6548 161.288 81.7344" stroke="black" stroke-width="0.315565" stroke-linecap="round" stroke-linejoin="round"/>
<path d="M154.758 79.888C154.758 79.888 154.35 79.9909 153.278 79.597C153.135 79.5456 152.983 79.4807 152.82 79.4001C152.692 79.3352 152.555 79.2591 152.412 79.1718C152.197 79.0398 152.007 78.9032 151.844 78.769C152.209 78.158 152.446 77.6678 152.607 77.256C152.837 77.3008 153.081 77.3836 153.328 77.5157C153.381 77.5425 153.435 77.5738 153.489 77.6074C153.986 77.9163 154.306 78.2632 154.512 78.5877C154.874 79.1494 154.755 79.888 154.755 79.888H154.758Z" fill="#FF5B00"/>
<path d="M154.704 80.0245C154.704 80.0245 154.163 80.3938 153.091 80.0021C152.948 79.9506 152.795 79.8857 152.632 79.8052C152.504 79.7403 152.368 79.6642 152.225 79.5769C152.01 79.4448 151.82 79.3083 151.656 79.174C152.021 78.563 152.258 78.0729 152.419 77.6611C152.65 77.7059 152.894 77.7887 153.14 77.9207C153.194 77.9476 153.247 77.9789 153.301 78.0125C153.798 78.3213 154.118 78.6682 154.324 78.9927C154.687 79.5545 154.704 80.0245 154.704 80.0245Z" fill="white"/>
<path d="M154.339 79.8947C154.044 80.1923 153.616 80.2752 153.245 80.1453C153.099 80.0961 152.963 80.0133 152.847 79.8992C152.84 79.8924 152.831 79.8835 152.824 79.8745C152.433 79.4627 152.439 78.8137 152.842 78.4064C153.059 78.187 153.348 78.0841 153.632 78.0975C153.681 78.1333 153.731 78.1736 153.778 78.2161C154.216 78.6011 154.476 78.9972 154.626 79.3486C154.588 79.55 154.492 79.7403 154.339 79.8947Z" fill="black"/>
<path d="M152.469 77.6365C153.261 77.7685 154.165 78.3325 154.792 79.9685" stroke="black" stroke-width="0.295423" stroke-linecap="round" stroke-linejoin="round"/>
<path d="M165.433 92.312C165.887 90.7011 165.28 89.1205 164.077 88.7817C162.874 88.4429 161.531 89.4742 161.077 91.0851C160.624 92.6961 161.231 94.2766 162.434 94.6154C163.637 94.9542 164.98 93.9229 165.433 92.312Z" fill="#FF84EE"/>
<path d="M166.242 89.9838C166.647 89.9838 166.976 89.6552 166.976 89.2497C166.976 88.8443 166.647 88.5157 166.242 88.5157C165.836 88.5157 165.508 88.8443 165.508 89.2497C165.508 89.6552 165.836 89.9838 166.242 89.9838Z" stroke="#FF84EE" stroke-width="0.163378" stroke-miterlimit="10"/>
<path d="M159.923 70.2599C159.121 70.1793 157.85 70.3404 157.284 70.9962C157.085 71.7012 156.776 72.1779 157.514 72.6523C158.347 73.1872 159.267 73.6237 160.133 74.1026C160.493 74.3018 160.878 74.5278 161.048 74.9038C161.236 75.3223 161.106 75.8125 160.925 76.2332C160.744 76.654 160.507 77.068 160.484 77.5268C160.457 78.0774 160.753 78.6078 161.158 78.9816C161.563 79.3553 162.073 79.597 162.579 79.8186C163.112 80.0491 163.696 80.302 163.956 80.8212C164.164 81.2375 164.112 81.7456 163.926 82.173C163.573 82.9854 162.841 84.0575 161.8 83.7419C162.098 83.8314 162.369 84.0082 162.678 84.0619C163.002 84.1201 163.333 84.1179 163.658 84.0687C164.323 83.9657 164.824 83.5875 165.439 83.3816C166.679 82.9653 168.159 83.3346 169.052 84.2902C169.116 84.3596 169.179 84.4312 169.266 84.4693C169.425 84.5409 169.622 84.467 169.741 84.3395C169.859 84.2119 169.924 84.0418 169.983 83.8784C170.072 83.63 170.164 83.3659 170.099 83.1085C170.077 83.0212 170.039 82.9407 170.023 82.8512C169.958 82.5043 170.224 82.1976 170.316 81.8843C170.408 81.5755 170.535 81.2823 170.656 80.9757C170.911 80.3244 171.097 79.6216 171.003 78.9167C170.954 78.5563 170.835 78.2094 170.699 77.8715C170.027 76.2086 168.931 74.7203 167.541 73.5879C166.681 72.8873 165.717 72.3234 164.716 71.8422C163.494 71.2536 162.212 70.7881 160.898 70.4501C160.578 70.3673 160.254 70.2934 159.923 70.2599Z" fill="black"/>
<path d="M155.743 85.5726C155.788 85.5927 155.175 86.8528 154.038 86.7319C152.364 86.5529 152.145 84.8475 152.145 84.8475C152.145 84.8475 153.51 84.552 155.743 85.5726Z" fill="#FF5B00"/>
<path d="M152.147 84.8475C152.104 84.8229 152.691 84.1224 153.834 84.3328C154.976 84.5454 155.882 85.604 155.882 85.604C155.882 85.604 154.291 86.0471 152.147 84.8475Z" fill="#401700"/>
<path d="M151.89 84.7401C152.584 85.1877 153.365 85.5816 154.196 85.6801C154.858 85.7584 155.594 85.7673 156.232 85.5502C156.293 85.5301 156.268 85.4451 156.205 85.4563C155.899 85.5077 155.581 85.51 155.272 85.5144C154.919 85.5189 154.565 85.5144 154.214 85.4786C153.394 85.3936 152.672 84.9751 151.917 84.6774C151.879 84.6617 151.859 84.7199 151.89 84.7423V84.7401Z" fill="black"/>
<path d="M163.721 86.0561C164.291 85.5794 165.028 85.2996 165.769 85.2727C166.18 85.2571 166.592 85.3085 166.993 85.4093C167.393 85.51 167.792 85.6913 168.206 85.7696C168.268 85.7808 168.34 85.6957 168.277 85.6465C167.922 85.3712 167.456 85.228 167.02 85.125C166.583 85.0221 166.145 84.9661 165.704 84.9975C164.918 85.0534 164.133 85.3533 163.658 86.0046C163.629 86.0449 163.689 86.0829 163.723 86.0538L163.721 86.0561Z" fill="black"/>
<path d="M165.812 85.1743C165.783 85.3645 165.873 85.5704 165.902 85.7584C165.933 85.9732 165.937 86.1948 165.895 86.4074C165.821 86.7722 165.586 87.052 165.291 87.2668C165.208 87.3273 165.253 87.4929 165.367 87.4481C165.758 87.3004 166.036 86.9356 166.13 86.535C166.186 86.3 166.177 86.0561 166.13 85.8211C166.107 85.7024 166.074 85.5861 166.036 85.4697C165.998 85.3533 165.964 85.2414 165.879 85.1586C165.859 85.1407 165.819 85.1452 165.814 85.1765L165.812 85.1743Z" fill="black"/>
<path d="M157.029 79.4381C157.685 79.2031 158.379 79.089 159.073 79.2233C159.997 79.4046 160.769 79.9372 161.577 80.3871C161.77 80.4945 161.996 80.2282 161.821 80.0715C161.08 79.4225 160.125 78.8988 159.14 78.7622C158.361 78.6548 157.627 78.8562 156.942 79.2233C156.828 79.2837 156.906 79.4829 157.032 79.4359L157.029 79.4381Z" fill="black"/>
<path d="M154.821 77.594C154.684 77.444 154.556 77.2829 154.398 77.1553C154.239 77.0277 154.073 76.9113 153.898 76.8039C153.585 76.6092 153.249 76.457 152.891 76.3697C152.773 76.3406 152.647 76.4078 152.616 76.5264C152.58 76.6562 152.661 76.7569 152.773 76.8017C152.894 76.8509 153.07 76.927 153.218 76.983C153.375 77.0434 153.527 77.1016 153.684 77.1732C153.851 77.2493 154.013 77.3321 154.171 77.4239C154.344 77.5246 154.525 77.6119 154.68 77.7372C154.778 77.8178 154.91 77.6924 154.823 77.594H154.821Z" fill="black"/>
<path d="M155.215 78.196C155.515 78.648 155.741 79.1583 155.611 79.7111C155.502 80.1699 155.119 80.4721 154.761 80.7473C154.43 81.0025 154.076 81.2487 153.83 81.5956C153.584 81.9425 153.467 82.4393 153.727 82.7996C154.067 83.2741 154.745 83.4285 155.273 83.2114C155.367 83.1734 155.334 83.0436 155.231 83.0592C154.752 83.1398 154.121 83.0794 153.866 82.5937C153.666 82.2133 153.957 81.75 154.219 81.4859C154.801 80.8995 155.739 80.5101 155.835 79.5903C155.891 79.0733 155.692 78.4623 155.255 78.1512C155.229 78.1333 155.195 78.1691 155.211 78.196H155.215Z" fill="black"/>
<g style="mix-blend-mode:multiply" opacity="0.7">
<path d="M31.53 160.277C28.6944 160.512 25.861 160.747 23.0254 160.982C40.1152 167.221 57.563 172.487 75.2526 176.742C78.3657 175.585 81.9354 174.705 85.1314 173.801C103.573 168.582 122.677 166.91 141.799 165.587C151.438 164.921 159.524 164.665 169.137 163.681C180.819 162.483 192.383 161.767 203.878 159.37C205.545 159.023 207.284 158.618 208.567 157.499C190.68 154.489 172.749 151.477 154.643 150.409C133.095 149.14 111.95 156.987 90.4064 158.298C86.7741 158.52 83.0589 158.591 79.6459 159.849C67.5179 164.318 53.6576 157.806 40.9321 160.057C37.7249 160.623 34.7796 160.008 31.5345 160.277H31.53Z" fill="#251838"/>
</g>
<path d="M24.8984 157.922C24.8984 157.922 25.8988 162.423 33.3986 164.171C40.8983 165.921 42.6484 168.421 51.8961 169.92C61.1459 171.42 64.644 171.42 68.1443 173.421C71.6446 175.422 75.3934 176.171 75.3934 176.171C75.3934 176.171 101.892 173.172 106.892 172.423C111.892 171.673 145.89 167.172 161.637 164.923C177.386 162.674 206.883 158.674 212.382 157.423C217.881 156.174 219.132 153.923 219.132 153.923C219.132 153.923 202.633 151.423 195.134 150.673C187.634 149.923 167.885 145.924 164.886 145.423C161.887 144.924 158.515 143.995 158.515 143.995C158.515 143.995 102.391 150.922 86.3934 152.173C70.3936 153.421 38.6468 157.672 34.3967 157.922C30.1467 158.173 24.8984 157.922 24.8984 157.922Z" fill="#FF84EE"/>
<mask id="mask0_2188_64722" style="mask-type:luminance" maskUnits="userSpaceOnUse" x="24" y="143" width="196" height="34">
<path d="M24.9004 157.922C24.9004 157.922 25.9008 162.423 33.4005 164.171C40.9002 165.921 42.6504 168.421 51.898 169.92C61.1479 171.42 64.646 171.42 68.1463 173.421C71.6466 175.421 75.3953 176.171 75.3953 176.171C75.3953 176.171 101.894 173.172 106.894 172.422C111.894 171.673 145.892 167.172 161.639 164.923C177.388 162.674 206.885 158.674 212.384 157.423C217.883 156.174 219.134 153.923 219.134 153.923C219.134 153.923 202.635 151.423 195.136 150.673C187.636 149.923 167.887 145.924 164.888 145.423C161.889 144.924 158.517 143.995 158.517 143.995C158.517 143.995 102.393 150.922 86.3954 152.173C70.3955 153.421 38.6487 157.671 34.3987 157.922C30.1486 158.173 24.9004 157.922 24.9004 157.922Z" fill="white"/>
</mask>
<g mask="url(#mask0_2188_64722)">
<path d="M70.1137 164.448C70.051 162.866 69.0573 161.619 67.5578 161.145C66.0807 160.677 64.4335 160.984 62.9429 161.221C59.5971 161.751 56.3407 162.779 53.2723 164.213C54.1765 162.179 54.7785 159.939 54.266 157.736C53.5924 154.838 50.7948 153.625 48.0465 154.296C46.5559 154.661 45.1795 155.442 43.8837 156.239C42.561 157.052 41.2987 157.958 40.0879 158.932C37.4224 161.078 35.106 163.616 33.1545 166.425C32.3398 167.597 34.2578 168.705 35.0658 167.541C38.0267 163.282 42.0485 159.581 46.6723 157.193C48.3911 156.304 51.2357 155.534 52.0347 157.974C52.7016 160.008 51.7728 162.322 50.8709 164.126C50.5419 164.784 50.1793 165.422 49.7877 166.037C47.6481 167.342 45.701 169.05 45.1639 171.483C44.9177 172.599 46.1732 173.273 47.0125 172.559C48.6731 171.151 50.1413 169.509 51.3521 167.696C51.8668 167.403 52.3793 167.134 52.8605 166.881C55.5328 165.473 58.3863 164.437 61.3315 163.777C62.6945 163.47 64.1045 163.184 65.5033 163.132C66.4276 163.097 67.7368 163.197 67.8913 164.345C68.0524 165.538 67.1863 166.789 66.5731 167.729C65.83 168.873 65.0176 169.965 64.1291 170.999C62.0768 173.387 59.6955 175.464 57.0434 177.163C55.8483 177.928 56.9562 179.846 58.1602 179.074C60.8974 177.322 63.3973 175.2 65.5346 172.749C66.6312 171.489 67.6451 170.151 68.5493 168.745C69.3639 167.481 70.1674 166.004 70.1069 164.448H70.1137Z" fill="#BF6BB2"/>
<path d="M119.663 159.041C118.219 157.694 116.245 157.213 114.314 157.197C112.344 157.181 110.357 157.6 108.444 158.061C108.329 157.757 108.188 157.454 108.014 157.152C107.031 155.445 105.174 154.274 103.271 153.873C100.93 153.381 98.5446 153.802 96.2484 154.337C92.4034 155.232 88.6681 156.635 85.1543 158.435C78.1806 162.007 72.1043 167.253 67.5274 173.606C66.9523 174.403 66.4062 175.222 65.8825 176.053C64.8172 177.745 67.4961 179.302 68.5592 177.617C72.0461 172.078 76.7437 167.326 82.2135 163.734C84.9417 161.942 87.8557 160.406 90.9017 159.229C92.4526 158.629 94.0372 158.115 95.6419 157.685C97.3719 157.222 99.1645 156.763 100.966 156.745C102.439 156.731 104.046 157.101 105.035 158.28C105.194 158.47 105.319 158.672 105.418 158.882C104.108 159.278 102.813 159.733 101.553 160.256C98.191 161.651 94.158 164.101 93.7999 168.141C93.7171 169.07 93.979 170.057 94.6616 170.715C95.6396 171.659 96.9713 171.368 98.135 171.013C100.138 170.402 102.047 169.444 103.717 168.179C105.901 166.525 108.204 163.954 108.708 161.17C109.583 160.966 110.456 160.782 111.317 160.619C113.996 160.109 118.351 159.818 118.439 163.6C118.481 165.435 117.725 167.237 116.901 168.842C115.954 170.684 114.764 172.364 113.34 173.868C111.971 175.316 114.157 177.512 115.531 176.059C118.419 173.009 120.983 168.96 121.476 164.712C121.713 162.676 121.207 160.487 119.665 159.048L119.663 159.041ZM96.3692 168.278C96.4744 167.971 96.5729 168.02 96.6579 168.161C96.5013 168.204 96.3804 168.244 96.3692 168.278ZM97.4233 167.984C97.3652 168.002 97.1503 168.045 96.9287 168.094C96.969 167.933 97.025 167.767 97.0832 167.615C97.204 167.304 97.3719 167.009 97.5554 166.724C98.3096 165.547 99.5159 164.715 100.72 164.05C102.094 163.291 103.571 162.678 105.093 162.172C103.565 165.015 100.431 167.04 97.4233 167.984Z" fill="#BF6BB2"/>
<path d="M171.975 144.749C169.236 149.576 165.275 153.641 160.501 156.476C159.299 157.19 158.048 157.851 156.756 158.385C155.971 158.71 155.1 159.03 154.221 159.162C154.803 158.359 155.338 157.522 155.814 156.649C156.62 155.181 157.309 153.368 156.528 151.741C155.615 149.838 153.402 149.637 151.69 150.516C150.21 151.277 148.885 152.739 148.053 154.162C147.104 155.783 146.907 157.768 147.901 159.417C148.16 159.849 148.487 160.245 148.861 160.597C148.355 161.071 147.829 161.521 147.281 161.946C143.527 164.856 136.997 167.644 133.185 163.329C131.386 161.29 130.864 158.278 130.73 155.653C130.668 154.411 130.672 153.171 130.744 151.933C140.19 152.186 149.767 150.436 158.854 148.052C163.216 146.909 167.539 145.617 171.859 144.326C173.766 143.758 172.953 140.765 171.035 141.338C158.05 145.219 144.693 149.185 131.055 148.849C131.272 147.341 131.585 145.843 131.988 144.366C132.516 142.439 129.526 141.618 129 143.543C128.539 145.23 128.183 146.956 127.944 148.697C127.306 148.65 126.668 148.594 126.03 148.527C121.899 148.088 117.821 147.144 113.925 145.702C113.139 145.411 112.226 146.027 112.018 146.786C111.781 147.652 112.313 148.399 113.101 148.692C117.837 150.445 122.713 151.409 127.646 151.781C127.572 153.108 127.568 154.44 127.639 155.765C127.814 158.954 128.501 162.304 130.482 164.889C132.639 167.705 136.057 168.947 139.546 168.569C143.048 168.19 146.26 166.61 149.031 164.484C149.975 163.759 150.868 162.971 151.705 162.125C151.775 162.141 151.844 162.157 151.913 162.17C153.896 162.539 155.868 162.08 157.705 161.324C164.825 158.388 170.852 153.007 174.65 146.316C175.634 144.579 172.96 143.014 171.973 144.751L171.975 144.749ZM153.617 154.077C153.415 154.686 153.055 155.252 152.728 155.8C152.2 156.685 151.609 157.533 150.96 158.336C150.712 158.101 150.512 157.821 150.403 157.504C150.029 156.423 150.933 155.308 151.636 154.531C152.059 154.064 152.5 153.609 153.055 153.301C153.317 153.155 153.632 153.005 153.751 153.099C153.728 153.13 153.773 153.426 153.769 153.471C153.749 153.647 153.677 153.889 153.617 154.077Z" fill="#BF6BB2"/>
<path d="M185.353 151.707C184.466 151.438 183.448 151.443 182.53 151.38C181.517 151.311 180.496 151.28 179.482 151.365C178.553 151.443 177.642 151.611 176.765 151.877C177.452 149.384 179.567 147.506 182.056 146.913C183.994 146.452 183.175 143.464 181.232 143.925C177.792 144.744 174.916 147.41 173.853 150.785C173.574 151.673 173.475 152.573 173.574 153.437C169.937 156.006 168.01 160.129 166.79 164.303C166.231 166.221 169.221 167.04 169.778 165.126C170.579 162.38 171.653 159.598 173.634 157.475C174.026 157.054 174.438 156.682 174.865 156.351C174.89 156.38 174.912 156.409 174.937 156.436C176.208 157.837 178.159 158.526 180.024 158.486C181.993 158.444 184.366 157.754 185.912 156.501C186.626 155.921 187.244 155.075 187.237 154.115C187.23 152.965 186.431 152.032 185.353 151.703V151.707ZM184.126 153.952C184.126 153.952 184.113 153.959 184.108 153.963C184.097 153.75 184.303 153.865 184.126 153.952ZM180.899 155.299C179.858 155.496 178.703 155.328 177.855 154.818C178.795 154.543 179.795 154.408 180.859 154.411C181.602 154.411 182.342 154.46 183.083 154.52C183.13 154.525 183.177 154.527 183.226 154.531C183.195 154.545 183.164 154.558 183.135 154.574C182.423 154.899 181.666 155.156 180.899 155.301V155.299Z" fill="#BF6BB2"/>
<path d="M208.475 148.67C206.116 149.321 203.963 150.499 201.899 151.792C199.829 153.09 197.781 154.413 195.66 155.626C191.331 158.097 186.828 160.256 182.184 162.067C181.406 162.371 180.864 163.108 181.101 163.974C181.305 164.717 182.222 165.361 183.008 165.057C187.733 163.215 192.334 161.064 196.75 158.571C198.887 157.365 200.955 156.058 203.027 154.744C205.006 153.489 207.022 152.289 209.296 151.66C211.216 151.13 210.4 148.14 208.473 148.672L208.475 148.67Z" fill="#BF6BB2"/>
</g>
<path d="M85.3177 145.425C85.3177 145.425 79.1071 153.809 77.3703 157.488C75.6336 161.167 75.3762 163.103 71.2314 164.325C67.0865 165.547 48.3786 170.491 50.8181 167.322C53.2576 164.153 61.0169 160.151 67.6952 150.167C72.5182 142.959 74.2863 140.897 74.2863 140.897L85.3177 145.425Z" fill="#802E00"/>
<path d="M51.3574 168.04L54.5489 166.205" stroke="black" stroke-width="0.311089" stroke-linecap="round" stroke-linejoin="round"/>
<path d="M51.9551 166.483L55.1219 164.607" stroke="black" stroke-width="0.311089" stroke-linecap="round" stroke-linejoin="round"/>
<path d="M63.9847 147.081C63.9847 147.081 89.1068 111.612 93.6478 108.772C99.3929 105.18 105.268 107.266 111.664 111.901C118.06 116.536 142.178 139.713 142.178 139.713L128.635 150.134L101.864 124.544L76.8042 157.548L63.9824 147.081H63.9847Z" fill="#802E00"/>
<path d="M156.581 98.1214C156.581 98.1214 153.501 97.4074 149.558 96.7405C145.614 96.0735 142.136 94.5651 138.86 96.5659C135.583 98.5667 133.972 102.788 134.805 108.177C135.637 113.566 138.054 124.544 138.054 124.544L159.804 123.431L169.571 116.156L178.019 111.485C178.019 111.485 176.435 102.855 170.553 101.011C162.762 98.5667 156.581 98.1214 156.581 98.1214Z" fill="#802E00"/>
<path d="M138.199 102.555C138.103 104.471 138.004 106.386 137.908 108.302" stroke="#251838" stroke-width="0.147711" stroke-linecap="round" stroke-linejoin="round"/>
<path d="M165.102 115.048C165.102 115.048 171.601 128.422 172.727 130.421C175.227 135.546 180.696 148.457 181.195 149.832L190.938 146.463C190.938 146.463 184.689 130.074 182.688 124.949C180.687 119.824 177.688 108.45 174.313 103.951C167.315 111.825 165.102 115.048 165.102 115.048Z" fill="#802E00"/>
<path d="M168.911 113.069C168.911 113.069 162.407 120.544 158.681 125.388C157.629 126.755 156.796 127.912 156.396 128.633L138.053 124.544L138.111 119.837L138.198 113.072C138.198 113.072 135.875 105.731 136.338 104.276C136.799 102.826 140.324 99.0076 142.703 98.9897C144.989 98.9718 146.741 99.7126 148.014 100.59C148.247 100.749 148.466 100.914 148.668 101.082C150.026 102.199 150.658 103.352 150.658 103.352C150.658 103.352 158.515 100.004 162.987 103.799C163.005 103.824 163.025 103.846 163.043 103.871C163.282 104.171 163.52 104.473 163.75 104.784C166.633 108.622 168.909 113.072 168.909 113.072L168.911 113.069Z" fill="#802E00"/>
<path d="M162.834 152.262C162.601 152.62 162.375 152.969 162.145 153.327C157.349 158.166 149.142 161.239 142.539 161.239C141.049 161.239 139.614 161.082 138.256 160.782C137.276 160.567 136.485 159.842 136.156 158.893L128.417 136.589L128.227 136.041C127.849 134.946 128.151 133.731 129.001 132.945L132.958 129.275C134.317 128.015 136.465 128.337 137.446 129.908C137.452 129.917 137.457 129.929 137.464 129.938C138.16 131.048 138.956 131.862 139.608 132.411C140.308 133.001 141.244 133.216 142.137 133.019C152.295 130.768 156.534 133.776 160.498 133.935C161.458 133.973 162.337 134.487 162.847 135.302C165.388 139.355 165.428 145.246 162.839 152.26L162.834 152.262Z" fill="#802E00"/>
<path d="M152.846 97.676L148.672 101.078L142.721 105.925L141.553 105.509L148.018 100.588L152.054 97.5104L152.846 97.676Z" fill="#0F9B8C"/>
<path d="M166.218 99.9274L165.974 100.406L163.751 104.782L160.882 110.426L159.799 110.008L163.044 103.869L165.302 99.594L165.542 99.6813L166.218 99.9274Z" fill="#0F9B8C"/>
<path d="M138.05 161.026C138.001 161.02 137.954 161.006 137.902 160.997H137.898C131.168 159.657 111.972 149.279 102.546 143.995L96.1561 141.468C96.1561 141.468 86.9957 145.223 77.2938 150.955C73.5339 153.175 60.3584 158.482 58.5926 159.661L46.1289 154.632C51.4264 150.691 68.2744 139.756 73.2899 136.117C81.4879 130.168 90.2051 121.659 97.2102 121.954C104.22 122.245 132.482 136.117 132.482 136.117C132.482 136.117 143.415 139.655 149.173 146.983C149.173 146.985 149.905 147.965 149.905 147.967C149.966 148.048 150.019 148.131 150.075 148.213C156.089 157.175 146.747 162.618 138.048 161.024L138.05 161.026Z" fill="#802E00"/>
<path d="M63.0408 157.41C63.0408 157.41 53.7663 162.188 50.5816 164.721C47.3968 167.255 46.3114 168.877 42.0524 168.143C37.7934 167.407 18.8281 163.578 22.4157 161.812C26.0033 160.046 34.7317 159.883 45.1364 153.878C52.6473 149.541 55.145 148.475 55.145 148.475L63.0431 157.41H63.0408Z" fill="#802E00"/>
<path d="M22.5859 162.694L26.2586 162.459" stroke="black" stroke-width="0.311089" stroke-linecap="round" stroke-linejoin="round"/>
<path d="M23.8066 161.559L27.477 161.275" stroke="black" stroke-width="0.311089" stroke-linecap="round" stroke-linejoin="round"/>
<path d="M166.755 118.438C166.755 118.438 162.409 120.544 158.683 125.388L138.115 119.835L138.202 113.069C138.202 113.069 135.879 105.728 136.342 104.274C136.803 102.823 140.328 99.0054 142.707 98.9875C144.992 98.9696 146.745 99.7104 148.018 100.588L152.053 97.5104L152.848 97.676L148.672 101.08C150.03 102.197 150.661 103.349 150.661 103.349C150.661 103.349 158.519 100.001 162.991 103.797C163.009 103.822 163.029 103.844 163.047 103.869L165.305 99.594L165.544 99.6813L165.976 100.406L163.754 104.782C166.637 108.62 166.755 118.438 166.755 118.438Z" fill="#84E6E1"/>
<path d="M50.875 164.124C50.875 164.124 56.7253 159.981 65.0598 155.7C73.3943 151.418 91.4442 143.01 91.4442 143.01" stroke="black" stroke-width="0.311089" stroke-linecap="round" stroke-linejoin="round"/>
<path d="M181.045 149.529C181.045 149.529 183.294 154.892 185.841 156.114C188.388 157.336 198.578 157.083 199.292 156.877C200.006 156.673 199.954 155.756 198.119 155.604L196.286 155.451L201.534 155.044C201.534 155.044 203.777 156.476 205.509 156.423C207.241 156.369 206.885 156.011 205.509 155.248C204.133 154.484 202.998 153.894 202.998 153.894C202.998 153.894 204.694 153.974 206.019 153.312C207.344 152.649 209.177 151.528 205.408 151.987C201.637 152.446 196.443 152.956 194.71 151.935C192.978 150.915 190.532 145.617 190.532 145.617L181.049 149.527L181.045 149.529Z" fill="#802E00"/>
<path d="M191.377 155.055C191.377 155.055 193.076 155.297 195.305 155.427L197.534 155.557" stroke="black" stroke-width="0.311089" stroke-linecap="round" stroke-linejoin="round"/>
<path d="M195.803 153.524L200.597 153.31C201.089 153.287 201.579 153.365 202.04 153.538L203.448 154.064" stroke="black" stroke-width="0.311089" stroke-linecap="round" stroke-linejoin="round"/>
<path d="M154.131 77.0949C154.444 77.4261 154.702 77.7864 154.847 78.2206C155.1 78.9726 155.048 79.8432 154.619 80.5124C154.189 81.1815 153.365 81.6001 152.584 81.4658C150.995 81.1927 150.181 79.776 149.997 78.3191C149.97 78.1042 149.955 77.8871 149.972 77.67C150.183 75.1612 152.916 75.8057 154.133 77.0949H154.131Z" fill="#37D0BF"/>
<path d="M153.745 77.5715C153.986 77.8267 154.174 78.1333 154.286 78.4668C154.481 79.0464 154.441 79.7156 154.112 80.2304C153.783 80.7451 153.147 81.0674 152.545 80.9644C151.923 80.857 151.442 80.3423 151.149 79.785C150.813 79.1516 150.6 78.4198 150.694 77.7103C150.956 75.7073 153.002 76.7949 153.747 77.5738L153.745 77.5715Z" fill="#8077CD"/>
<path d="M157.581 83.2674C159.331 83.6524 161.263 83.0637 162.503 81.7702C162.939 81.3158 163.308 80.6825 163.123 80.0827C162.973 79.5992 162.767 79.3419 162.048 79.0039C160.719 78.3773 158.541 77.8894 156.937 79.0621C155.303 80.255 155.446 82.7997 157.581 83.2674Z" fill="#37D0BF"/>
<path d="M157.905 82.6721C159.335 82.9854 160.919 82.5602 161.931 81.5016C162.287 81.1301 162.593 80.7429 162.441 80.2505C162.318 79.8544 161.971 79.6731 161.595 79.5008C160.539 79.0174 158.433 78.7801 157.405 79.5702C156.094 80.5795 156.157 82.2872 157.905 82.6721Z" fill="#8077CD"/>
<path d="M156.146 80.7451C156.273 80.49 156.311 80.2796 156.379 80.0021C155.973 79.5522 155.32 79.3396 154.727 79.4672C154.608 79.7649 154.505 79.9887 154.387 80.2863C154.978 80.1364 155.745 80.2863 156.146 80.7451Z" fill="#37D0BF"/>
<path d="M162.814 80.6847L167.932 85.9016L166.697 85.8703L162.191 81.9112L162.814 80.6847Z" fill="#37D0BF"/>
<path d="M160.505 73.1559C165.511 75.8461 170.296 79.7067 170.191 85.5637C170.173 86.5328 170.162 87.6831 170.992 88.2404C171.688 88.7059 172.648 88.5022 173.427 88.1777C175.556 87.2915 178.87 85.1004 178.859 82.6408C178.852 81.0831 178.015 79.6485 177.122 78.346C175.034 75.2933 172.483 72.4934 169.374 70.3762C166.265 68.259 162.573 66.8491 158.759 66.6812C157.678 66.6342 156.575 66.6879 155.554 67.0281C154.207 67.4757 153.09 68.3866 152.058 69.3266C151.644 69.7026 150.313 70.9962 151.091 71.5109C151.476 71.7661 153.15 71.2401 153.645 71.2401C156.042 71.2357 158.439 72.0458 160.505 73.1559Z" fill="#FF9260"/>
<path d="M206.971 156.053C207.047 155.882 206.612 155.525 206 155.255C205.388 154.985 204.831 154.905 204.755 155.076C204.68 155.247 205.115 155.604 205.727 155.874C206.339 156.143 206.896 156.224 206.971 156.053Z" fill="#FFDDBD"/>
<path d="M199.117 156.691C199.667 156.691 200.113 156.514 200.113 156.295C200.113 156.076 199.667 155.899 199.117 155.899C198.567 155.899 198.121 156.076 198.121 156.295C198.121 156.514 198.567 156.691 199.117 156.691Z" fill="#FFDDBD"/>
<path d="M66.332 140.9L89.1311 124.269C92.5889 121.746 97.112 121.22 101.058 122.879L141.557 139.921" stroke="black" stroke-width="0.311089" stroke-linecap="round" stroke-linejoin="round"/>
<path d="M162.944 151.969C162.62 152.484 162.306 152.981 161.98 153.493C157.163 158.235 149.068 161.237 142.54 161.237C140.454 161.237 138.48 160.928 136.665 160.355C129.805 158.195 125.197 152.235 125.197 144.702C125.197 141.768 126.424 139.004 128.418 136.585C130.676 133.838 133.917 131.533 137.462 129.933C138.941 132.296 140.886 133.31 140.886 133.31C153.106 130.228 157.224 134.505 161.78 133.87C165.29 137.849 165.737 144.207 162.942 151.962L162.944 151.969Z" fill="#802E00"/>
<path d="M161.782 133.877C157.223 134.512 151.554 133.483 131.156 135.544C131.156 135.544 132.237 130.464 132.338 129.853L138.058 124.542L137.913 124.161L156.688 128.299C156.52 128.458 156.424 128.57 156.401 128.628C156.296 128.953 159.045 130.775 161.784 133.874L161.782 133.877Z" fill="#84E6E1"/>
</svg>
