<svg width="234" height="166" viewBox="0 0 234 166" fill="none" xmlns="http://www.w3.org/2000/svg">
<g clip-path="url(#clip0_3331_76175)">
<path d="M172.984 20.5826C174.299 21.1608 175.557 21.8264 176.685 22.6689C178.795 24.2478 180.407 26.5772 180.341 29.0695C180.289 30.9623 179.269 32.7607 177.825 34.1154C176.381 35.4701 174.537 36.4188 172.628 37.1505C174.065 38.0992 175.422 39.2344 176.154 40.7095C176.886 42.1845 176.869 44.0585 175.739 45.3022C174.297 46.8906 171.708 46.9637 169.454 46.9071C170.433 46.9307 171.082 50.4307 171.127 51.0561C171.25 52.7578 170.761 54.332 169.831 55.7905C167.948 58.743 163.865 60.244 160.273 60.6452C156.379 61.0818 152.411 60.336 148.758 59.0285C146.865 58.3512 144.286 56.6472 142.221 57.4756C141.317 57.8391 140.578 58.4645 139.776 58.9931C137.116 60.742 133.623 61.3863 130.43 60.7184C127.647 60.1354 124.506 57.9405 123.628 55.3704C122.153 55.7409 120.616 56.01 119.099 55.8377C117.581 55.6654 116.073 54.9975 115.238 53.8245C114.683 53.0433 114.463 52.1064 114.32 51.1859C114.112 49.8643 114.039 48.5025 114.397 47.2092C114.756 45.9158 115.592 44.691 116.861 44.0325C115.261 43.459 113.673 42.7698 112.415 41.6984C111.157 40.6269 110.263 39.1093 110.345 37.5375C110.428 35.9657 111.672 34.4175 113.368 34.1626C110.973 31.4272 110.914 27.2381 113.085 24.3493C115.256 21.4605 119.417 20.0114 123.179 20.6793C123.439 17.4531 125.87 14.7177 128.551 12.6102C129.662 11.7369 130.871 10.9133 132.277 10.538C134.597 9.91731 137.068 10.5994 139.37 11.2767C139.629 11.3522 141.685 10.2595 142.157 10.158C143.294 9.91495 144.489 9.88427 145.643 10.0518C147.422 10.3091 150.191 11.1918 150.745 12.95C151.189 12.3034 151.774 11.8101 152.508 11.4254C156.601 9.27772 161.972 10.0046 165.911 12.3812C167.16 13.1341 168.323 14.064 169.057 15.2582C169.791 16.4524 170.046 17.9416 169.48 19.209C170.657 19.6409 171.842 20.0799 172.987 20.5826H172.984Z" fill="black"/>
<path d="M124.42 34.5496C122.201 34.5166 120.368 36.8979 120.325 39.8669C120.28 42.8383 122.041 45.2739 124.257 45.3069C126.475 45.34 128.307 42.9586 128.352 39.9873C128.397 37.0183 126.636 34.5827 124.42 34.5496ZM124.281 44.108C122.695 44.0844 121.437 42.3427 121.467 40.2186C121.5 38.0945 122.81 36.3929 124.396 36.4165C125.98 36.4401 127.24 38.1818 127.207 40.3059C127.176 42.43 125.867 44.1316 124.281 44.108Z" fill="#FF5B00"/>
<path d="M204.978 104.8C203.954 103.632 203.725 102.813 203.998 101.284C204.053 100.982 203.699 100.783 203.47 100.984C202.301 102.008 201.483 102.237 199.953 101.963C199.651 101.909 199.453 102.263 199.653 102.492C200.678 103.66 200.907 104.479 200.633 106.009C200.579 106.311 200.933 106.509 201.162 106.308C202.33 105.284 203.149 105.055 204.678 105.329C204.98 105.383 205.178 105.029 204.978 104.8Z" fill="#FF9260"/>
<path d="M52.8567 145.198C51.8324 144.03 51.6035 143.211 51.8773 141.682C51.9316 141.379 51.5776 141.181 51.3486 141.382C50.1804 142.406 49.3614 142.635 47.8321 142.361C47.53 142.307 47.3317 142.661 47.5323 142.89C48.5566 144.058 48.7856 144.877 48.5118 146.406C48.4575 146.709 48.8115 146.907 49.0405 146.706C50.2087 145.682 51.0277 145.453 52.557 145.727C52.8591 145.781 53.0573 145.427 52.8567 145.198Z" fill="#FF9260"/>
<path d="M45.1247 46.277C43.6827 45.6988 43.1092 45.071 42.6631 43.5818C42.5758 43.2891 42.1698 43.2702 42.0566 43.5534C41.4783 44.9955 40.8506 45.569 39.3613 46.015C39.0687 46.1023 39.0498 46.5083 39.333 46.6216C40.775 47.1998 41.3485 47.8276 41.7946 49.3168C41.8819 49.6094 42.2878 49.6283 42.4011 49.3451C42.9794 47.9031 43.6071 47.3296 45.0964 46.8835C45.389 46.7962 45.4079 46.3903 45.1247 46.277Z" fill="#FF9260"/>
<path d="M83.7004 135.812C84.7978 136.138 85.907 136.296 86.9998 136.296C91.72 136.296 96.1192 133.39 97.8444 128.758L117.348 76.3681L158.452 74.3172L159.544 90.8591L182.131 84.8456L178.831 62.545C177.58 56.1326 171.593 51.7759 165.109 52.55L112.73 58.8255C106.114 59.4698 100.379 63.6755 97.776 69.7976L76.4501 119.95C73.5614 126.343 76.9764 133.815 83.7004 135.812Z" fill="#1A1A1A"/>
<path d="M91.1699 161.572H179.886C172.872 147.924 162.367 130.964 149.575 120.993L150.432 117.641L157.522 95.7515L159.547 71.0177L137.801 68.8417L128.993 72.9507L119.201 70.2389L108.106 75.2069L106.116 88.1851L113.775 97.1534L91.1699 161.572Z" fill="#1A1A1A"/>
<path d="M156.333 21.3441C156.492 10.7405 148.343 2.02026 138.132 1.86697C127.921 1.71369 119.514 10.1854 119.355 20.789C119.195 31.3926 127.344 40.1128 137.556 40.2661C147.767 40.4194 156.174 31.9477 156.333 21.3441Z" fill="black"/>
<path d="M147.821 55.9746L137.847 69.7977L130.93 58.4433C130.93 58.4433 129.681 51.0703 128.758 45.5288C128.754 45.4958 128.749 45.4627 128.739 45.4273C128.204 42.2105 127.779 39.6333 127.781 39.52L133.663 37.3511L134.012 37.2213L143.986 33.5443L147.826 55.9722L147.821 55.9746Z" fill="#8E410F"/>
<path d="M142.934 35.5527C142.934 35.5527 139.167 40.8039 136.021 42.8737C133.999 44.2024 130.022 45.2409 128.736 45.432C128.2 42.2152 127.775 39.638 127.777 39.5247L133.659 37.3558L134.008 37.226L142.936 35.5527H142.934Z" fill="#72310B"/>
<path d="M148.431 30.1811C148.431 30.1811 142.418 41.9108 130.112 41.8258C117.811 41.7385 116.223 34.0989 119.14 26.1076C119.485 25.1659 119.751 24.347 119.959 23.6201C120.306 22.4046 120.493 21.4582 120.58 20.677C120.891 17.9535 120.077 17.2053 121.234 13.9649C124.93 3.93214 134.2 6.97903 134.214 6.98375C135.342 7.35428 137.011 6.90586 138.189 6.9035C139.668 6.89878 140.704 7.13951 141.899 7.9679C143.187 8.86238 144.599 9.55625 145.913 10.4059C147.218 11.2484 148.117 12.6149 149.444 13.3041C150.027 13.6062 150.666 14.0853 150.626 14.7414C150.6 15.1497 150.31 15.4919 150.211 15.8884C150.017 16.6507 150.548 17.3847 150.992 18.0337C151.197 18.3334 151.396 18.7205 151.226 19.0415C151.084 19.3105 150.73 19.4167 150.586 19.6858C150.388 20.0516 150.666 20.4811 150.909 20.8186C151.499 21.6376 150.935 22.9876 150.718 23.8915C150.456 24.9771 150.131 26.0486 149.751 27.0988C149.371 28.1467 148.955 29.197 148.434 30.1835L148.431 30.1811Z" fill="#8E410F"/>
<path d="M137.578 23.0607C137.578 23.0607 137.139 24.3564 135.098 24.9677C134.826 25.0503 134.527 25.1211 134.191 25.173C133.925 25.2155 133.639 25.2485 133.33 25.2674C130.545 25.435 129.174 24.3045 129.174 24.3045C129.174 24.3045 130.264 21.6423 132.992 21.2812C133.106 21.2647 133.219 21.2529 133.337 21.2458C134.413 21.1845 135.268 21.4063 135.919 21.7178C137.057 22.2583 137.576 23.0607 137.576 23.0607H137.578Z" fill="#FF5B00"/>
<path d="M137.572 23.8065C137.572 23.8065 137.129 24.9582 135.045 25.501C134.766 25.5742 134.462 25.6379 134.119 25.6828C133.848 25.7205 133.558 25.7489 133.242 25.7654C130.4 25.9093 128.998 24.8992 128.998 24.8992C128.998 24.8992 130.105 22.5297 132.89 22.2158C133.005 22.2016 133.121 22.1922 133.242 22.1851C134.339 22.1308 135.212 22.3314 135.878 22.6099C137.041 23.0937 137.572 23.8089 137.572 23.8089V23.8065Z" fill="white"/>
<path d="M136.204 23.7263C136.193 24.5169 135.721 25.1919 135.046 25.4987C134.784 25.6238 134.489 25.6875 134.182 25.6852C134.163 25.6852 134.139 25.6852 134.12 25.6804C133.051 25.6332 132.206 24.7435 132.223 23.6673C132.232 23.0867 132.487 22.5675 132.891 22.2135C133.006 22.1993 133.122 22.1899 133.242 22.1828C134.34 22.1285 135.213 22.3291 135.879 22.6076C136.089 22.9309 136.209 23.3156 136.202 23.7263H136.204Z" fill="black"/>
<path d="M129.184 24.793C129.184 24.793 131.702 19.5512 137.649 23.6271" stroke="black" stroke-width="0.559343" stroke-linecap="round" stroke-linejoin="round"/>
<path d="M125.612 23.4336C125.612 23.4336 124.961 23.7947 122.943 23.6106C122.672 23.5894 122.384 23.5469 122.065 23.4808C121.815 23.4265 121.548 23.3605 121.26 23.2731C120.828 23.1433 120.444 22.9946 120.102 22.8412C120.448 21.6258 120.635 20.6794 120.722 19.8982C121.14 19.8699 121.593 19.9029 122.077 20.0162C122.183 20.0374 122.289 20.0658 122.398 20.0988C123.392 20.4009 124.1 20.854 124.6 21.3142C125.475 22.112 125.612 23.4336 125.612 23.4336Z" fill="#FF5B00"/>
<path d="M125.582 23.6908C125.582 23.6908 124.82 24.5735 122.804 24.3894C122.533 24.3681 122.245 24.3257 121.926 24.2596C121.676 24.2053 121.41 24.1392 121.122 24.0519C120.69 23.9221 120.305 23.7734 119.963 23.62C120.31 22.4045 120.496 21.4581 120.584 20.6769C121.001 20.6486 121.454 20.6817 121.938 20.7949C122.044 20.8162 122.151 20.8445 122.259 20.8775C123.253 21.1796 123.961 21.6328 124.461 22.093C125.337 22.8907 125.582 23.6908 125.582 23.6908Z" fill="white"/>
<path d="M124.896 23.6366C124.526 24.2809 123.829 24.6208 123.133 24.5641C122.862 24.5476 122.588 24.465 122.338 24.321C122.321 24.3116 122.305 24.3022 122.288 24.2904C121.432 23.7617 121.144 22.643 121.651 21.7651C121.925 21.2907 122.373 20.9815 122.864 20.8753C122.966 20.9154 123.067 20.9626 123.169 21.0122C124.096 21.4724 124.722 22.0341 125.142 22.5699C125.168 22.9333 125.09 23.3038 124.896 23.639V23.6366Z" fill="black"/>
<path d="M120.656 20.6156C122.077 20.4811 123.883 21.0381 125.704 23.5587" stroke="black" stroke-width="0.526301" stroke-linecap="round" stroke-linejoin="round"/>
<path d="M129.891 32.737C129.976 32.7512 129.497 35.1939 127.496 35.503C124.541 35.9585 123.387 33.1312 123.387 33.1312C123.387 33.1312 125.593 32.0007 129.891 32.737Z" fill="#FF27E7"/>
<path d="M123.389 33.1312C123.307 33.11 123.994 31.6373 126.049 31.4815C128.105 31.3257 130.142 32.7276 130.142 32.7276C130.142 32.7276 127.614 34.2121 123.389 33.1312Z" fill="#801478"/>
<path d="M122.898 33.0628C123.226 33.169 123.552 33.2752 123.887 33.3531C124.222 33.4309 124.56 33.4947 124.899 33.5513C125.464 33.6457 126.044 33.726 126.618 33.6929C127.569 33.6386 128.534 33.4097 129.431 33.0934C129.879 32.9353 130.318 32.7371 130.717 32.4727C130.812 32.409 130.731 32.2745 130.63 32.3217C130.262 32.4893 129.865 32.6096 129.478 32.7229C129.008 32.8622 128.536 32.9967 128.057 33.1053C127.618 33.2044 127.17 33.2917 126.721 33.3295C126.198 33.3743 125.664 33.3224 125.145 33.261C124.77 33.2162 124.397 33.1525 124.024 33.0887C123.656 33.025 123.29 32.9802 122.919 32.9377C122.846 32.9282 122.839 33.0392 122.903 33.0604L122.898 33.0628Z" fill="black"/>
<path d="M129.295 21.6282C130.31 20.9272 131.447 20.4174 132.691 20.3325C134.362 20.2168 135.934 20.7809 137.527 21.1868C137.904 21.2836 138.173 20.7219 137.8 20.5354C136.248 19.7613 134.362 19.294 132.62 19.5088C131.228 19.6811 130.057 20.3537 129.045 21.3001C128.875 21.4582 129.099 21.7603 129.295 21.6258V21.6282Z" fill="black"/>
<path d="M124.672 19.4709C124.368 19.275 124.075 19.0555 123.742 18.9092C123.41 18.7629 123.074 18.6378 122.73 18.534C122.102 18.3451 121.458 18.2366 120.799 18.246C120.584 18.2507 120.4 18.4254 120.4 18.6449C120.4 18.8832 120.584 19.0154 120.799 19.0437C121.354 19.1169 121.953 19.1712 122.527 19.2656C122.845 19.3175 123.159 19.3883 123.469 19.4733C123.811 19.5677 124.165 19.6338 124.488 19.7824C124.696 19.8768 124.866 19.6007 124.67 19.4733L124.672 19.4709Z" fill="black"/>
<path d="M125.622 20.3206C125.955 20.6109 126.269 20.9106 126.51 21.2812C126.75 21.6517 126.906 22.034 126.968 22.4518C127.024 22.8388 126.986 23.2306 126.838 23.5917C126.689 23.9528 126.47 24.2785 126.241 24.59C125.771 25.2367 125.207 25.8385 124.881 26.5748C124.555 27.3112 124.482 28.2623 125.101 28.8335C125.882 29.558 127.187 29.525 128.011 28.8925C128.152 28.7839 128.037 28.5738 127.869 28.6517C127.102 29.0034 126.054 29.178 125.377 28.5361C125.094 28.2694 125.025 27.8446 125.051 27.4693C125.077 27.1224 125.212 26.7896 125.379 26.4875C125.762 25.7937 126.309 25.206 126.746 24.5499C126.956 24.236 127.147 23.8985 127.26 23.535C127.381 23.1551 127.39 22.7468 127.319 22.355C127.159 21.4723 126.547 20.5424 125.681 20.2238C125.629 20.2049 125.584 20.2828 125.627 20.3182L125.622 20.3206Z" fill="black"/>
<path d="M53.6769 79.5049C53.6769 79.5049 46.9837 72.2783 44.6378 72.5426C40.4958 73.0099 25.2401 71.7638 23.0453 71.4357C20.8504 71.1077 15.7431 70.4209 19.0874 72.4152C21.0179 73.5669 23.1939 74.7399 24.6879 75.5258C25.0112 75.6957 25.8561 76.1253 25.8561 76.1253C23.673 75.7594 18.6649 75.1364 15.2215 74.4378C9.79096 73.3356 8.87524 73.1964 11.1881 75.2426C11.3817 75.4149 13.0597 75.8822 12.793 75.9671C11.0041 76.5359 15.2215 78.6529 15.2215 78.6529C14.1123 79.5545 19.052 81.9004 24.4944 84.0859C32.8515 87.4395 33.0308 87.2083 38.5511 88.1759C44.0053 89.1317 48.5744 96.0114 48.5744 96.0114L54.418 83.3613" fill="#8E410F"/>
<path d="M20.427 72.5071C20.5317 72.2641 19.9664 71.787 19.1644 71.4414C18.3623 71.0958 17.6273 71.0127 17.5226 71.2557C17.4179 71.4987 17.9832 71.9758 18.7852 72.3214C19.5872 72.667 20.3223 72.7501 20.427 72.5071Z" fill="#B57548"/>
<path d="M13.0845 75.6353C13.2017 75.3952 12.5496 74.8356 11.6278 74.3854C10.7061 73.9353 9.86376 73.765 9.7465 74.0051C9.62924 74.2452 10.2814 74.8048 11.2032 75.2549C12.1249 75.7051 12.9672 75.8754 13.0845 75.6353Z" fill="#B57548"/>
<path d="M17.1983 80.526C17.3047 80.3558 16.8292 79.8666 16.1362 79.4334C15.4432 79.0002 14.7951 78.787 14.6887 78.9572C14.5823 79.1275 15.0579 79.6166 15.7509 80.0498C16.4439 80.483 17.0919 80.6962 17.1983 80.526Z" fill="#B57548"/>
<path d="M15.438 78.1501C15.5553 77.91 14.9031 77.3504 13.9813 76.9002C13.0596 76.45 12.2173 76.2797 12.1 76.5198C11.9828 76.7599 12.6349 77.3195 13.5567 77.7697C14.4784 78.2199 15.3207 78.3902 15.438 78.1501Z" fill="#B57548"/>
<path d="M26.9246 79.3869L22.051 78.7095C19.4549 78.3484 16.9178 77.6545 14.5011 76.6397L11.8105 75.5092" stroke="black" stroke-width="0.290292" stroke-linecap="round" stroke-linejoin="round"/>
<path d="M27.1802 82.6981L21.7567 81.36C21.3437 81.2585 20.9425 81.124 20.5507 80.9611L14.8086 78.5515" stroke="black" stroke-width="0.290292" stroke-linecap="round" stroke-linejoin="round"/>
<path d="M26.5585 76.189C26.5585 76.189 25.3218 75.8892 23.4385 74.8602" stroke="black" stroke-width="0.351654" stroke-linecap="round" stroke-linejoin="round"/>
<path d="M159.547 90.8592L163.354 128.621C164.343 136.296 171.631 142.633 178.041 141.401C184.231 140.211 188.453 134.613 188.453 128.505C188.453 127.769 188.392 127.023 188.265 126.275L182.135 84.8456L159.549 90.8592H159.547Z" fill="#1A1A1A"/>
<path d="M76.9017 133.013L42.2295 94.1704L53.6783 79.5048L91.6098 119.478C94.98 123.03 95.2821 128.5 92.3202 132.402C88.518 137.41 81.0908 137.705 76.904 133.013H76.9017Z" fill="#1A1A1A"/>
<path d="M213.461 161.572H185.272L165.875 135.644C162.068 130.556 163.269 123.214 168.641 119.815C170.302 118.763 178.289 116.561 179.882 118.258C197.455 136.985 208.567 153.626 213.461 161.572Z" fill="#1A1A1A"/>
<path d="M92.1097 120.818L68.2939 94.9043" stroke="black" stroke-width="0.290292" stroke-linecap="round" stroke-linejoin="round"/>
<path d="M156.004 53.6428L168.812 52.6633L159.547 94.3804L149.913 119.666L165.931 139.859L140.935 153.529L127.735 131.118L114.308 154.74L98.8945 139.555L113.773 97.1535L106.114 88.1851L110.4 59.2079L130.671 57.2868L134.638 80.8334L151.39 54.195L156.004 53.6428Z" fill="#37353F"/>
<mask id="mask0_3331_76175" style="mask-type:luminance" maskUnits="userSpaceOnUse" x="99" y="52" width="71" height="103">
<path d="M156.237 53.5862L169.045 52.6091L159.779 94.3238L150.145 119.612L166.163 139.803L141.167 153.472L127.967 131.061L114.541 154.683L99.127 139.501L114.005 97.0969L106.346 88.1285L110.632 59.1536L130.903 57.2325L134.871 80.7768L151.623 54.1408L156.237 53.5862Z" fill="white"/>
</mask>
<g mask="url(#mask0_3331_76175)">
<path d="M109.776 64.2892C108.23 63.7487 107.598 63.1162 107.057 61.5704C106.951 61.2659 106.524 61.2659 106.418 61.5704C105.877 63.1162 105.245 63.7487 103.699 64.2892C103.395 64.3954 103.395 64.8226 103.699 64.9288C105.245 65.4693 105.877 66.1018 106.418 67.6476C106.524 67.9521 106.951 67.9521 107.057 67.6476C107.598 66.1018 108.23 65.4693 109.776 64.9288C110.081 64.8226 110.081 64.3954 109.776 64.2892Z" fill="#29282F"/>
<path d="M114.441 61.7993V57.0036C114.441 52.838 111.17 49.3545 107.007 49.2153C102.633 49.069 99.0388 52.569 99.0388 56.9116V61.7993C99.0388 62.4059 98.548 62.8968 97.9414 62.8968V63.9942L98.0122 63.9871C99.4259 63.8479 100.802 63.4231 102.029 62.7056C103.969 61.5704 105.029 60.034 105.975 57.3364C106.228 56.6142 107.254 56.6142 107.507 57.3364C108.451 60.0363 109.511 61.5704 111.453 62.7056C112.68 63.4254 114.056 63.8479 115.47 63.9871L115.541 63.9942V62.8968C114.934 62.8968 114.443 62.4059 114.443 61.7993" fill="#29282F"/>
<path d="M127.376 64.2893C125.83 63.7488 125.198 63.1163 124.657 61.5704C124.551 61.266 124.124 61.266 124.017 61.5704C123.477 63.1163 122.845 63.7488 121.299 64.2893C120.994 64.3955 120.994 64.8227 121.299 64.9289C122.845 65.4693 123.477 66.1018 124.017 67.6477C124.124 67.9521 124.551 67.9521 124.657 67.6477C125.198 66.1018 125.83 65.4693 127.376 64.9289C127.68 64.8227 127.68 64.3955 127.376 64.2893Z" fill="#29282F"/>
<path d="M132.037 61.7994V57.0037C132.037 52.8381 128.765 49.3546 124.602 49.2154C120.229 49.069 116.635 52.5691 116.635 56.9116V61.7994C116.635 62.4059 116.144 62.8968 115.537 62.8968V63.9943L115.608 63.9872C117.022 63.848 118.398 63.4231 119.625 62.7057C121.565 61.5705 122.624 60.034 123.571 57.3365C123.823 56.6143 124.85 56.6143 125.103 57.3365C126.047 60.0364 127.106 61.5705 129.049 62.7057C130.276 63.4255 131.652 63.848 133.066 63.9872L133.136 63.9943V62.8968C132.53 62.8968 132.039 62.4059 132.039 61.7994" fill="#29282F"/>
<path d="M144.972 64.2892C143.426 63.7487 142.793 63.1162 142.253 61.5704C142.147 61.2659 141.719 61.2659 141.613 61.5704C141.073 63.1162 140.44 63.7487 138.894 64.2892C138.59 64.3954 138.59 64.8226 138.894 64.9288C140.44 65.4693 141.073 66.1018 141.613 67.6476C141.719 67.9521 142.147 67.9521 142.253 67.6476C142.793 66.1018 143.426 65.4693 144.972 64.9288C145.276 64.8226 145.276 64.3954 144.972 64.2892Z" fill="#29282F"/>
<path d="M149.632 61.7993V57.0036C149.632 52.838 146.361 49.3545 142.198 49.2153C137.825 49.069 134.23 52.569 134.23 56.9116V61.7993C134.23 62.4059 133.739 62.8968 133.133 62.8968V63.9942L133.204 63.9871C134.617 63.8479 135.993 63.4231 137.22 62.7056C139.16 61.5704 140.22 60.034 141.167 57.3364C141.419 56.6142 142.446 56.6142 142.698 57.3364C143.642 60.0363 144.702 61.5704 146.644 62.7056C147.872 63.4254 149.248 63.8479 150.661 63.9871L150.732 63.9942V62.8968C150.126 62.8968 149.635 62.4059 149.635 61.7993" fill="#29282F"/>
<path d="M162.567 64.2892C161.021 63.7487 160.389 63.1162 159.848 61.5704C159.742 61.2659 159.315 61.2659 159.209 61.5704C158.668 63.1162 158.036 63.7487 156.49 64.2892C156.186 64.3954 156.186 64.8226 156.49 64.9288C158.036 65.4693 158.668 66.1018 159.209 67.6476C159.315 67.9521 159.742 67.9521 159.848 67.6476C160.389 66.1018 161.021 65.4693 162.567 64.9288C162.872 64.8226 162.872 64.3954 162.567 64.2892Z" fill="#29282F"/>
<path d="M167.232 61.7993V57.0036C167.232 52.838 163.961 49.3545 159.798 49.2153C155.424 49.069 151.83 52.569 151.83 56.9116V61.7993C151.83 62.4059 151.339 62.8968 150.732 62.8968V63.9942L150.803 63.9871C152.217 63.8479 153.593 63.4231 154.82 62.7056C156.76 61.5704 157.82 60.034 158.766 57.3364C159.019 56.6142 160.045 56.6142 160.298 57.3364C161.242 60.0363 162.302 61.5704 164.244 62.7056C165.471 63.4254 166.847 63.8479 168.261 63.9871L168.332 63.9942V62.8968C167.725 62.8968 167.234 62.4059 167.234 61.7993" fill="#29282F"/>
<path d="M184.82 61.7993V57.0036C184.82 52.838 181.549 49.3545 177.385 49.2153C173.012 49.069 169.418 52.569 169.418 56.9116V61.7993C169.418 62.4059 168.927 62.8968 168.32 62.8968V63.9942L168.391 63.9871C169.805 63.8479 171.181 63.4231 172.408 62.7056C174.348 61.5704 175.408 60.034 176.354 57.3364C176.607 56.6142 177.633 56.6142 177.886 57.3364C178.83 60.0363 179.89 61.5704 181.832 62.7056C183.059 63.4254 184.435 63.8479 185.849 63.9871L185.92 63.9942V62.8968C185.313 62.8968 184.822 62.4059 184.822 61.7993" fill="#29282F"/>
<path d="M109.776 84.6851C108.23 84.1447 107.598 83.5122 107.057 81.9663C106.951 81.6619 106.524 81.6619 106.418 81.9663C105.877 83.5122 105.245 84.1447 103.699 84.6851C103.395 84.7913 103.395 85.2185 103.699 85.3247C105.245 85.8652 105.877 86.4977 106.418 88.0436C106.524 88.348 106.951 88.348 107.057 88.0436C107.598 86.4977 108.23 85.8652 109.776 85.3247C110.081 85.2185 110.081 84.7913 109.776 84.6851Z" fill="#29282F"/>
<path d="M114.441 82.1953V77.3996C114.441 73.234 111.17 69.7505 107.007 69.6112C102.633 69.4649 99.0388 72.9649 99.0388 77.3075V82.1953C99.0388 82.8018 98.548 83.2927 97.9414 83.2927V84.3901L98.0122 84.3831C99.4259 84.2438 100.802 83.819 102.029 83.1015C103.969 81.9663 105.029 80.4299 105.975 77.7323C106.228 77.0101 107.254 77.0101 107.507 77.7323C108.451 80.4323 109.511 81.9663 111.453 83.1015C112.68 83.8214 114.056 84.2438 115.47 84.3831L115.541 84.3901V83.2927C114.934 83.2927 114.443 82.8018 114.443 82.1953" fill="#29282F"/>
<path d="M127.376 84.6851C125.83 84.1446 125.198 83.5121 124.657 81.9663C124.551 81.6618 124.124 81.6618 124.017 81.9663C123.477 83.5121 122.845 84.1446 121.299 84.6851C120.994 84.7913 120.994 85.2185 121.299 85.3247C122.845 85.8651 123.477 86.4976 124.017 88.0435C124.124 88.348 124.551 88.348 124.657 88.0435C125.198 86.4976 125.83 85.8651 127.376 85.3247C127.68 85.2185 127.68 84.7913 127.376 84.6851Z" fill="#29282F"/>
<path d="M132.037 82.1952V77.3995C132.037 73.2339 128.765 69.7504 124.602 69.6112C120.229 69.4649 116.635 72.9649 116.635 77.3074V82.1952C116.635 82.8017 116.144 83.2927 115.537 83.2927V84.3901L115.608 84.383C117.022 84.2438 118.398 83.819 119.625 83.1015C121.565 81.9663 122.624 80.4299 123.571 77.7323C123.823 77.0101 124.85 77.0101 125.103 77.7323C126.047 80.4322 127.106 81.9663 129.049 83.1015C130.276 83.8213 131.652 84.2438 133.066 84.383L133.136 84.3901V83.2927C132.53 83.2927 132.039 82.8017 132.039 82.1952" fill="#29282F"/>
<path d="M144.972 84.6851C143.426 84.1447 142.793 83.5122 142.253 81.9663C142.147 81.6619 141.719 81.6619 141.613 81.9663C141.073 83.5122 140.44 84.1447 138.894 84.6851C138.59 84.7913 138.59 85.2185 138.894 85.3247C140.44 85.8652 141.073 86.4977 141.613 88.0436C141.719 88.348 142.147 88.348 142.253 88.0436C142.793 86.4977 143.426 85.8652 144.972 85.3247C145.276 85.2185 145.276 84.7913 144.972 84.6851Z" fill="#29282F"/>
<path d="M149.632 82.1953V77.3996C149.632 73.234 146.361 69.7505 142.198 69.6112C137.825 69.4649 134.23 72.9649 134.23 77.3075V82.1953C134.23 82.8018 133.739 83.2927 133.133 83.2927V84.3901L133.204 84.3831C134.617 84.2438 135.993 83.819 137.22 83.1015C139.16 81.9663 140.22 80.4299 141.167 77.7323C141.419 77.0101 142.446 77.0101 142.698 77.7323C143.642 80.4323 144.702 81.9663 146.644 83.1015C147.872 83.8214 149.248 84.2438 150.661 84.3831L150.732 84.3901V83.2927C150.126 83.2927 149.635 82.8018 149.635 82.1953" fill="#29282F"/>
<path d="M162.567 84.6851C161.021 84.1447 160.389 83.5122 159.848 81.9663C159.742 81.6619 159.315 81.6619 159.209 81.9663C158.668 83.5122 158.036 84.1447 156.49 84.6851C156.186 84.7913 156.186 85.2185 156.49 85.3247C158.036 85.8652 158.668 86.4977 159.209 88.0436C159.315 88.348 159.742 88.348 159.848 88.0436C160.389 86.4977 161.021 85.8652 162.567 85.3247C162.872 85.2185 162.872 84.7913 162.567 84.6851Z" fill="#29282F"/>
<path d="M167.232 82.1953V77.3996C167.232 73.234 163.961 69.7505 159.798 69.6112C155.424 69.4649 151.83 72.9649 151.83 77.3075V82.1953C151.83 82.8018 151.339 83.2927 150.732 83.2927V84.3901L150.803 84.3831C152.217 84.2438 153.593 83.819 154.82 83.1015C156.76 81.9663 157.82 80.4299 158.766 77.7323C159.019 77.0101 160.045 77.0101 160.298 77.7323C161.242 80.4323 162.302 81.9663 164.244 83.1015C165.471 83.8214 166.847 84.2438 168.261 84.3831L168.332 84.3901V83.2927C167.725 83.2927 167.234 82.8018 167.234 82.1953" fill="#29282F"/>
<path d="M184.82 82.1951V77.3994C184.82 73.2339 181.549 69.7504 177.385 69.6111C173.012 69.4648 169.418 72.9648 169.418 77.3074V82.1951C169.418 82.8017 168.927 83.2926 168.32 83.2926V84.39L168.391 84.383C169.805 84.2437 171.181 83.8189 172.408 83.1014C174.348 81.9662 175.408 80.4298 176.354 77.7322C176.607 77.01 177.633 77.01 177.886 77.7322C178.83 80.4322 179.89 81.9662 181.832 83.1014C183.059 83.8213 184.435 84.2437 185.849 84.383L185.92 84.39V83.2926C185.313 83.2926 184.822 82.8017 184.822 82.1951" fill="#29282F"/>
<path d="M109.776 105.079C108.23 104.538 107.598 103.906 107.057 102.36C106.951 102.056 106.524 102.056 106.418 102.36C105.877 103.906 105.245 104.538 103.699 105.079C103.395 105.185 103.395 105.612 103.699 105.718C105.245 106.259 105.877 106.891 106.418 108.437C106.524 108.742 106.951 108.742 107.057 108.437C107.598 106.891 108.23 106.259 109.776 105.718C110.081 105.612 110.081 105.185 109.776 105.079Z" fill="#29282F"/>
<path d="M114.441 102.589V97.7932C114.441 93.6276 111.17 90.1441 107.007 90.0049C102.633 89.8585 99.0388 93.3585 99.0388 97.7011V102.589C99.0388 103.195 98.548 103.686 97.9414 103.686V104.784L98.0122 104.777C99.4259 104.637 100.802 104.213 102.029 103.495C103.969 102.36 105.029 100.824 105.975 98.1259C106.228 97.4037 107.254 97.4037 107.507 98.1259C108.451 100.826 109.511 102.36 111.453 103.495C112.68 104.215 114.056 104.637 115.47 104.777L115.541 104.784V103.686C114.934 103.686 114.443 103.195 114.443 102.589" fill="#29282F"/>
<path d="M127.376 105.079C125.83 104.538 125.198 103.906 124.657 102.36C124.551 102.056 124.124 102.056 124.017 102.36C123.477 103.906 122.845 104.538 121.299 105.079C120.994 105.185 120.994 105.612 121.299 105.718C122.845 106.259 123.477 106.891 124.017 108.437C124.124 108.742 124.551 108.742 124.657 108.437C125.198 106.891 125.83 106.259 127.376 105.718C127.68 105.612 127.68 105.185 127.376 105.079Z" fill="#29282F"/>
<path d="M132.037 102.589V97.7932C132.037 93.6276 128.765 90.1441 124.602 90.0049C120.229 89.8585 116.635 93.3585 116.635 97.7011V102.589C116.635 103.195 116.144 103.686 115.537 103.686V104.784L115.608 104.777C117.022 104.637 118.398 104.213 119.625 103.495C121.565 102.36 122.624 100.824 123.571 98.1259C123.823 97.4037 124.85 97.4037 125.103 98.1259C126.047 100.826 127.106 102.36 129.049 103.495C130.276 104.215 131.652 104.637 133.066 104.777L133.136 104.784V103.686C132.53 103.686 132.039 103.195 132.039 102.589" fill="#29282F"/>
<path d="M144.972 105.079C143.426 104.538 142.793 103.906 142.253 102.36C142.147 102.056 141.719 102.056 141.613 102.36C141.073 103.906 140.44 104.538 138.894 105.079C138.59 105.185 138.59 105.612 138.894 105.718C140.44 106.259 141.073 106.891 141.613 108.437C141.719 108.742 142.147 108.742 142.253 108.437C142.793 106.891 143.426 106.259 144.972 105.718C145.276 105.612 145.276 105.185 144.972 105.079Z" fill="#29282F"/>
<path d="M149.632 102.589V97.7932C149.632 93.6276 146.361 90.1441 142.198 90.0049C137.825 89.8585 134.23 93.3585 134.23 97.7011V102.589C134.23 103.195 133.739 103.686 133.133 103.686V104.784L133.204 104.777C134.617 104.637 135.993 104.213 137.22 103.495C139.16 102.36 140.22 100.824 141.167 98.1259C141.419 97.4037 142.446 97.4037 142.698 98.1259C143.642 100.826 144.702 102.36 146.644 103.495C147.872 104.215 149.248 104.637 150.661 104.777L150.732 104.784V103.686C150.126 103.686 149.635 103.195 149.635 102.589" fill="#29282F"/>
<path d="M162.567 105.079C161.021 104.538 160.389 103.906 159.848 102.36C159.742 102.056 159.315 102.056 159.209 102.36C158.668 103.906 158.036 104.538 156.49 105.079C156.186 105.185 156.186 105.612 156.49 105.718C158.036 106.259 158.668 106.891 159.209 108.437C159.315 108.742 159.742 108.742 159.848 108.437C160.389 106.891 161.021 106.259 162.567 105.718C162.872 105.612 162.872 105.185 162.567 105.079Z" fill="#29282F"/>
<path d="M167.232 102.589V97.7932C167.232 93.6276 163.961 90.1441 159.798 90.0049C155.424 89.8585 151.83 93.3585 151.83 97.7011V102.589C151.83 103.195 151.339 103.686 150.732 103.686V104.784L150.803 104.777C152.217 104.637 153.593 104.213 154.82 103.495C156.76 102.36 157.82 100.824 158.766 98.1259C159.019 97.4037 160.045 97.4037 160.298 98.1259C161.242 100.826 162.302 102.36 164.244 103.495C165.471 104.215 166.847 104.637 168.261 104.777L168.332 104.784V103.686C167.725 103.686 167.234 103.195 167.234 102.589" fill="#29282F"/>
<path d="M184.82 102.589V97.7932C184.82 93.6276 181.549 90.1441 177.385 90.0049C173.012 89.8585 169.418 93.3585 169.418 97.7011V102.589C169.418 103.195 168.927 103.686 168.32 103.686V104.784L168.391 104.777C169.805 104.637 171.181 104.213 172.408 103.495C174.348 102.36 175.408 100.824 176.354 98.1259C176.607 97.4037 177.633 97.4037 177.886 98.1259C178.83 100.826 179.89 102.36 181.832 103.495C183.059 104.215 184.435 104.637 185.849 104.777L185.92 104.784V103.686C185.313 103.686 184.822 103.195 184.822 102.589" fill="#29282F"/>
<path d="M109.776 125.475C108.23 124.934 107.598 124.302 107.057 122.756C106.951 122.451 106.524 122.451 106.418 122.756C105.877 124.302 105.245 124.934 103.699 125.475C103.395 125.581 103.395 126.008 103.699 126.114C105.245 126.655 105.877 127.287 106.418 128.833C106.524 129.138 106.951 129.138 107.057 128.833C107.598 127.287 108.23 126.655 109.776 126.114C110.081 126.008 110.081 125.581 109.776 125.475Z" fill="#29282F"/>
<path d="M114.441 122.983V118.187C114.441 114.021 111.17 110.538 107.007 110.398C102.633 110.252 99.0388 113.752 99.0388 118.095V122.983C99.0388 123.589 98.548 124.08 97.9414 124.08V125.177L98.0122 125.17C99.4259 125.031 100.802 124.606 102.029 123.889C103.969 122.754 105.029 121.217 105.975 118.52C106.228 117.797 107.254 117.797 107.507 118.52C108.451 121.22 109.511 122.754 111.453 123.889C112.68 124.609 114.056 125.031 115.47 125.17L115.541 125.177V124.08C114.934 124.08 114.443 123.589 114.443 122.983" fill="#29282F"/>
<path d="M127.376 125.475C125.83 124.934 125.198 124.302 124.657 122.756C124.551 122.451 124.124 122.451 124.017 122.756C123.477 124.302 122.845 124.934 121.299 125.475C120.994 125.581 120.994 126.008 121.299 126.114C122.845 126.655 123.477 127.287 124.017 128.833C124.124 129.138 124.551 129.138 124.657 128.833C125.198 127.287 125.83 126.655 127.376 126.114C127.68 126.008 127.68 125.581 127.376 125.475Z" fill="#29282F"/>
<path d="M132.037 122.983V118.187C132.037 114.021 128.765 110.538 124.602 110.398C120.229 110.252 116.635 113.752 116.635 118.095V122.983C116.635 123.589 116.144 124.08 115.537 124.08V125.177L115.608 125.17C117.022 125.031 118.398 124.606 119.625 123.889C121.565 122.754 122.624 121.217 123.571 118.52C123.823 117.797 124.85 117.797 125.103 118.52C126.047 121.22 127.106 122.754 129.049 123.889C130.276 124.609 131.652 125.031 133.066 125.17L133.136 125.177V124.08C132.53 124.08 132.039 123.589 132.039 122.983" fill="#29282F"/>
<path d="M144.972 125.475C143.426 124.934 142.793 124.302 142.253 122.756C142.147 122.451 141.719 122.451 141.613 122.756C141.073 124.302 140.44 124.934 138.894 125.475C138.59 125.581 138.59 126.008 138.894 126.114C140.44 126.655 141.073 127.287 141.613 128.833C141.719 129.138 142.147 129.138 142.253 128.833C142.793 127.287 143.426 126.655 144.972 126.114C145.276 126.008 145.276 125.581 144.972 125.475Z" fill="#29282F"/>
<path d="M149.632 122.983V118.187C149.632 114.021 146.361 110.538 142.198 110.398C137.825 110.252 134.23 113.752 134.23 118.095V122.983C134.23 123.589 133.739 124.08 133.133 124.08V125.177L133.204 125.17C134.617 125.031 135.993 124.606 137.22 123.889C139.16 122.754 140.22 121.217 141.167 118.52C141.419 117.797 142.446 117.797 142.698 118.52C143.642 121.22 144.702 122.754 146.644 123.889C147.872 124.609 149.248 125.031 150.661 125.17L150.732 125.177V124.08C150.126 124.08 149.635 123.589 149.635 122.983" fill="#29282F"/>
<path d="M162.567 125.475C161.021 124.934 160.389 124.302 159.848 122.756C159.742 122.452 159.315 122.452 159.209 122.756C158.668 124.302 158.036 124.934 156.49 125.475C156.186 125.581 156.186 126.008 156.49 126.114C158.036 126.655 158.668 127.287 159.209 128.833C159.315 129.138 159.742 129.138 159.848 128.833C160.389 127.287 161.021 126.655 162.567 126.114C162.872 126.008 162.872 125.581 162.567 125.475Z" fill="#29282F"/>
<path d="M167.232 122.983V118.187C167.232 114.021 163.961 110.538 159.798 110.398C155.424 110.252 151.83 113.752 151.83 118.095V122.983C151.83 123.589 151.339 124.08 150.732 124.08V125.177L150.803 125.17C152.217 125.031 153.593 124.606 154.82 123.889C156.76 122.754 157.82 121.217 158.766 118.52C159.019 117.797 160.045 117.797 160.298 118.52C161.242 121.22 162.302 122.754 164.244 123.889C165.471 124.609 166.847 125.031 168.261 125.17L168.332 125.177V124.08C167.725 124.08 167.234 123.589 167.234 122.983" fill="#29282F"/>
<path d="M184.82 122.983V118.187C184.82 114.021 181.549 110.538 177.385 110.398C173.012 110.252 169.418 113.752 169.418 118.095V122.983C169.418 123.589 168.927 124.08 168.32 124.08V125.177L168.391 125.17C169.805 125.031 171.181 124.606 172.408 123.889C174.348 122.754 175.408 121.217 176.354 118.52C176.607 117.797 177.633 117.797 177.886 118.52C178.83 121.22 179.89 122.754 181.832 123.889C183.059 124.609 184.435 125.031 185.849 125.17L185.92 125.177V124.08C185.313 124.08 184.822 123.589 184.822 122.983" fill="#29282F"/>
<path d="M109.776 145.868C108.23 145.328 107.598 144.695 107.057 143.15C106.951 142.845 106.524 142.845 106.418 143.15C105.877 144.695 105.245 145.328 103.699 145.868C103.395 145.975 103.395 146.402 103.699 146.508C105.245 147.048 105.877 147.681 106.418 149.227C106.524 149.531 106.951 149.531 107.057 149.227C107.598 147.681 108.23 147.048 109.776 146.508C110.081 146.402 110.081 145.975 109.776 145.868Z" fill="#29282F"/>
<path d="M114.441 143.378V138.583C114.441 134.417 111.17 130.934 107.007 130.794C102.633 130.648 99.0388 134.148 99.0388 138.491V143.378C99.0388 143.985 98.548 144.476 97.9414 144.476V145.573L98.0122 145.566C99.4259 145.427 100.802 145.002 102.029 144.285C103.969 143.149 105.029 141.613 105.975 138.915C106.228 138.193 107.254 138.193 107.507 138.915C108.451 141.615 109.511 143.149 111.453 144.285C112.68 145.005 114.056 145.427 115.47 145.566L115.541 145.573V144.476C114.934 144.476 114.443 143.985 114.443 143.378" fill="#29282F"/>
<path d="M127.376 145.868C125.83 145.328 125.198 144.695 124.657 143.15C124.551 142.845 124.124 142.845 124.017 143.15C123.477 144.695 122.845 145.328 121.299 145.868C120.994 145.975 120.994 146.402 121.299 146.508C122.845 147.048 123.477 147.681 124.017 149.227C124.124 149.531 124.551 149.531 124.657 149.227C125.198 147.681 125.83 147.048 127.376 146.508C127.68 146.402 127.68 145.975 127.376 145.868Z" fill="#29282F"/>
<path d="M132.037 143.378V138.583C132.037 134.417 128.765 130.934 124.602 130.794C120.229 130.648 116.635 134.148 116.635 138.491V143.378C116.635 143.985 116.144 144.476 115.537 144.476V145.573L115.608 145.566C117.022 145.427 118.398 145.002 119.625 144.285C121.565 143.149 122.624 141.613 123.571 138.915C123.823 138.193 124.85 138.193 125.103 138.915C126.047 141.615 127.106 143.149 129.049 144.285C130.276 145.005 131.652 145.427 133.066 145.566L133.136 145.573V144.476C132.53 144.476 132.039 143.985 132.039 143.378" fill="#29282F"/>
<path d="M144.972 145.868C143.426 145.328 142.793 144.695 142.253 143.15C142.147 142.845 141.719 142.845 141.613 143.15C141.073 144.695 140.44 145.328 138.894 145.868C138.59 145.975 138.59 146.402 138.894 146.508C140.44 147.048 141.073 147.681 141.613 149.227C141.719 149.531 142.147 149.531 142.253 149.227C142.793 147.681 143.426 147.048 144.972 146.508C145.276 146.402 145.276 145.975 144.972 145.868Z" fill="#29282F"/>
<path d="M149.632 143.378V138.583C149.632 134.417 146.361 130.934 142.198 130.794C137.825 130.648 134.23 134.148 134.23 138.491V143.378C134.23 143.985 133.739 144.476 133.133 144.476V145.573L133.204 145.566C134.617 145.427 135.993 145.002 137.22 144.285C139.16 143.149 140.22 141.613 141.167 138.915C141.419 138.193 142.446 138.193 142.698 138.915C143.642 141.615 144.702 143.149 146.644 144.285C147.872 145.005 149.248 145.427 150.661 145.566L150.732 145.573V144.476C150.126 144.476 149.635 143.985 149.635 143.378" fill="#29282F"/>
<path d="M162.567 145.868C161.021 145.328 160.389 144.695 159.848 143.15C159.742 142.845 159.315 142.845 159.209 143.15C158.668 144.695 158.036 145.328 156.49 145.868C156.186 145.975 156.186 146.402 156.49 146.508C158.036 147.048 158.668 147.681 159.209 149.227C159.315 149.531 159.742 149.531 159.848 149.227C160.389 147.681 161.021 147.048 162.567 146.508C162.872 146.402 162.872 145.975 162.567 145.868Z" fill="#29282F"/>
<path d="M167.232 143.378V138.583C167.232 134.417 163.961 130.934 159.798 130.794C155.424 130.648 151.83 134.148 151.83 138.491V143.378C151.83 143.985 151.339 144.476 150.732 144.476V145.573L150.803 145.566C152.217 145.427 153.593 145.002 154.82 144.285C156.76 143.149 157.82 141.613 158.766 138.915C159.019 138.193 160.045 138.193 160.298 138.915C161.242 141.615 162.302 143.149 164.244 144.285C165.471 145.005 166.847 145.427 168.261 145.566L168.332 145.573V144.476C167.725 144.476 167.234 143.985 167.234 143.378" fill="#29282F"/>
<path d="M184.82 143.378V138.583C184.82 134.417 181.549 130.934 177.385 130.794C173.012 130.648 169.418 134.148 169.418 138.491V143.378C169.418 143.985 168.927 144.476 168.32 144.476V145.573L168.391 145.566C169.805 145.427 171.181 145.002 172.408 144.285C174.348 143.149 175.408 141.613 176.354 138.915C176.607 138.193 177.633 138.193 177.886 138.915C178.83 141.615 179.89 143.149 181.832 144.285C183.059 145.005 184.435 145.427 185.849 145.566L185.92 145.573V144.476C185.313 144.476 184.822 143.985 184.822 143.378" fill="#29282F"/>
</g>
<path d="M125.582 57.2867L129.903 52.3848L130.673 57.2867L139.221 61.3272L147.821 55.9745L147.009 50.23L151.392 53.3831L161.522 52.9819L133.189 93.1696L125.582 57.2867Z" fill="#FFDDBD"/>
<path d="M149.668 66.3378L138.182 60.8293L148.71 55.1085L149.668 66.3378Z" fill="#FF5B00"/>
<path d="M128.777 66.3378L140.262 60.8293L129.733 55.1085L128.777 66.3378Z" fill="#FF5B00"/>
<path d="M139.218 61.3273L133.186 93.1697" stroke="black" stroke-width="0.302092" stroke-miterlimit="10"/>
<path d="M136.373 89.6484L126.27 100.797L127.73 131.118" stroke="black" stroke-width="0.302092" stroke-miterlimit="10"/>
<path d="M136.375 67.2888C136.9 67.2888 137.326 66.863 137.326 66.3377C137.326 65.8124 136.9 65.3866 136.375 65.3866C135.85 65.3866 135.424 65.8124 135.424 66.3377C135.424 66.863 135.85 67.2888 136.375 67.2888Z" stroke="#1A1A1A" stroke-width="0.23601" stroke-miterlimit="10"/>
<path d="M135.525 71.3246C136.051 71.3246 136.476 70.8988 136.476 70.3735C136.476 69.8482 136.051 69.4224 135.525 69.4224C135 69.4224 134.574 69.8482 134.574 70.3735C134.574 70.8988 135 71.3246 135.525 71.3246Z" stroke="#1A1A1A" stroke-width="0.23601" stroke-miterlimit="10"/>
<path d="M135.041 74.9474C135.566 74.9474 135.992 74.5216 135.992 73.9963C135.992 73.471 135.566 73.0452 135.041 73.0452C134.516 73.0452 134.09 73.471 134.09 73.9963C134.09 74.5216 134.516 74.9474 135.041 74.9474Z" stroke="#1A1A1A" stroke-width="0.23601" stroke-miterlimit="10"/>
<path d="M134.516 78.8297C135.041 78.8297 135.467 78.4039 135.467 77.8786C135.467 77.3533 135.041 76.9275 134.516 76.9275C133.99 76.9275 133.564 77.3533 133.564 77.8786C133.564 78.4039 133.99 78.8297 134.516 78.8297Z" stroke="#1A1A1A" stroke-width="0.23601" stroke-miterlimit="10"/>
<path d="M129.902 106.499C130.922 106.499 131.748 105.673 131.748 104.654C131.748 103.635 130.922 102.808 129.902 102.808C128.883 102.808 128.057 103.635 128.057 104.654C128.057 105.673 128.883 106.499 129.902 106.499Z" fill="#1A1A1A"/>
<path d="M130.619 113.278C131.638 113.278 132.465 112.451 132.465 111.432C132.465 110.413 131.638 109.587 130.619 109.587C129.6 109.587 128.773 110.413 128.773 111.432C128.773 112.451 129.6 113.278 130.619 113.278Z" fill="#1A1A1A"/>
<path d="M130.619 120.103C131.638 120.103 132.465 119.277 132.465 118.258C132.465 117.238 131.638 116.412 130.619 116.412C129.6 116.412 128.773 117.238 128.773 118.258C128.773 119.277 129.6 120.103 130.619 120.103Z" fill="#1A1A1A"/>
<path d="M130.859 127.717C131.879 127.717 132.705 126.89 132.705 125.871C132.705 124.852 131.879 124.026 130.859 124.026C129.84 124.026 129.014 124.852 129.014 125.871C129.014 126.89 129.84 127.717 130.859 127.717Z" fill="#1A1A1A"/>
<path d="M127.021 10.9251C127.132 9.72379 127.966 8.70658 128.846 7.93955C131.499 5.75883 135.414 5.19948 138.581 6.4763C136.469 7.61622 134.191 8.15432 131.949 8.90011C130.245 9.47598 128.586 9.9716 127.021 10.9251Z" fill="black"/>
<path d="M123.387 10.9251C123.498 9.72379 124.331 8.70658 125.211 7.93955C127.864 5.75883 131.779 5.19948 134.946 6.4763C132.834 7.61622 130.557 8.15432 128.315 8.90011C126.611 9.47598 124.951 9.9716 123.387 10.9251Z" fill="black"/>
<path d="M131.401 10.9039C131.672 9.68604 132.56 8.73492 133.494 7.97025C136.322 5.82964 140.296 5.22546 143.598 6.49991C141.629 7.53599 139.472 8.07173 137.407 8.73964C135.352 9.37451 133.355 9.95745 131.398 10.9039H131.401Z" fill="black"/>
<path d="M135.694 11.1021C135.996 9.93619 136.98 9.06059 137.969 8.44225C140.936 6.70993 144.891 6.77366 147.818 8.53665C145.55 9.32964 143.215 9.49957 140.881 9.88191C139.104 10.1816 137.391 10.4106 135.691 11.1021H135.694Z" fill="black"/>
<path d="M139.149 12.0013C139.784 10.6064 141.315 9.85121 142.729 9.47123C145.804 8.74905 149.278 9.59868 151.539 11.8408C149.288 12.2514 147.081 12.0414 144.841 11.9541C142.918 11.8833 141.086 11.7157 139.146 11.9989L139.149 12.0013Z" fill="black"/>
<path d="M141.137 13.998C141.765 12.9218 143.006 12.3624 144.172 12.0745C146.461 11.56 148.899 12.1217 150.884 13.3159C151.873 13.9555 152.744 14.7036 153.405 15.709C152.234 15.8058 151.167 15.6878 150.063 15.5297C147.025 15.1544 144.21 14.1797 141.137 13.998Z" fill="black"/>
<path d="M143.237 16.9173C143.806 16.1503 144.742 15.7703 145.642 15.5485C147.688 15.1024 149.854 15.6547 151.62 16.7167C153.118 17.6466 154.372 18.9352 155.047 20.5944C154.4 20.5779 153.836 20.474 153.293 20.3536C150.959 19.8911 148.45 18.8054 146.239 17.944C145.217 17.5522 144.358 17.184 143.234 16.9173H143.237Z" fill="black"/>
<path d="M145.154 20.1271C145.879 19.5324 146.858 19.3837 147.769 19.3719C149.841 19.4026 151.81 20.3985 153.308 21.7863C154.569 22.9876 155.536 24.4768 155.9 26.2044C155.291 26.0344 154.776 25.8008 154.283 25.5553C151.021 24.0307 148.414 21.6565 145.154 20.1271Z" fill="black"/>
<path d="M154.279 25.6214C155.615 28.234 153.342 32.73 149.996 34.4435C146.649 36.1569 142.882 35.7273 141.544 33.1147C140.208 30.5021 142.453 25.7064 145.799 23.993C149.146 22.2795 152.941 23.0088 154.279 25.6214Z" fill="#8F410F"/>
<path d="M146.545 34.2169C144.326 34.1839 142.493 36.5652 142.45 39.5342C142.405 42.5056 144.166 44.9412 146.382 44.9742C148.6 45.0073 150.432 42.6259 150.477 39.6546C150.522 36.6856 148.761 34.25 146.545 34.2169ZM146.406 43.7753C144.82 43.7517 143.562 42.01 143.592 39.8859C143.625 37.7618 144.935 36.0602 146.521 36.0838C148.105 36.1074 149.365 37.8491 149.332 39.9732C149.301 42.0973 147.992 43.7989 146.406 43.7753Z" fill="#FF5B00"/>
<path d="M144.701 29.709C144.982 29.3078 145.338 28.942 145.702 28.6163C146.065 28.2906 146.487 28.0263 146.926 27.8044C147.932 27.297 149.072 27.1059 150.19 27.1082C150.533 27.1082 150.875 27.1224 151.215 27.1483C151.38 27.1625 151.545 27.1743 151.71 27.1861C151.899 27.2003 152.071 27.1908 152.258 27.1743C152.371 27.1649 152.454 26.9902 152.324 26.9336C152.175 26.8675 152.038 26.8038 151.878 26.7707C151.717 26.7377 151.552 26.7117 151.387 26.6905C151.064 26.6456 150.736 26.6244 150.41 26.6126C149.763 26.5914 149.109 26.6433 148.475 26.766C147.389 26.9761 146.353 27.4528 145.539 28.2057C145.095 28.614 144.779 29.0907 144.562 29.6524C144.531 29.735 144.651 29.7728 144.696 29.709H144.701Z" fill="black"/>
<path d="M147.882 27.2405C147.893 27.4128 147.981 27.5591 148.061 27.7102C148.146 27.8683 148.226 28.0311 148.297 28.1987C148.436 28.5268 148.542 28.876 148.575 29.2324C148.641 29.9239 148.365 30.5423 147.936 31.0686C147.82 31.2102 147.974 31.4721 148.151 31.3471C148.79 30.8939 149.097 30.075 149.036 29.3079C149.003 28.8996 148.87 28.5102 148.686 28.1468C148.594 27.9627 148.488 27.788 148.375 27.6158C148.269 27.4553 148.16 27.2735 147.983 27.1839C147.941 27.1626 147.874 27.1886 147.879 27.2429L147.882 27.2405Z" fill="black"/>
<path d="M72.1518 71.0207C72.4002 65.531 56.7246 60.3625 37.1395 59.4766C17.5544 58.5907 1.47628 62.3228 1.22795 67.8125C0.979629 73.3022 16.6552 78.4707 36.2403 79.3566C55.8253 80.2425 71.9035 76.5104 72.1518 71.0207Z" fill="#FFDDBD"/>
<path d="M65.0222 70.5423C65.2206 66.1568 52.6987 62.028 37.0538 61.3203C21.4089 60.6126 8.56539 63.594 8.36701 67.9795C8.16863 72.3651 20.6905 76.4939 36.3354 77.2016C51.9803 77.9093 64.8238 74.9278 65.0222 70.5423Z" stroke="#FF5B00" stroke-width="0.23601" stroke-miterlimit="10"/>
<path d="M55.5218 65.8539V66.3637C55.5218 66.8216 55.2244 67.2252 54.7878 67.362L33.4501 74.0269C32.643 74.2795 31.7768 74.2889 30.9626 74.0529L16.7029 69.9275C16.2545 69.7977 15.9453 69.387 15.9453 68.9173V68.4312L18.126 69.0613L39.4495 62.741L53.3387 66.536L55.5218 65.8539Z" fill="#29282F"/>
<path d="M15.9453 68.4288L39.0011 61.594C39.2937 61.5067 39.6053 61.5043 39.9003 61.5846L55.5218 65.854L33.4879 72.7384C32.6548 72.998 31.765 73.0074 30.9296 72.7643L15.9477 68.4288H15.9453Z" fill="#84E6E1"/>
<path d="M42.3221 62.2454L41.6731 62.5121C41.3002 62.6655 41.3332 63.2036 41.7226 63.3098L47.4293 64.8793C47.9438 65.0209 48.4914 65.002 48.9941 64.8226L50.1977 64.3978L42.3221 62.2454Z" fill="#37353F"/>
<path d="M23.6319 69.9653L27.3372 71.0651C27.4411 71.0957 27.552 71.0769 27.637 71.0131L27.6511 71.0037C27.8848 70.8361 27.8234 70.4703 27.5473 70.3901L23.8278 69.2997C23.7523 69.2785 23.672 69.2808 23.5988 69.3115C23.2968 69.4366 23.3204 69.8708 23.6319 69.9629V69.9653Z" fill="#37353F"/>
<path d="M232.912 161.572H213.46H185.271H35.7305" stroke="black" stroke-width="0.283211" stroke-linecap="round" stroke-linejoin="round"/>
</g>
<defs>
<clipPath id="clip0_3331_76175">
<rect width="232.4" height="166" fill="white" transform="translate(0.799805)"/>
</clipPath>
</defs>
</svg>
