<svg width="194" height="166" viewBox="0 0 194 166" fill="none" xmlns="http://www.w3.org/2000/svg">
<g clip-path="url(#clip0_3331_76389)">
<path d="M42.6528 107.466H6.96875V162.364H42.6528V107.466Z" fill="#FEFDFD"/>
<path d="M24.1503 115.416H21.6621V127.857H24.1503V115.416Z" fill="#F0E8DB"/>
<path d="M23.7292 116.249H22.082V119.544H23.7292V116.249Z" fill="#37353F"/>
<path d="M23.4568 124.485C23.4568 124.788 23.2101 125.035 22.9071 125.035C22.6041 125.035 22.3574 124.788 22.3574 124.485C22.3574 124.182 22.6041 123.935 22.9071 123.935C23.2101 123.935 23.4568 124.182 23.4568 124.485Z" fill="#FF5B00"/>
<path d="M32.7784 134.366H29.4258V144.544H32.7784V134.366Z" fill="#B2AD0D"/>
<path d="M32.1988 135.384H30.002V135.934H32.1988V135.384Z" fill="#D4CB61"/>
<path d="M31.7337 140.413H30.4692L29.8359 141.506L30.4692 142.602H31.7337L32.365 141.506L31.7337 140.413Z" fill="#D4CB61"/>
<path d="M30.4237 139.747H31.7795C31.997 139.747 31.999 139.407 31.7795 139.407H30.4237C30.2061 139.407 30.2042 139.747 30.4237 139.747Z" fill="#D4CB61"/>
<path d="M30.4686 138.812H31.7292C31.9468 138.812 31.9487 138.472 31.7292 138.472H30.4686C30.251 138.472 30.2491 138.812 30.4686 138.812Z" fill="#D4CB61"/>
<path d="M22.6797 144.319V141.831H10.2386V144.319H22.6797Z" fill="#ED9618"/>
<path d="M13.7753 114.054H11.2871V126.495H13.7753V114.054Z" fill="#F0E8DB"/>
<path d="M15.5703 115.772H13.793V126.791H15.5703V115.772Z" fill="#37353F"/>
<path d="M18.7695 111.506H16.6367V127.146H18.7695V111.506Z" fill="#FF84EE"/>
<path d="M19.9232 116.071L18.8613 116.17L19.8445 126.788L20.9063 126.69L19.9232 116.071Z" fill="#37353F"/>
<path d="M39.6152 126.628V124.139H27.1741V126.628H39.6152Z" fill="#EBA88A"/>
<path d="M39.3496 124.139V122.158H26.9085V124.139H39.3496Z" fill="#FF84EE"/>
<path d="M28.5206 134.384H27.2988V144.562H28.5206V134.384Z" fill="#913757"/>
<path d="M37.8891 136.129L35.5859 135.472L33.1132 144.141L35.4164 144.798L37.8891 136.129Z" fill="#3D71A9"/>
<path d="M40.0955 132.002H37.2207V144.799H40.0955V132.002Z" fill="#B2AD0D"/>
<path d="M27.6697 149.894H24.7949V162.69H27.6697V149.894Z" fill="#913757"/>
<path d="M23.5917 152.382H20.748V162.69H23.5917V152.382Z" fill="#913757"/>
<path d="M20.6482 153.093H17.7812V162.69H20.6482V153.093Z" fill="#913757"/>
<path d="M19.864 155.228C19.864 155.834 19.5745 156.325 19.2171 156.325C18.8597 156.325 18.5703 155.834 18.5703 155.228C18.5703 154.622 18.8597 154.13 19.2171 154.13C19.5745 154.13 19.864 154.622 19.864 155.228Z" fill="#AB6680"/>
<path d="M20.3238 161.267H18.127V161.816H20.3238V161.267Z" fill="#AB6680"/>
<path d="M12.6385 142.468C13.2445 142.468 13.7359 142.757 13.7359 143.115C13.7359 143.472 13.2445 143.762 12.6385 143.762C12.0324 143.762 11.541 143.472 11.541 143.115C11.541 142.757 12.0324 142.468 12.6385 142.468Z" fill="#EBAC61"/>
<path d="M15.3809 142.015V144.212H15.9306V142.015H15.3809Z" fill="#EBAC61"/>
<path d="M21.4219 142.015V144.212H21.9716V142.015H21.4219Z" fill="#EBAC61"/>
<path d="M18.4004 142.015V144.212H18.9501V142.015H18.4004Z" fill="#EBAC61"/>
<path d="M15.1483 160.169H14.0586V161.267H15.1483V160.169Z" fill="#EDB84B"/>
<path d="M4.96484 107.468V164.716H42.0493V162.335H7.24523L7.27631 146.873H42.1678L42.1076 162.366L42.0998 164.716H44.656V107.468H4.96484ZM7.30933 128.924H42.2377L42.1775 144.385H7.2802L7.30933 128.924ZM7.33264 110.76H42.2844L42.2474 126.435H7.31516L7.33264 110.76Z" fill="#FFDDBD"/>
<path d="M21.9707 141.635V139.857H9.52957V141.635H21.9707Z" fill="#3D71A9"/>
<path d="M15.5802 140.471H10.6387V141.021H15.5802V140.471Z" fill="#5F8ABD"/>
<path d="M21.3446 140.471H20.7949V141.021H21.3446V140.471Z" fill="#5F8ABD"/>
<path d="M22.4277 139.793V137.305H13.1857V139.793H22.4277Z" fill="#B2AD0D"/>
<path d="M15.9323 138.548C15.9323 139.003 15.5633 139.372 15.1087 139.372C14.6542 139.372 14.2852 139.003 14.2852 138.548C14.2852 138.094 14.6542 137.725 15.1087 137.725C15.5633 137.725 15.9323 138.094 15.9323 138.548Z" fill="#D4CB61"/>
<path d="M21.4208 139.034C21.4208 139.185 21.2984 139.308 21.1469 139.308C20.9954 139.308 20.873 139.185 20.873 139.034C20.873 138.882 20.9954 138.76 21.1469 138.76C21.2984 138.76 21.4208 138.882 21.4208 139.034Z" fill="#D4CB61"/>
<path d="M21.4208 137.934C21.4208 138.086 21.2984 138.208 21.1469 138.208C20.9954 138.208 20.873 138.086 20.873 137.934C20.873 137.783 20.9954 137.661 21.1469 137.661C21.2984 137.661 21.4208 137.783 21.4208 137.934Z" fill="#D4CB61"/>
<path d="M20.3251 138.484C20.3251 138.636 20.2027 138.758 20.0512 138.758C19.8997 138.758 19.7773 138.636 19.7773 138.484C19.7773 138.333 19.8997 138.21 20.0512 138.21C20.2027 138.21 20.3251 138.333 20.3251 138.484Z" fill="#D4CB61"/>
<path d="M37.7493 132.832H38.7769C38.8662 132.832 38.9517 132.754 38.9459 132.663C38.942 132.571 38.8721 132.494 38.7769 132.494H37.7493C37.66 132.494 37.5745 132.571 37.5804 132.663C37.5842 132.754 37.6542 132.832 37.7493 132.832Z" fill="#D4CB61"/>
<path d="M38.4053 144.092H39.6193C39.7106 144.092 39.7883 144.014 39.7883 143.923C39.7883 143.832 39.7106 143.754 39.6193 143.754H38.4053C38.314 143.754 38.2363 143.832 38.2363 143.923C38.2363 144.014 38.314 144.092 38.4053 144.092Z" fill="#D4CB61"/>
<path d="M37.7227 134.531V138.643C37.7227 138.861 38.0626 138.863 38.0626 138.643V134.531C38.0626 134.314 37.7227 134.312 37.7227 134.531Z" fill="#D4CB61"/>
<path d="M39.5378 142.052C39.5378 142.507 39.1687 142.876 38.7142 142.876C38.2597 142.876 37.8906 142.507 37.8906 142.052C37.8906 141.598 38.2597 141.229 38.7142 141.229C39.1687 141.229 39.5378 141.598 39.5378 142.052Z" fill="#D4CB61"/>
<path d="M39.9629 122.183V119.695H30.7209V122.183H39.9629Z" fill="#37353F"/>
<path d="M32.6248 120.076H31.5273V121.723H32.6248V120.076Z" fill="#FFDDBD"/>
<path d="M39.2138 120.076H38.6641V121.723H39.2138V120.076Z" fill="#EBAC61"/>
<path d="M29.1081 122.838H27.4609V123.388H29.1081V122.838Z" fill="#BF6A86"/>
<path d="M38.4408 122.838H35.1465V123.388H38.4408V122.838Z" fill="#BF6A86"/>
<path d="M30.3398 122.803V123.411C30.3398 123.5 30.4175 123.584 30.5088 123.58C30.6001 123.576 30.6778 123.506 30.6778 123.411V122.803C30.6778 122.714 30.6001 122.628 30.5088 122.634C30.4175 122.638 30.3398 122.708 30.3398 122.803Z" fill="#BF6A86"/>
<path d="M31.1328 122.78V123.388C31.1328 123.477 31.2105 123.562 31.3018 123.557C31.3931 123.553 31.4708 123.483 31.4708 123.388V122.78C31.4708 122.69 31.3931 122.605 31.3018 122.611C31.2105 122.615 31.1328 122.685 31.1328 122.78Z" fill="#BF6A86"/>
<path d="M12.3324 116.987L11.6914 116.389L11.8895 115.536L12.7287 115.28L13.3696 115.878L13.1715 116.731L12.3324 116.987Z" fill="#FF5B00"/>
<path d="M12.7034 125.227L11.8721 124.947L11.6992 124.089L12.3577 123.51L13.189 123.79L13.3619 124.648L12.7034 125.227Z" fill="#FF5B00"/>
<path d="M13.1443 117.896H12.0469V121.739H13.1443V117.896Z" fill="#FF5B00"/>
<path d="M36.3411 152.203C36.3411 152.19 36.986 152.19 36.986 152.19C37.3337 152.19 37.6289 151.904 37.6406 151.539C37.6542 151.155 37.3628 150.838 36.9996 150.838H33.2332C32.8855 150.838 32.5903 151.123 32.5786 151.489C32.565 151.873 32.8564 152.19 33.2177 152.19H33.7111C33.7111 153.713 33.1963 155.162 32.2989 156.333C31.8677 156.894 31.6094 157.609 31.6094 158.388C31.6094 159.878 32.5534 161.133 33.8431 161.527V162.211H36.2071V161.527C37.4968 161.133 38.4408 159.876 38.4408 158.388C38.4408 157.609 38.1825 156.894 37.7513 156.333C36.8519 155.162 36.3391 153.713 36.3391 152.205L36.3411 152.203Z" fill="#913757"/>
<path d="M34.1112 152.567H35.904C36.1216 152.567 36.1235 152.227 35.904 152.227H34.1112C33.8936 152.227 33.8917 152.567 34.1112 152.567Z" fill="#5B1E36"/>
<path d="M32.0557 158.881C32.0693 158.78 32.1839 158.685 32.2519 158.619C32.3432 158.528 32.4423 158.444 32.5549 158.384C32.6365 158.341 32.7375 158.308 32.8288 158.343C32.9007 158.371 32.9415 158.417 32.9862 158.473C33.091 158.606 33.1707 158.786 33.2853 158.926C33.4135 159.081 33.6019 159.165 33.8039 159.116C34.0681 159.052 34.2487 158.796 34.3944 158.586C34.5207 158.407 34.6508 158.205 34.8742 158.139C34.9596 158.114 35.049 158.11 35.1228 158.167C35.2141 158.238 35.2627 158.359 35.3306 158.452C35.488 158.67 35.6997 158.831 35.9503 158.926C36.1154 158.988 36.2921 158.996 36.4067 158.839C36.4864 158.73 36.5272 158.592 36.6029 158.479C36.7544 158.254 36.9662 158.079 37.209 157.961H37.038C37.1313 158.019 37.1856 158.118 37.2361 158.211C37.2964 158.322 37.3527 158.433 37.4343 158.53C37.6013 158.726 37.9005 158.858 38.1374 158.701C38.3181 158.58 38.1491 158.287 37.9665 158.407C37.881 158.464 37.782 158.4 37.7082 158.326C37.6149 158.233 37.5664 158.099 37.5003 157.986C37.4304 157.864 37.3158 157.689 37.1701 157.65C37.0846 157.627 36.9953 157.687 36.9234 157.728C36.8496 157.77 36.7816 157.819 36.7136 157.871C36.465 158.066 36.2902 158.312 36.1562 158.594C36.1503 158.608 36.1348 158.623 36.1329 158.637C36.129 158.672 36.1329 158.621 36.1445 158.635C36.1445 158.631 36.1348 158.629 36.127 158.627C36.1076 158.617 36.0843 158.613 36.0629 158.608C35.9969 158.584 35.9367 158.551 35.8784 158.514C35.756 158.439 35.655 158.334 35.5773 158.213C35.4899 158.079 35.4083 157.937 35.2646 157.854C35.1286 157.776 34.9674 157.765 34.8178 157.799C34.4974 157.875 34.2953 158.134 34.1166 158.39C34.0331 158.51 33.9457 158.642 33.8253 158.73C33.7825 158.761 33.7398 158.78 33.6893 158.788C33.6524 158.794 33.6388 158.784 33.6097 158.765C33.5825 158.745 33.6 158.759 33.6058 158.765C33.598 158.759 33.5902 158.751 33.5825 158.743C33.5669 158.728 33.5514 158.712 33.5378 158.695C33.5281 158.683 33.5261 158.681 33.5067 158.652C33.4912 158.629 33.4756 158.606 33.462 158.584C33.4038 158.491 33.3494 158.394 33.2853 158.305C33.2037 158.194 33.1105 158.095 32.9823 158.038C32.8055 157.961 32.619 157.982 32.4462 158.06C32.283 158.132 32.1412 158.252 32.015 158.376C31.8673 158.52 31.7469 158.668 31.7197 158.878C31.7081 158.969 31.8052 159.047 31.8887 159.047C31.9897 159.047 32.046 158.969 32.0577 158.878L32.0557 158.881Z" fill="#5B1E36"/>
<path d="M34.2518 161.811H35.9766C36.1942 161.811 36.1961 161.471 35.9766 161.471H34.2518C34.0342 161.471 34.0323 161.811 34.2518 161.811Z" fill="#5B1E36"/>
<path d="M8.15022 110.154H41.4645C41.682 110.154 41.684 109.814 41.4645 109.814H8.15022C7.93267 109.814 7.93073 110.154 8.15022 110.154Z" fill="#FF9260"/>
<path d="M7.94319 146.572H41.2575C41.475 146.572 41.4769 146.232 41.2575 146.232H7.94319C7.72564 146.232 7.7237 146.572 7.94319 146.572Z" fill="white"/>
<path d="M7.84163 163.877H41.4667C41.6842 163.877 41.6862 163.537 41.4667 163.537H7.84163C7.62408 163.537 7.62213 163.877 7.84163 163.877Z" fill="#926F1A"/>
<path d="M42.8354 128.502H6.97266V145.518H42.8354V128.502Z" fill="#FFDDBD"/>
<path d="M24.6406 128.411V146.102C24.6406 146.32 24.9805 146.322 24.9805 146.102V128.411C24.9805 128.193 24.6406 128.191 24.6406 128.411Z" fill="#FF9260"/>
<path d="M8.0467 128.57H41.0521C41.2697 128.57 41.2716 128.23 41.0521 128.23H8.0467C7.82915 128.23 7.82721 128.57 8.0467 128.57Z" fill="white"/>
<path d="M15.4816 138.228C16.1531 138.228 16.6975 137.683 16.6975 137.012C16.6975 136.34 16.1531 135.796 15.4816 135.796C14.81 135.796 14.2656 136.34 14.2656 137.012C14.2656 137.683 14.81 138.228 15.4816 138.228Z" fill="#FF9260"/>
<path d="M33.1085 138.228C33.7801 138.228 34.3245 137.683 34.3245 137.012C34.3245 136.34 33.7801 135.796 33.1085 135.796C32.437 135.796 31.8926 136.34 31.8926 137.012C31.8926 137.683 32.437 138.228 33.1085 138.228Z" fill="#FF9260"/>
<path d="M7.02539 127.121V145.774C7.02539 146.137 7.59063 146.137 7.59063 145.774V127.121C7.59063 126.758 7.02539 126.758 7.02539 127.121Z" fill="#FF9260"/>
<path d="M41.957 127.121V145.774C41.957 146.137 42.5223 146.137 42.5223 145.774V127.121C42.5223 126.758 41.957 126.758 41.957 127.121Z" fill="#B88830"/>
<path d="M20.582 153.615V161.729C20.582 161.911 20.8637 161.911 20.8637 161.729V153.615C20.8637 153.433 20.582 153.433 20.582 153.615Z" fill="#5B1E36"/>
<path d="M16.9787 125.254H18.2277C18.4103 125.254 18.4103 124.973 18.2277 124.973H16.9787C16.7962 124.973 16.7962 125.254 16.9787 125.254Z" fill="#5B1E36"/>
<path d="M17.8118 113.604H18.4353C18.5091 113.604 18.579 113.54 18.5771 113.462C18.5732 113.386 18.5149 113.32 18.4353 113.32H17.8118C17.7379 113.32 17.668 113.384 17.67 113.462C17.6738 113.538 17.7321 113.604 17.8118 113.604Z" fill="#5B1E36"/>
<path d="M17.3977 114.435H18.0212C18.095 114.435 18.1649 114.371 18.163 114.293C18.1591 114.218 18.1008 114.151 18.0212 114.151H17.3977C17.3239 114.151 17.254 114.216 17.2559 114.293C17.2598 114.369 17.3181 114.435 17.3977 114.435Z" fill="#5B1E36"/>
<g opacity="0.49">
<path d="M178.358 43.2652H105.883V102.4H178.358V43.2652Z" fill="#FFDDBD"/>
<path d="M142.948 43.2652H141.295V102.4H142.948V43.2652Z" fill="white"/>
<path d="M178.358 72.5237H104.443V73.7455H178.358V72.5237Z" fill="white"/>
</g>
<path d="M71.1795 55.6442C73.9386 55.6442 76.1753 53.4075 76.1753 50.6483C76.1753 47.8892 73.9386 45.6525 71.1795 45.6525C68.4203 45.6525 66.1836 47.8892 66.1836 50.6483C66.1836 53.4075 68.4203 55.6442 71.1795 55.6442Z" fill="#FF9260"/>
<path d="M71.1797 -0.380707V37.1311" stroke="#FFDDBD" stroke-width="0.466178" stroke-miterlimit="10"/>
<path d="M64.5386 37.1311H77.8188C85.097 37.1311 91.0078 43.0399 91.0078 50.3201H51.3516C51.3516 43.0419 57.2604 37.1311 64.5405 37.1311H64.5386Z" fill="#FFDDBD"/>
<path d="M38.6976 99.5348H23.8867V107.112H38.6976V99.5348Z" fill="#FF84EE"/>
<path d="M40.0537 97.9673H22.5234V99.797H40.0537V97.9673Z" fill="#37353F"/>
<path d="M27.4121 102.54C27.4121 102.901 27.7889 103.192 28.2551 103.192H34.3232C34.7894 103.192 35.1662 102.899 35.1662 102.54C35.1662 102.18 34.7894 101.887 34.3232 101.887H28.2551C27.7889 101.887 27.4121 102.18 27.4121 102.54Z" fill="#37353F"/>
<path d="M37.5494 92.7714H27.3926V97.9674H37.5494V92.7714Z" fill="#FF84EE"/>
<path d="M38.4786 91.6972H26.457V92.952H38.4786V91.6972Z" fill="#37353F"/>
<path d="M29.8086 94.8323C29.8086 95.079 30.0669 95.281 30.3874 95.281H34.5481C34.8666 95.281 35.1269 95.0809 35.1269 94.8323C35.1269 94.5837 34.8686 94.3836 34.5481 94.3836H30.3874C30.0689 94.3836 29.8086 94.5837 29.8086 94.8323Z" fill="#37353F"/>
<path d="M40.3329 51.4894C39.014 50.3783 38.6294 49.5198 38.6741 47.7969C38.6838 47.4589 38.2623 47.2977 38.0447 47.558C36.9337 48.8769 36.0751 49.2614 34.3522 49.2168C34.0143 49.2071 33.853 49.6286 34.1133 49.8461C35.4322 50.9572 35.8168 51.8157 35.7721 53.5386C35.7624 53.8766 36.1839 54.0378 36.4015 53.7775C37.5125 52.4587 38.3711 52.0741 40.094 52.1187C40.432 52.1284 40.5932 51.7069 40.3329 51.4894Z" fill="#FF9260"/>
<path d="M169.956 94.1602C168.637 93.0492 168.252 92.1906 168.297 90.4677C168.307 90.1297 167.885 89.9685 167.668 90.2288C166.557 91.5477 165.698 91.9323 163.975 91.8876C163.637 91.8779 163.476 92.2994 163.736 92.5169C165.055 93.628 165.44 94.4866 165.395 96.2095C165.385 96.5474 165.807 96.7087 166.025 96.4484C167.136 95.1295 167.994 94.7449 169.717 94.7896C170.055 94.7993 170.216 94.3778 169.956 94.1602Z" fill="white"/>
<path d="M140.572 99.733H115.904C106.867 99.733 99.541 107.059 99.541 116.096V146.475C99.541 155.512 106.867 162.838 115.904 162.838H140.572C149.609 162.838 156.935 155.512 156.935 146.475V116.096C156.935 107.059 149.609 99.733 140.572 99.733Z" fill="#8077CD"/>
<path d="M133.067 99.733H108.398C99.3611 99.733 92.0352 107.059 92.0352 116.096V146.475C92.0352 155.512 99.3611 162.838 108.398 162.838H133.067C142.104 162.838 149.429 155.512 149.429 146.475V116.096C149.429 107.059 142.104 99.733 133.067 99.733Z" fill="#37353F"/>
<path d="M119.305 70.4959L134.905 110.855L81.5117 108.924L97.8085 67.7085L119.305 70.4959Z" fill="black"/>
<path d="M98.1677 90.1437C98.644 90.1366 99.0146 89.1012 98.9955 87.8312C98.9764 86.5612 98.5749 85.5375 98.0987 85.5446C97.6224 85.5518 97.2518 86.5871 97.2708 87.8571C97.2899 89.1271 97.6914 90.1509 98.1677 90.1437Z" stroke="#FF84EE" stroke-width="0.31467" stroke-miterlimit="10"/>
<path d="M71.993 150.96C72.7194 151.176 73.4537 151.281 74.1782 151.281C77.3035 151.281 80.2171 149.356 81.3593 146.289L94.2744 111.601L121.489 110.243L122.212 121.195L137.167 117.213L134.983 102.447C134.154 98.2024 130.191 95.316 125.897 95.8288L91.2151 99.9836C86.8349 100.409 83.0375 103.196 81.3146 107.248L67.1952 140.456C65.282 144.69 67.5449 149.635 71.9949 150.958L71.993 150.96Z" fill="#8E410F"/>
<path d="M120.088 75.1672C120.194 68.1457 114.797 62.3714 108.035 62.2699C101.273 62.1684 95.7064 67.7781 95.601 74.7997C95.4956 81.8212 100.892 87.5955 107.654 87.697C114.416 87.7985 119.983 82.1888 120.088 75.1672Z" fill="black"/>
<path d="M114.446 98.0975L103.262 99.733C103.262 99.733 102.434 94.8518 101.825 91.1825C101.821 91.1612 101.819 91.1379 101.813 91.1165C101.457 88.9857 101.178 87.2803 101.178 87.2045L105.072 85.7691L105.303 85.6836L111.908 83.2498L114.45 98.0995L114.446 98.0975Z" fill="#8E410F"/>
<path d="M111.214 84.5745C111.214 84.5745 108.72 88.0514 106.638 89.4208C105.3 90.3007 102.666 90.9883 101.813 91.1146C101.457 88.9837 101.178 87.2783 101.178 87.2025L105.072 85.7671L105.303 85.6816L111.214 84.5745Z" fill="#72310B"/>
<path d="M114.853 81.0179C114.853 81.0179 110.871 88.7837 102.724 88.7293C94.58 88.671 93.5291 83.613 95.4599 78.3219C95.6871 77.6983 95.8639 77.1564 96.0018 76.6747C96.233 75.8705 96.3534 75.2431 96.4117 74.7265C96.6176 72.922 96.0776 72.4286 96.8448 70.2822C99.2923 63.6353 105.45 64.0937 105.45 64.0937C123.19 65.2669 114.853 81.0199 114.853 81.0199V81.0179Z" fill="#8E410F"/>
<path d="M107.665 76.3036C107.665 76.3036 107.375 77.1602 106.021 77.5661C105.841 77.6225 105.643 77.6691 105.421 77.7021C105.244 77.7313 105.056 77.7526 104.852 77.7643C103.007 77.875 102.1 77.1272 102.1 77.1272C102.1 77.1272 102.822 75.3654 104.629 75.1265C104.702 75.1148 104.78 75.1071 104.858 75.1032C105.571 75.0624 106.136 75.21 106.567 75.4159C107.321 75.7733 107.665 76.3036 107.665 76.3036Z" fill="#FF5B00"/>
<path d="M118.125 78.149C119.011 79.8778 117.506 82.8555 115.289 83.9899C113.075 85.1242 110.579 84.8406 109.693 83.1099C108.808 81.3812 110.296 78.2054 112.51 77.071C114.724 75.9366 117.238 76.4203 118.123 78.149H118.125Z" fill="#8F410F"/>
<path d="M107.664 76.7971C107.664 76.7971 107.369 77.5604 105.99 77.9178C105.805 77.9664 105.603 78.0091 105.378 78.0383C105.197 78.0635 105.005 78.0829 104.797 78.0926C102.915 78.1878 101.986 77.5196 101.986 77.5196C101.986 77.5196 102.721 75.9521 104.564 75.7423C104.64 75.7326 104.717 75.7268 104.797 75.721C105.523 75.686 106.1 75.8181 106.543 76.0026C107.312 76.3231 107.664 76.7971 107.664 76.7971Z" fill="white"/>
<path d="M106.759 76.7446C106.751 77.2671 106.439 77.7139 105.992 77.9178C105.819 77.9994 105.625 78.0441 105.421 78.0402C105.407 78.0402 105.394 78.0402 105.38 78.0383C104.673 78.0072 104.113 77.4186 104.123 76.7038C104.129 76.3192 104.298 75.9754 104.564 75.7423C104.64 75.7326 104.718 75.7268 104.797 75.721C105.524 75.686 106.101 75.8181 106.543 76.0026C106.683 76.2182 106.763 76.4727 106.757 76.7446H106.759Z" fill="black"/>
<path d="M102.109 77.4516C102.109 77.4516 103.776 73.9805 107.715 76.6805" stroke="black" stroke-width="0.369058" stroke-linecap="round" stroke-linejoin="round"/>
<path d="M99.7455 76.5523C99.7455 76.5523 99.3143 76.7912 97.9779 76.6688C97.7992 76.6552 97.6069 76.6261 97.3971 76.5834C97.232 76.5484 97.0553 76.5037 96.8649 76.4455C96.5794 76.36 96.3249 76.2609 96.0977 76.1599C96.3288 75.3558 96.4492 74.7284 96.5075 74.2117C96.7833 74.1942 97.0844 74.2156 97.4049 74.2894C97.4748 74.303 97.5448 74.3224 97.6166 74.3438C98.2732 74.5438 98.7432 74.843 99.0754 75.1479C99.6562 75.6763 99.7455 76.5523 99.7455 76.5523Z" fill="#FF5B00"/>
<path d="M99.7217 76.7213C99.7217 76.7213 99.2166 77.3059 97.8822 77.1835C97.7035 77.1699 97.5112 77.1408 97.3014 77.0981C97.1363 77.0631 96.9596 77.0184 96.7692 76.9602C96.4837 76.8747 96.2292 76.7756 96.002 76.6746C96.2331 75.8705 96.3535 75.2431 96.4118 74.7264C96.6876 74.7089 96.9887 74.7303 97.3092 74.8041C97.3791 74.8177 97.449 74.8371 97.5209 74.8585C98.1775 75.0586 98.6475 75.3577 98.9797 75.6626C99.5605 76.191 99.7217 76.7213 99.7217 76.7213Z" fill="white"/>
<path d="M99.2695 76.6863C99.0228 77.1136 98.5625 77.337 98.1021 77.3001C97.9215 77.2885 97.7428 77.2341 97.5757 77.1389C97.566 77.1331 97.5524 77.1253 97.5427 77.1175C96.9755 76.7679 96.7852 76.0278 97.1212 75.4451C97.3018 75.1324 97.599 74.9265 97.9253 74.8566C97.9933 74.8838 98.0594 74.9129 98.1274 74.9459C98.7412 75.2509 99.1549 75.6238 99.4327 75.9773C99.4501 76.2182 99.3977 76.4629 99.2695 76.6844V76.6863Z" fill="black"/>
<path d="M96.4629 74.6857C97.403 74.5963 98.5995 74.9654 99.8058 76.6339" stroke="black" stroke-width="0.347691" stroke-linecap="round" stroke-linejoin="round"/>
<path d="M112.361 88.7343C112.837 88.7271 113.208 87.6918 113.189 86.4218C113.17 85.1518 112.768 84.128 112.292 84.1352C111.816 84.1423 111.445 85.1777 111.464 86.4477C111.483 87.7177 111.885 88.7414 112.361 88.7343Z" stroke="#FF84EE" stroke-width="0.31467" stroke-miterlimit="10"/>
<path d="M102.578 82.7097C102.634 82.7195 102.318 84.3355 100.991 84.5414C99.0349 84.8425 98.2715 82.972 98.2715 82.972C98.2715 82.972 99.7322 82.2241 102.578 82.7117V82.7097Z" fill="#FF27E7"/>
<path d="M98.2719 82.9719C98.2175 82.9583 98.672 81.9832 100.032 81.8803C101.391 81.7773 102.741 82.7058 102.741 82.7058C102.741 82.7058 101.067 83.6887 98.2699 82.9719H98.2719Z" fill="#801478"/>
<path d="M97.9459 82.9273C98.3771 83.0671 98.8103 83.1739 99.259 83.2497C99.6319 83.3119 100.015 83.3662 100.391 83.3468C101.025 83.3138 101.666 83.1623 102.262 82.9525C102.563 82.8476 102.856 82.7155 103.12 82.5388C103.183 82.496 103.13 82.4086 103.062 82.4397C102.817 82.5504 102.553 82.6301 102.297 82.7058C101.986 82.7971 101.675 82.8865 101.359 82.9583C101.067 83.0244 100.77 83.0826 100.471 83.1079C100.121 83.137 99.7679 83.104 99.4221 83.0632C98.9307 83.005 98.4451 82.9078 97.9536 82.8496C97.9051 82.8437 97.9012 82.9175 97.942 82.9311L97.9459 82.9273Z" fill="black"/>
<path d="M111.782 80.8548C112.159 80.3187 112.682 79.8836 113.266 79.5902C113.927 79.2581 114.677 79.1318 115.411 79.1318C115.871 79.1318 116.333 79.2154 116.79 79.1765C116.864 79.1707 116.92 79.0541 116.833 79.0172C116.741 78.9764 116.656 78.9357 116.557 78.9143C116.446 78.889 116.333 78.8735 116.223 78.858C116.007 78.8288 115.786 78.8113 115.568 78.8055C115.139 78.7919 114.708 78.8249 114.286 78.9065C113.567 79.0444 112.884 79.361 112.344 79.8564C112.049 80.1283 111.839 80.443 111.693 80.8179C111.672 80.8722 111.751 80.8975 111.782 80.8548Z" fill="black"/>
<path d="M113.891 79.2211C113.91 79.4348 114.071 79.6388 114.157 79.833C114.252 80.0525 114.326 80.2895 114.349 80.5284C114.394 80.9907 114.213 81.4005 113.928 81.754C113.852 81.8473 113.953 82.0221 114.069 81.9386C114.491 81.6394 114.695 81.0994 114.656 80.5925C114.635 80.3225 114.549 80.0641 114.427 79.8233C114.363 79.697 114.289 79.5747 114.211 79.4562C114.141 79.3513 114.073 79.2425 113.961 79.1823C113.931 79.1668 113.889 79.1862 113.891 79.2211Z" fill="black"/>
<path d="M102.181 75.3557C102.855 74.8915 103.609 74.5535 104.435 74.4972C105.54 74.4234 106.577 74.7944 107.632 75.0644C107.882 75.1285 108.059 74.7555 107.812 74.6332C106.781 74.1204 105.532 73.8115 104.376 73.9533C103.456 74.0679 102.684 74.5147 102.014 75.1401C101.902 75.245 102.051 75.4451 102.181 75.3557Z" fill="black"/>
<path d="M99.1192 73.9261C98.9172 73.796 98.7229 73.6503 98.5034 73.5532C98.2859 73.4561 98.0606 73.3745 97.8333 73.3046C97.4176 73.1783 96.9903 73.1064 96.5552 73.1142C96.4134 73.1162 96.291 73.2346 96.291 73.3784C96.291 73.5357 96.4134 73.6231 96.5552 73.6426C96.9223 73.6911 97.3205 73.7261 97.6993 73.7882C97.909 73.8232 98.1188 73.8698 98.3228 73.9261C98.55 73.9883 98.7831 74.033 98.9987 74.132C99.1366 74.1942 99.2493 74.0116 99.1192 73.9281V73.9261Z" fill="black"/>
<path d="M122.213 121.197L125.713 146.969C126.368 152.05 129.45 155.748 134.458 154.662C138.537 153.777 141.351 150.168 141.351 146.124C141.351 145.636 141.311 145.143 141.225 144.647L137.167 117.217L122.213 121.199V121.197Z" fill="#8E410F"/>
<path d="M66.8079 151.487L58.5352 110.741L67.6159 107.996L78.7984 139.556L66.8079 151.487Z" fill="#8E410F"/>
<path d="M135.991 140.799L109.65 134.252" stroke="black" stroke-width="0.192299" stroke-linecap="round" stroke-linejoin="round"/>
<path d="M77.8579 140.491L71.5723 119.161" stroke="black" stroke-width="0.192299" stroke-linecap="round" stroke-linejoin="round"/>
<path d="M64.2263 113.211C67.955 111.681 70.5924 109.502 70.1171 108.344C69.6419 107.185 66.2339 107.487 62.5053 109.017C58.7766 110.547 56.1392 112.726 56.6144 113.884C57.0897 115.042 60.4976 114.741 64.2263 113.211Z" stroke="#FF84EE" stroke-width="0.386539" stroke-miterlimit="10"/>
<path d="M64.0876 112.091C67.8163 110.561 70.4537 108.381 69.9785 107.223C69.5032 106.065 66.0953 106.366 62.3666 107.896C58.6379 109.426 56.0005 111.606 56.4757 112.764C56.951 113.922 60.3589 113.621 64.0876 112.091Z" stroke="#FF84EE" stroke-width="0.386539" stroke-miterlimit="10"/>
<path d="M57.7969 107.984L58.9002 112.537L67.9343 108.897L66.2871 104.645L57.7969 107.984Z" fill="#8E410F"/>
<path d="M131.129 148.402C127.637 140.885 123.305 133.958 118.142 129.934L118.711 127.715L125.71 110.579L124.346 96.0171L118.964 96.3804L118.731 93.8008L110.75 94.7138L111.041 98.0547L107.714 104.437L104.825 98.6977L104.293 95.2149L94.6276 96.1317V99.5543L93.5456 99.7077L91.2128 99.9855L85.7838 113.027C84.8359 115.307 85.0884 117.912 86.4617 119.965L92.05 128.329L84.5503 148.402L78.4512 164.716H137.382C135.733 159.551 133.649 153.823 131.129 148.402ZM107.811 106.106L107.471 105.556L108.092 105.727L107.811 106.106Z" fill="#8077CD"/>
<path d="M105.438 80.5304C107.501 80.5304 109.174 79.2163 109.174 77.5954C109.174 75.9744 107.501 74.6604 105.438 74.6604C103.375 74.6604 101.703 75.9744 101.703 77.5954C101.703 79.2163 103.375 80.5304 105.438 80.5304Z" stroke="#84E6E1" stroke-width="0.16122" stroke-linecap="round" stroke-linejoin="round"/>
<path d="M99.9352 77.4193C100.168 75.8152 98.8035 74.2893 96.8872 74.0111C94.971 73.7329 93.2287 74.8078 92.9959 76.4119C92.763 78.0161 94.1277 79.542 96.0439 79.8202C97.9602 80.0984 99.7024 79.0235 99.9352 77.4193Z" stroke="#84E6E1" stroke-width="0.157335" stroke-linecap="round" stroke-linejoin="round"/>
<path opacity="0.37" d="M105.546 80.5304C107.609 80.5304 109.281 79.2163 109.281 77.5954C109.281 75.9744 107.609 74.6604 105.546 74.6604C103.483 74.6604 101.811 75.9744 101.811 77.5954C101.811 79.2163 103.483 80.5304 105.546 80.5304Z" fill="#84E6E1"/>
<path opacity="0.37" d="M100.041 77.4185C100.274 75.8143 98.9089 74.2884 96.9927 74.0102C95.0764 73.7321 93.3342 74.807 93.1013 76.4111C92.8685 78.0152 94.2331 79.5411 96.1494 79.8193C98.0656 80.0975 99.8078 79.0226 100.041 77.4185Z" fill="#84E6E1"/>
<path d="M99.752 74.4914C100.185 74.8721 100.564 75.3227 100.644 75.9152C100.719 76.4746 100.449 76.9291 100.129 77.3623C99.8084 77.7954 99.4529 78.182 99.2451 78.6695C99.0372 79.157 99.01 79.7806 99.4218 80.1457C99.9463 80.608 100.789 80.5847 101.331 80.169C101.424 80.0972 101.349 79.9593 101.238 80.0098C100.725 80.2448 100.02 80.3613 99.5734 79.9204C99.3869 79.7359 99.3461 79.4309 99.3752 79.1804C99.4024 78.9414 99.5034 78.7181 99.6239 78.5141C100.127 77.6536 101.088 76.9097 100.865 75.8044C100.749 75.2314 100.35 74.639 99.787 74.4292C99.752 74.4156 99.7229 74.4681 99.7501 74.4914H99.752Z" fill="black"/>
<path d="M99.8047 76.1929C99.8047 76.1929 100.141 75.5131 100.935 75.651C101.73 75.7889 102.025 76.4066 102.025 76.4066" stroke="#84E6E1" stroke-width="0.16122" stroke-linecap="round" stroke-linejoin="round"/>
<path d="M109.139 77.201L111.953 77.4089" stroke="#84E6E1" stroke-width="0.16122" stroke-linecap="round" stroke-linejoin="round"/>
<path d="M102.695 64.0159C101.248 64.2277 99.8785 64.7696 98.6917 65.8671C97.3125 67.1413 96.4288 68.938 96.2598 70.8085C97.6874 70.657 98.9752 69.9073 100.185 69.1303C101.683 68.1688 103.138 67.1432 104.546 66.0555C106.832 67.5492 108.58 69.8121 109.546 72.3586C110.059 73.7124 111.671 78.9006 108.897 78.8054C109.262 78.8171 109.624 78.9356 109.989 78.9045C110.373 78.8734 110.75 78.7705 111.104 78.6151C111.828 78.2965 112.283 77.7177 112.92 77.2962C114.202 76.4493 115.995 76.4221 117.298 77.2379C117.391 77.2962 117.486 77.3603 117.595 77.3778C117.799 77.4108 117.997 77.267 118.096 77.0864C118.195 76.9058 118.215 76.694 118.232 76.4881C118.259 76.1793 118.283 75.851 118.133 75.5791C118.083 75.4878 118.015 75.4062 117.968 75.311C117.789 74.9381 117.999 74.5088 118.009 74.1242C118.019 73.7455 118.077 73.3745 118.122 72.9899C118.215 72.1721 118.215 71.3194 117.894 70.5483C117.731 70.154 117.49 69.7946 117.234 69.4527C115.969 67.7667 114.276 66.407 112.355 65.5388C111.168 65.0027 109.901 64.653 108.621 64.4083C106.673 64.0373 104.614 63.7323 102.695 64.012V64.0159Z" fill="black"/>
<path d="M0.21875 164.716H4.966H42.0505H42.101H44.6572H192.702" stroke="black" stroke-width="0.384597" stroke-miterlimit="10" stroke-linecap="round"/>
<mask id="mask0_3331_76389" style="mask-type:luminance" maskUnits="userSpaceOnUse" x="78" y="93" width="60" height="72">
<path d="M131.133 148.402C127.641 140.885 123.309 133.958 118.146 129.934L118.715 127.715L125.714 110.579L124.35 96.0172L118.968 96.3804L118.735 93.8009L110.753 94.7138L111.045 98.0548L107.717 104.438L104.829 98.6977L104.297 95.215L94.6315 96.1318V99.5543L93.5495 99.7078L91.2167 99.9855L85.7877 113.027C84.8398 115.307 85.0923 117.912 86.4656 119.965L92.0539 128.329L84.5542 148.402L78.4551 164.716H137.386C135.737 159.551 133.653 153.823 131.133 148.402ZM107.815 106.106L107.475 105.556L108.096 105.727L107.815 106.106Z" fill="white"/>
</mask>
<g mask="url(#mask0_3331_76389)">
<path d="M133.746 101.528C133.744 105.529 133.746 109.532 133.746 113.536C133.746 130.497 133.746 147.458 133.746 164.419C133.746 164.98 133.625 165.515 133.348 166.01C133.289 166.014 133.229 166.018 133.171 166.018H125.599C125.561 166.018 125.52 166.018 125.481 166.018C125.25 166.004 125.23 165.975 125.341 165.773C125.695 165.13 126.044 164.487 126.407 163.852C128.235 160.643 130.125 157.475 132.064 154.332C132.34 153.885 132.621 153.444 132.806 152.949C133.202 151.889 133.245 150.781 133.2 149.672C133.171 149 133.157 148.328 133.161 147.656C133.161 147.532 133.19 147.406 133.14 147.285C133.008 147.272 132.949 147.367 132.878 147.427C132.413 147.812 131.949 148.198 131.489 148.587C130.349 149.55 129.216 150.525 128.041 151.45C126.852 152.386 125.646 153.301 124.45 154.229C122.886 155.443 121.32 156.653 119.665 157.739C117.845 158.93 115.946 159.959 113.877 160.659C112.319 161.185 110.736 161.521 109.075 161.381C108.015 161.292 107.007 161.037 106.082 160.503C105.037 159.901 104.268 159.048 103.792 157.935C103.215 156.587 103.13 155.173 103.312 153.74C103.536 151.997 103.98 150.304 104.536 148.641C105.023 147.182 105.62 145.77 106.288 144.389C106.892 143.142 107.562 141.928 108.271 140.737C109.204 139.172 110.196 137.645 111.224 136.143C111.985 135.032 112.748 133.923 113.553 132.845C114.854 131.101 116.22 129.407 117.657 127.77C119.005 126.229 120.4 124.73 121.839 123.273C122.521 122.583 123.216 121.908 123.902 121.22C124.368 120.75 124.85 120.295 125.335 119.845C126.256 118.992 127.179 118.139 128.115 117.3C129.057 116.453 130.015 115.628 130.96 114.787C131.471 114.334 132.015 113.92 132.458 113.394C133.012 112.739 133.322 111.999 133.264 111.133C133.229 110.589 133.109 110.059 132.938 109.538C132.792 109.092 132.862 109.084 132.443 109.369C131.99 109.678 131.611 110.069 131.217 110.445C130.316 111.306 129.407 112.157 128.501 113.015C127.884 113.6 127.272 114.188 126.654 114.775C125.749 115.632 124.842 116.486 123.937 117.343C123.333 117.916 122.734 118.489 122.13 119.06C121.268 119.876 120.392 120.678 119.543 121.505C118.523 122.5 117.525 123.518 116.491 124.499C115.365 125.571 114.203 126.598 112.931 127.494C111.944 128.189 110.89 128.747 109.722 129.071C108.056 129.533 106.418 129.456 104.816 128.782C103.64 128.288 102.625 127.56 101.714 126.682C100.268 125.285 99.1477 123.652 98.2386 121.865C97.5122 120.431 96.9392 118.934 96.4633 117.401C95.9544 115.766 95.4882 114.12 95.1832 112.432C94.9987 111.411 94.8627 110.379 94.8122 109.344C94.7637 108.357 94.7598 107.367 94.8394 106.378C94.9016 105.618 94.9929 104.863 95.1288 104.113C95.5154 102.004 96.2263 100.009 97.2383 98.1188C97.7763 97.1127 98.3882 96.1551 99.07 95.2421L119.357 92.0236C116.097 95.5413 111.342 103.499 110.26 108.146C109.839 109.954 109.664 112.164 111.08 113.363C112.667 114.705 115.153 113.814 116.711 112.442C119.125 110.319 120.559 107.275 122.886 105.057C125.044 103.002 127.944 101.743 130.92 101.569C131.833 101.516 132.796 101.543 133.742 101.528H133.746Z" fill="#84E6E1"/>
<path d="M82.4492 127.56C83.2204 127.554 83.9895 127.554 84.7607 127.603C85.2541 127.634 85.7494 127.616 86.2447 127.628C86.9459 127.645 87.6471 127.655 88.3483 127.692C89.1971 127.735 90.0421 127.811 90.8909 127.855C93.2315 127.976 95.4595 128.533 97.5786 129.533C98.2585 129.856 98.9403 130.173 99.5638 130.598C101.058 131.62 102.058 133.008 102.575 134.737C103.115 136.548 103.06 138.369 102.619 140.19C102.287 141.561 101.679 142.81 100.912 143.989C100.236 145.028 99.4647 145.992 98.6042 146.887C97.433 148.105 96.1277 149.158 94.7388 150.111C93.1616 151.193 91.4989 152.13 89.8129 153.027C87.8025 154.097 85.7183 155.006 83.6302 155.911C83.3758 156.022 83.1252 156.139 82.8707 156.247C82.7367 156.304 82.6066 156.389 82.4512 156.376V142.889C82.6085 142.889 82.7678 142.882 82.9251 142.886C83.7856 142.911 84.6422 142.903 85.4988 142.783C87.3985 142.517 89.2049 141.977 90.8773 141.025C91.9146 140.434 92.8547 139.714 93.6822 138.853C94.026 138.494 94.3135 138.088 94.4708 137.61C94.7136 136.874 94.6242 136.21 94.0299 135.658C93.7482 135.398 93.4219 135.219 93.0645 135.091C92.2933 134.815 91.4873 134.727 90.6753 134.691C89.6206 134.642 88.5853 134.749 87.5714 135.064C86.1514 135.503 84.7821 136.068 83.4127 136.639C83.096 136.771 82.7969 136.953 82.4492 137.01V127.564V127.56Z" fill="#84E6E1"/>
<path d="M82.4492 157.92C83.3524 157.813 84.2556 157.731 85.1628 157.667C86.0213 157.607 86.8779 157.568 87.7384 157.545C88.1832 157.533 88.6261 157.504 89.0709 157.514C91.4775 157.57 93.8647 157.774 96.2073 158.365C98.6528 158.98 100.951 159.942 103.081 161.3C104.329 162.094 105.49 162.993 106.572 164.002C107.145 164.536 107.668 165.115 108.186 165.697C108.254 165.773 108.357 165.839 108.347 165.983C108.221 166.043 108.081 166.016 107.947 166.016C102.891 166.016 97.8331 166.016 92.777 166.016C89.471 166.016 86.167 166.016 82.861 166.016C82.7231 166.016 82.5852 166.006 82.4473 166C82.4473 163.306 82.4473 160.614 82.4473 157.92H82.4492Z" fill="#84E6E1"/>
<path d="M94.1464 95.2383C94.1445 95.3956 94.1406 95.5549 94.1386 95.7122C94.1017 97.6197 93.8822 99.4999 93.315 101.328C92.7556 103.132 91.8602 104.744 90.5083 106.085C89.3215 107.26 87.9113 108.047 86.301 108.476C85.3609 108.726 84.4013 108.845 83.4262 108.835C83.0999 108.831 82.7736 108.839 82.4473 108.843V95.2363H94.1464V95.2383Z" fill="#84E6E1"/>
<path d="M82.4492 111.696C82.7483 111.685 83.0358 111.772 83.3291 111.815C84.6189 112.007 85.9087 112.203 87.1848 112.466C88.0472 112.642 88.9038 112.838 89.7371 113.124C90.6423 113.435 91.4406 113.913 92.0525 114.664C92.8431 115.636 93.0626 116.745 92.8062 117.955C92.6216 118.825 92.2059 119.584 91.6504 120.268C90.7569 121.368 89.6497 122.199 88.4066 122.863C86.977 123.627 85.4444 124.124 83.9021 124.592C83.4204 124.738 82.9329 124.868 82.4492 125.006C82.4492 120.569 82.4492 116.133 82.4492 111.696Z" fill="#84E6E1"/>
</g>
<path d="M101.598 143.053C101.598 143.053 93.156 139.729 91.268 140.483C89.9996 140.99 87.0704 144.537 86.3867 146.242C86.2138 146.675 87.0296 151.518 85.5806 149.721C84.7356 148.672 84.0383 146.827 84.6016 145.494C85.0736 144.379 86.2954 142.252 86.2954 142.252C86.2954 142.252 83.6848 144.577 83.2769 145.508C82.869 146.44 82.2455 148.767 81.6589 149.719C81.0723 150.671 80.2992 150.618 80.3361 149.888C80.373 149.158 80.711 148.013 80.711 148.013C80.711 148.013 79.7203 150.974 78.7083 150.607C77.6963 150.239 79.4581 145.69 79.4581 145.69C79.4581 145.69 78.0013 147.291 77.3117 147.598C76.6222 147.905 75.2353 148.111 76.6241 146.605C78.013 145.1 83.8013 137.089 84.7084 135.943C85.6155 134.799 88.5913 130.17 92.0643 130.264C95.5374 130.359 103.699 132.769 103.699 132.769L101.598 143.049V143.053Z" fill="#8E410F"/>
<path d="M85.0858 137.229C85.0858 137.229 81.0942 142.108 80.4474 143.455C79.7986 144.801 79.4023 145.844 79.4023 145.844" stroke="black" stroke-width="0.192299" stroke-linecap="round" stroke-linejoin="round"/>
<path d="M86.0442 139.255L82.4177 143.719C81.936 144.311 81.5786 144.997 81.3688 145.731L80.6074 148.402" stroke="black" stroke-width="0.192299" stroke-linecap="round" stroke-linejoin="round"/>
<path d="M87.505 140.799L85.9375 142.579" stroke="black" stroke-width="0.192299" stroke-linecap="round" stroke-linejoin="round"/>
<path d="M91.9457 138.103C91.9107 139.51 91.6621 140.242 91.6621 140.242" stroke="black" stroke-width="0.192299" stroke-linecap="round" stroke-linejoin="round"/>
<path d="M86.1364 150.375C86.2887 150.289 86.1819 149.811 85.8979 149.307C85.6138 148.804 85.2601 148.465 85.1078 148.551C84.9555 148.637 85.0623 149.115 85.3463 149.618C85.6303 150.122 85.9841 150.461 86.1364 150.375Z" fill="#FFDDBD"/>
<path d="M81.0413 149.577C81.15 149.009 81.0988 148.522 80.9271 148.49C80.7553 148.457 80.528 148.89 80.4194 149.458C80.3107 150.026 80.3619 150.513 80.5336 150.546C80.7054 150.579 80.9327 150.145 81.0413 149.577Z" fill="#FFDDBD"/>
<path d="M76.7892 147.166C77.1463 146.711 77.3242 146.255 77.1867 146.147C77.0492 146.039 76.6482 146.32 76.2911 146.775C75.934 147.23 75.756 147.686 75.8935 147.794C76.0311 147.902 76.4321 147.621 76.7892 147.166Z" fill="#FFDDBD"/>
<path d="M79.1854 149.681C79.3057 149.052 79.2256 148.508 79.0064 148.466C78.7873 148.424 78.5121 148.9 78.3917 149.529C78.2714 150.158 78.3515 150.702 78.5707 150.744C78.7898 150.786 79.065 150.31 79.1854 149.681Z" fill="#FFDDBD"/>
<path d="M175.34 164.716H8.26758L20.7553 148.402H161.073L175.34 164.716Z" fill="#FFDDBD"/>
<path d="M137.993 153.161C128.101 160.165 99.9551 142.443 99.9551 142.443L99.992 131.851L139.872 141.763C139.872 141.763 143.022 149.599 137.993 153.159V153.161Z" fill="#8E410F"/>
<path d="M84.2637 147.001H105.197C106.219 147.001 107.048 147.831 107.048 148.853H84.2617V147.001H84.2637Z" fill="#FF7C33"/>
<path d="M87.5088 148.853H46.0889C45.075 148.853 44.1698 148.213 43.8318 147.256L34.4752 120.758C34.046 119.54 34.9492 118.262 36.2409 118.262H74.0421C75.7981 118.262 77.3598 119.376 77.9328 121.035L87.5108 148.851L87.5088 148.853Z" fill="#FF7C33"/>
<path d="M85.9424 148.853H44.5225C43.5086 148.853 42.6034 148.213 42.2654 147.256L32.9088 120.758C32.4796 119.54 33.3828 118.262 34.6745 118.262H72.4757C74.2317 118.262 75.7934 119.376 76.3664 121.035L85.9444 148.851L85.9424 148.853Z" fill="#FF5B00"/>
<path d="M57.4762 129.331C57.4956 128.717 56.9517 128.245 56.3476 128.346C55.8989 128.422 55.561 128.813 55.5454 129.265C55.526 129.879 56.0699 130.351 56.674 130.25C57.1227 130.174 57.4606 129.784 57.4762 129.331Z" fill="#FFECDC"/>
<path d="M58.5768 136.852C57.7726 136.631 57.4288 136.332 57.1006 135.566C57.0365 135.415 56.8189 135.43 56.7762 135.588C56.5547 136.392 56.2556 136.736 55.4903 137.064C55.3388 137.128 55.3543 137.346 55.5117 137.388C56.3158 137.61 56.6596 137.909 56.9879 138.674C57.052 138.826 57.2696 138.81 57.3123 138.653C57.5337 137.849 57.8329 137.505 58.5982 137.177C58.7497 137.113 58.7341 136.895 58.5768 136.852Z" fill="#FFECDC"/>
<path d="M60.8583 135.427L60.6912 132.991C60.5456 130.875 58.7624 129.219 56.6433 129.292C54.4153 129.37 52.7138 131.274 52.8653 133.478L53.0362 135.963C53.0576 136.27 52.8245 136.538 52.5176 136.559L52.5564 137.116L52.5914 137.111C53.3043 136.99 53.988 136.726 54.5862 136.32C55.5322 135.675 56.0178 134.859 56.4024 133.455C56.5053 133.08 57.0279 133.043 57.1813 133.403C57.7543 134.741 58.3468 135.483 59.3723 135.994C60.0211 136.316 60.734 136.483 61.4565 136.505H61.4935L61.4546 135.949C61.1477 135.97 60.8797 135.737 60.8583 135.43" fill="#FFECDC"/>
<path d="M61.0173 87.1792C61.2699 87.151 61.4251 86.6839 61.3638 86.1359C61.3026 85.5879 61.0481 85.1666 60.7954 85.1948C60.5427 85.2231 60.3876 85.6902 60.4488 86.2382C60.5101 86.7862 60.7646 87.2075 61.0173 87.1792Z" fill="#8077CD"/>
<path d="M49.2275 86.152C49.4183 85.984 49.2776 85.5123 48.9133 85.0984C48.5489 84.6846 48.0989 84.4853 47.908 84.6533C47.7172 84.8213 47.8579 85.293 48.2222 85.7068C48.5866 86.1207 49.0367 86.32 49.2275 86.152Z" fill="#8077CD"/>
<path d="M67.6835 108.163C67.6835 108.163 64.5834 100.759 63.9735 97.3865C63.7637 96.2288 63.0353 93.7406 62.676 91.5263C61.8116 86.2002 60.8753 83.4905 60.3373 86.8451C59.5176 91.9536 60.3062 95.1994 57.4276 92.3732C53.4145 88.432 49.621 85.2717 48.8907 84.992C45.6177 83.7411 52.8124 91.7186 52.8124 91.7186C52.8124 91.7186 50.161 94.4263 51.3206 97.1593C52.4783 99.8922 55.792 102.555 56.602 104.667C57.4625 106.914 58.7872 111.281 58.7872 111.281L67.6815 108.161L67.6835 108.163Z" fill="#8E410F"/>
<path d="M53.2322 98.3693C54.3316 99.6746 57.4783 101.409 56.6159 99.5833C55.4873 97.1961 52.5485 94.7506 51.8317 94.8108C51.115 94.8691 51.0645 95.1798 51.0645 95.1798" stroke="black" stroke-width="0.0912932" stroke-linecap="round" stroke-linejoin="round"/>
<path d="M55.3471 97.5807C56.4698 98.5558 57.9208 99.0375 57.3245 97.7166C56.4931 95.8772 53.5406 93.251 52.8239 93.3113C52.1071 93.3695 52.0566 93.6803 52.0566 93.6803" stroke="black" stroke-width="0.0912932" stroke-linecap="round" stroke-linejoin="round"/>
<path d="M56.4717 96.3007C57.3283 96.6872 58.585 97.169 58.4121 96.4969C57.977 94.7895 54.7779 91.6059 53.83 91.534C53.1132 91.4796 52.75 91.7846 52.75 91.7846" stroke="black" stroke-width="0.0912932" stroke-linecap="round" stroke-linejoin="round"/>
<path d="M60.0334 98.8977C60.0334 98.8977 59.2254 97.7885 59.4352 95.9238" stroke="black" stroke-width="0.0912932" stroke-linecap="round" stroke-linejoin="round"/>
<path d="M58.4521 97.0098C58.6429 96.8418 58.5023 96.3701 58.1379 95.9562C57.7735 95.5424 57.3235 95.3431 57.1326 95.5111C56.9418 95.6791 57.0825 96.1508 57.4468 96.5646C57.8112 96.9785 58.2613 97.1778 58.4521 97.0098Z" fill="#8077CD"/>
<path d="M57.6552 98.7185C57.8461 98.5505 57.7054 98.0788 57.341 97.665C56.9767 97.2511 56.5266 97.0518 56.3358 97.2198C56.1449 97.3878 56.2856 97.8595 56.65 98.2734C57.0143 98.6872 57.4644 98.8865 57.6552 98.7185Z" fill="#8077CD"/>
<path d="M56.8173 100.675C57.0082 100.507 56.8675 100.036 56.5031 99.6218C56.1388 99.2079 55.6887 99.0086 55.4979 99.1766C55.307 99.3446 55.4477 99.8163 55.8121 100.23C56.1764 100.644 56.6265 100.843 56.8173 100.675Z" fill="#8077CD"/>
</g>
<defs>
<clipPath id="clip0_3331_76389">
<rect width="193.363" height="166" fill="white" transform="translate(0.318359)"/>
</clipPath>
</defs>
</svg>
