<svg width="208" height="166" viewBox="0 0 208 166" fill="none" xmlns="http://www.w3.org/2000/svg">
<g clip-path="url(#clip0_2188_65357)">
<path d="M128.725 -0.202087V156.946H122.708V5.81771H60.9456V156.946H54.9258V-0.202087H128.725Z" fill="#FFDDBD"/>
<path d="M62.6801 5.81775H60.9473V156.946H62.6801V5.81775Z" fill="#FF9260"/>
<path d="M122.707 5.81775H120.975V156.946H122.707V5.81775Z" fill="#FF9260"/>
<path d="M170.735 2.33286L122.609 5.8177V156.944L170.735 161.164V2.33286Z" fill="#FFDDBD"/>
<g opacity="0.2">
<path d="M161.783 15.3013L131.557 17.6827L131.697 17.4928C131.776 47.4785 131.841 115.293 131.849 145.279L131.559 144.88L161.785 147.094L161.52 147.432L161.545 116.335C161.583 96.535 161.727 35.7786 161.785 15.3013H161.783ZM161.783 16.0478C161.852 51.4374 162.069 112.476 162.048 147.47V147.827L161.783 147.808L131.557 145.634L131.266 145.613V145.235C131.275 115.27 131.34 47.4785 131.417 17.51V17.3296L131.555 17.32L161.781 15.2994V16.0459L161.783 16.0478Z" fill="#FF9260"/>
</g>
<path d="M164.41 87.8574L168.582 87.8881V73.1965L164.41 73.2349V87.8574Z" fill="#FFBB99"/>
<path d="M169.252 76.7313C169.252 78.5198 168.02 79.9724 166.498 79.9744C164.978 79.9744 163.744 78.5351 163.744 76.7562C163.744 74.9774 164.976 73.5247 166.498 73.5132C168.018 73.5017 169.252 74.9428 169.252 76.7313Z" fill="#FF9260"/>
<path d="M174.271 2.33286H170.734V161.164H174.271V2.33286Z" fill="#FF9260"/>
<path d="M15.6582 156.946H120.979" stroke="black" stroke-width="0.180383" stroke-linecap="round" stroke-linejoin="round"/>
<path d="M84.4194 64.9774C84.4194 64.9774 80.7791 63.494 77.7817 62.8224C75.7649 62.3695 73.9917 63.4921 71.7082 61.7785C69.4246 60.0648 68.1024 59.1955 68.2406 58.8156C68.3788 58.4356 68.9852 58.7235 68.9852 58.7235C68.9852 58.7235 67.6764 58.1977 67.947 57.6335C68.0621 57.3956 68.5246 57.5683 68.8911 57.6412C68.8911 57.6412 67.4826 56.5685 68.6839 56.7086C69.8851 56.8487 72.9977 58.7715 72.9977 58.7715C72.9977 58.7715 70.1269 56.7623 69.8813 56.3209C69.6357 55.8796 69.5186 55.4114 71.2361 56.3018C72.9517 57.1922 74.3947 58.2226 76.0911 58.0384C77.7875 57.8542 80.8732 58.2361 83.8053 59.7501C83.8169 59.8288 84.4213 64.9774 84.4213 64.9774H84.4194Z" fill="#B2EDEA"/>
<path d="M72.5274 61.2047L68.6895 58.6006" stroke="black" stroke-width="0.0959484" stroke-linecap="round" stroke-linejoin="round"/>
<path d="M72.6561 60.0418L68.6973 57.5164" stroke="black" stroke-width="0.0959484" stroke-linecap="round" stroke-linejoin="round"/>
<path d="M73.3007 58.9596L72.8574 58.6736" stroke="black" stroke-width="0.0959484" stroke-linecap="round" stroke-linejoin="round"/>
<path d="M111.186 71.5C111.186 71.5 114.112 83.2786 117.562 87.8899L121.176 93.476L147.111 134.891L160.361 143.227C160.361 143.227 128.222 77.9765 122.133 69.9322C116.046 61.8879 111.186 71.5 111.186 71.5Z" fill="#37353F"/>
<path d="M111.92 71.8358C111.92 71.8358 112.617 90.066 109.6 94.9728C106.583 99.8796 102.565 139.476 102.565 139.476L93.9297 145.881C93.9297 145.881 95.1098 85.8903 102.795 72.3156L111.92 71.8377V71.8358Z" fill="#37353F"/>
<path d="M121.686 165.831H99.4008C98.9326 165.831 98.6678 165.297 98.9499 164.925L99.1897 164.606C99.9247 163.633 100.992 162.969 102.185 162.733C104.881 162.198 109.736 160.937 110.725 158.642C110.899 158.239 111.051 157.825 111.183 157.406C111.59 156.13 111.818 154.827 111.945 153.768C112.11 152.411 112.11 151.452 112.11 151.452H119.08L119.636 154.522L120.076 156.946L121.686 165.831Z" fill="#602300"/>
<path d="M142.189 164.583C141.69 164.282 140.731 159.757 139.953 155.656C139.696 154.305 139.46 153.001 139.266 151.909C138.959 150.172 138.76 148.971 138.76 148.971C138.76 148.971 141.611 143.333 143.816 147.286C144.306 148.161 144.872 149.174 145.486 150.268C145.86 150.936 146.255 151.636 146.66 152.352C148.591 155.766 150.792 159.592 152.572 162.488C155.342 166.988 143.112 165.14 142.189 164.583Z" fill="#602300"/>
<path d="M105.407 68.7828L120.785 69.6866C120.785 69.6866 125.581 70.4676 135.166 96.7268C139.443 108.444 149.009 149.337 149.009 149.337L134.867 153.066L114.604 85.3588L121.869 154.737L104.829 153.064L104.14 143.498C104.14 143.498 97.9398 93.8061 99.5671 84.5778C101.196 75.3514 105.407 68.777 105.407 68.777V68.7828Z" fill="#1A1A1A"/>
<path d="M147.352 94.399C147.128 94.445 146.89 94.0613 146.782 93.8674C146.462 93.2822 146.207 92.7698 145.869 92.2133C145.982 92.8082 146.026 93.4587 145.923 93.9922C145.896 94.1303 145.825 94.3741 145.596 94.3606C145.406 94.351 145.337 94.1342 145.301 93.9768C145.167 93.4184 145.048 92.8542 144.873 92.3073C144.856 92.2517 144.837 92.1941 144.817 92.1385C144.861 92.3649 144.869 92.6028 144.806 92.8254C144.771 92.9502 144.706 93.1497 144.491 93.1114C144.395 93.0941 144.328 92.9809 144.292 92.8888C144.221 92.7084 144.176 92.5184 144.119 92.3323C143.935 91.7278 143.628 91.1617 143.221 90.6781C142.762 90.5572 142.302 90.4478 141.845 90.3404C141.53 90.2675 141.148 90.2118 140.93 90.4478C140.77 90.6205 140.766 90.895 140.86 91.1099C140.956 91.3248 141.131 91.4918 141.308 91.6472C141.845 92.1231 142.428 92.5453 143.048 92.908C143.165 92.977 143.288 93.048 143.365 93.1593C143.441 93.2726 143.455 93.4395 143.357 93.5335C143.263 93.6218 143.075 93.6218 142.948 93.6007C140.772 93.2534 139.001 91.8218 137.615 90.1082C136.232 88.3945 135.155 86.253 134.227 84.2534C135.246 82.8564 137.168 81.8835 138.652 81.7434C138.172 81.7895 140.041 84.9001 140.218 85.1361C141.048 86.2453 142.117 87.2086 143.447 87.6653C144.004 87.8572 144.514 88.3408 144.911 88.7572C145.192 89.0489 145.579 89.8741 145.907 90.0353C147.114 90.8124 148.17 91.7585 148.761 92.6048C148.889 92.789 148.98 93.0039 148.895 93.1939C148.813 93.3762 148.561 93.428 148.373 93.3589C148.185 93.2898 148.041 93.1363 147.899 92.9943C147.621 92.718 147.32 92.4723 147.001 92.2517C147.258 92.7372 147.456 93.2591 147.55 93.7888C147.583 93.973 147.627 94.3376 147.348 94.3952L147.352 94.399Z" fill="#B2EDEA"/>
<path d="M146.914 90.7433C145.859 89.9009 144.667 89.2273 143.402 88.7552" stroke="#33261A" stroke-width="0.105543" stroke-linecap="round" stroke-linejoin="round"/>
<path d="M147.187 92.3841C145.612 91.3191 143.787 90.6244 141.902 90.3711" stroke="#33261A" stroke-width="0.105543" stroke-linecap="round" stroke-linejoin="round"/>
<path d="M146.248 92.8849C145.96 92.3572 145.678 91.8602 145.27 91.3248" stroke="#33261A" stroke-width="0.105543" stroke-linecap="round" stroke-linejoin="round"/>
<path d="M144.97 92.6104C144.792 91.9983 144.477 91.3573 144.16 90.8929" stroke="#33261A" stroke-width="0.105543" stroke-linecap="round" stroke-linejoin="round"/>
<path d="M138.37 90.9717C136.885 89.331 135.674 87.4446 134.801 85.4105" stroke="#33261A" stroke-width="0.105543" stroke-linecap="round" stroke-linejoin="round"/>
<path d="M110.773 38.0915C110.788 37.0975 110.653 36.2895 110.472 36.2868C110.291 36.2841 110.132 37.0877 110.117 38.0816C110.102 39.0756 110.237 39.8836 110.418 39.8864C110.599 39.8891 110.758 39.0855 110.773 38.0915Z" fill="#FF5B00"/>
<path d="M94.2371 68.3837C94.6036 68.4931 94.9759 68.5449 95.3405 68.5449C96.9198 68.5449 98.3897 67.5739 98.9673 66.0233L108.025 50.2322L121.772 49.5471L122.137 55.0795L129.69 53.0684L128.587 45.6094C128.168 43.4659 126.165 42.0075 123.996 42.2665L106.478 44.3659C104.266 44.5808 102.347 45.9874 101.477 48.0349L91.8096 63.0777C90.8444 65.2155 91.9861 67.7159 94.2352 68.3837H94.2371Z" fill="#37353F"/>
<path d="M111.918 49.0902L108.644 48.1826L104.933 49.8444L104.267 54.1851L106.829 57.1844L100.299 81.6724L129.692 84.5854C129.692 84.5854 125.374 73.6741 118.803 65.1577L119.089 64.0371L124.583 49.0116L119.41 48.171L114.864 47.7162L111.918 49.0902Z" fill="#37353F"/>
<path d="M122.127 32.3512C122.016 36.12 118.917 39.0829 115.206 38.9716C111.494 38.8603 108.577 35.7132 108.691 31.9443C108.802 28.1755 110.819 25.2548 115.612 25.3239C119.324 25.3776 122.241 28.5823 122.127 32.3512Z" fill="black"/>
<path d="M118.215 43.4121L114.601 49.7734L112.565 44.2391C112.565 44.2391 112.147 41.7733 111.838 39.9195C111.838 39.908 111.834 39.8965 111.832 39.885C111.654 38.8085 111.512 37.9469 111.512 37.9085L113.479 37.1831L113.596 37.1409L116.931 35.9108L118.215 43.4121Z" fill="#602300"/>
<path d="M116.582 36.5805C116.582 36.5805 115.321 38.3364 114.269 39.0291C113.592 39.4743 112.262 39.8217 111.832 39.885C111.654 38.8085 111.512 37.9468 111.512 37.9085L113.479 37.1831L113.596 37.1409L116.582 36.5805Z" fill="#481A00"/>
<path d="M118.42 34.7844C118.42 34.7844 116.409 38.7067 112.293 38.6799C108.178 38.6511 107.647 36.095 108.624 33.4219C108.739 33.1072 108.827 32.8328 108.898 32.5891C109.015 32.1822 109.077 31.8656 109.105 31.6046C109.209 30.6931 108.936 30.4436 109.324 29.3594C110.56 26.0012 113.671 26.2334 113.671 26.2334C122.632 26.8264 118.42 34.7824 118.42 34.7824V34.7844Z" fill="#602300"/>
<path d="M114.788 32.4029C114.788 32.4029 114.642 32.8366 113.959 33.04C113.869 33.0688 113.767 33.0918 113.656 33.1091C113.567 33.1244 113.471 33.134 113.368 33.1398C112.435 33.1954 111.979 32.8174 111.979 32.8174C111.979 32.8174 112.343 31.927 113.257 31.8061C113.295 31.8003 113.333 31.7965 113.372 31.7946C113.732 31.7735 114.016 31.8483 114.235 31.952C114.615 32.1323 114.79 32.401 114.79 32.401L114.788 32.4029Z" fill="#FF5B00"/>
<path d="M120.077 33.3356C120.524 34.2087 119.764 35.7132 118.645 36.285C117.527 36.8569 116.266 36.7149 115.819 35.8398C115.372 34.9667 116.122 33.3624 117.243 32.7887C118.361 32.2168 119.632 32.4605 120.079 33.3337L120.077 33.3356Z" fill="#602300"/>
<path d="M114.791 32.6523C114.791 32.6523 114.643 33.0381 113.944 33.2184C113.852 33.2434 113.749 33.2645 113.636 33.2799C113.545 33.2933 113.447 33.3029 113.342 33.3067C112.392 33.3547 111.922 33.017 111.922 33.017C111.922 33.017 112.292 32.2244 113.223 32.1189C113.261 32.1131 113.3 32.1112 113.34 32.1093C113.707 32.092 113.998 32.1592 114.221 32.2513C114.61 32.4125 114.787 32.6523 114.787 32.6523H114.791Z" fill="white"/>
<path d="M114.334 32.6255C114.33 32.8903 114.173 33.1148 113.946 33.2184C113.858 33.2607 113.76 33.2818 113.658 33.2799C113.653 33.2799 113.645 33.2799 113.637 33.2799C113.28 33.2645 112.998 32.9671 113.002 32.6063C113.006 32.4125 113.09 32.2379 113.225 32.1208C113.263 32.115 113.301 32.1131 113.342 32.1112C113.708 32.0939 114 32.1611 114.222 32.2532C114.293 32.3626 114.334 32.4912 114.33 32.6274L114.334 32.6255Z" fill="black"/>
<path d="M111.98 32.9824C111.98 32.9824 112.823 31.2285 114.813 32.5929" stroke="black" stroke-width="0.18614" stroke-linecap="round" stroke-linejoin="round"/>
<path d="M110.791 32.5296C110.791 32.5296 110.573 32.6505 109.899 32.5891C109.809 32.5814 109.711 32.568 109.606 32.545C109.521 32.5277 109.433 32.5047 109.337 32.4759C109.193 32.4318 109.064 32.3838 108.949 32.332C109.066 31.9252 109.128 31.6085 109.156 31.3476C109.297 31.338 109.448 31.3476 109.609 31.3878C109.644 31.3955 109.68 31.4051 109.717 31.4147C110.049 31.5164 110.285 31.668 110.454 31.8215C110.747 32.0883 110.791 32.5296 110.791 32.5296Z" fill="#FF5B00"/>
<path d="M110.777 32.614C110.777 32.614 110.522 32.9095 109.848 32.8481C109.758 32.8405 109.66 32.827 109.555 32.804C109.47 32.7867 109.382 32.7637 109.286 32.7349C109.142 32.6908 109.014 32.6428 108.898 32.591C109.015 32.1842 109.077 31.8675 109.106 31.6066C109.246 31.597 109.397 31.6066 109.559 31.6469C109.593 31.6545 109.63 31.6641 109.666 31.6737C109.998 31.7754 110.234 31.927 110.403 32.0805C110.697 32.3473 110.777 32.614 110.777 32.614Z" fill="white"/>
<path d="M110.548 32.5967C110.424 32.8117 110.192 32.9249 109.959 32.9076C109.869 32.9019 109.777 32.875 109.695 32.827C109.689 32.8232 109.683 32.8213 109.677 32.8174C109.391 32.6409 109.295 32.2667 109.464 31.9731C109.556 31.8138 109.706 31.7121 109.871 31.6756C109.906 31.6891 109.938 31.7044 109.973 31.7217C110.284 31.8752 110.493 32.0633 110.633 32.2417C110.641 32.3626 110.616 32.4874 110.55 32.5987L110.548 32.5967Z" fill="black"/>
<path d="M109.131 31.5855C109.607 31.5413 110.209 31.7275 110.82 32.5699" stroke="black" stroke-width="0.176545" stroke-linecap="round" stroke-linejoin="round"/>
<path d="M117.369 38.0903C117.384 37.0963 117.249 36.2883 117.068 36.2856C116.886 36.2829 116.727 37.0865 116.713 38.0805C116.698 39.0745 116.832 39.8825 117.014 39.8852C117.195 39.8879 117.354 39.0843 117.369 38.0903Z" fill="#FF5B00"/>
<path d="M112.281 26.2219C112.039 26.2546 111.797 26.3025 111.575 26.3601C111.306 26.4292 111.043 26.5558 110.861 26.7669C110.679 26.978 110.588 27.2793 110.677 27.5422C110.89 28.1793 112.433 28.2522 112.987 28.3923C113.225 28.4518 113.478 28.5228 113.634 28.7127C113.805 28.9238 113.807 29.2251 113.766 29.4938C113.726 29.7624 113.653 30.0368 113.711 30.3036C113.78 30.624 114.029 30.8831 114.319 31.0347C114.609 31.1882 114.937 31.2496 115.261 31.2976C115.601 31.3494 115.975 31.4051 116.203 31.6641C116.388 31.8714 116.434 32.1707 116.393 32.4432C116.315 32.9633 116.058 33.6906 115.413 33.6675C115.597 33.6733 115.779 33.7328 115.964 33.7174C116.157 33.7021 116.347 33.6503 116.526 33.5716C116.892 33.4104 117.123 33.1187 117.443 32.9057C118.092 32.4778 118.995 32.4643 119.654 32.8769C119.702 32.9057 119.75 32.9383 119.803 32.9479C119.905 32.9652 120.007 32.8923 120.057 32.8002C120.107 32.708 120.116 32.6025 120.126 32.4989C120.139 32.3434 120.151 32.1765 120.076 32.0402C120.051 31.9942 120.016 31.952 119.993 31.904C119.903 31.7159 120.009 31.4991 120.014 31.3034C120.02 31.1115 120.049 30.9234 120.072 30.7296C120.12 30.317 120.12 29.8852 119.957 29.4957C119.874 29.2961 119.753 29.1157 119.623 28.943C118.984 28.091 118.128 27.404 117.159 26.9665C116.558 26.6959 115.919 26.5194 115.273 26.3946C114.482 26.243 113.676 26.1701 112.87 26.1778C112.682 26.1778 112.483 26.1951 112.283 26.2219H112.281Z" fill="black"/>
<path d="M112.221 35.6402C112.25 35.646 112.089 36.4616 111.419 36.5652C110.431 36.7168 110.045 35.7727 110.045 35.7727C110.045 35.7727 110.784 35.3946 112.221 35.6402Z" fill="#FF27E7"/>
<path d="M110.045 35.7707C110.017 35.7631 110.247 35.2718 110.934 35.2181C111.621 35.1663 112.302 35.6345 112.302 35.6345C112.302 35.6345 111.456 36.1315 110.043 35.7688L110.045 35.7707Z" fill="#801478"/>
<path d="M109.88 35.7496C110.346 35.9012 110.855 36.0087 111.346 35.9377C111.739 35.8801 112.159 35.7745 112.493 35.5539C112.526 35.5328 112.497 35.4886 112.465 35.504C112.113 35.6613 111.708 35.7592 111.329 35.8187C110.845 35.8954 110.363 35.7669 109.884 35.7093C109.859 35.7055 109.857 35.7438 109.878 35.7496H109.88Z" fill="black"/>
<path d="M116.868 34.7018C117.116 34.3526 117.479 34.0858 117.883 33.9534C118.118 33.8767 118.363 33.8402 118.609 33.8325C118.87 33.8249 119.137 33.8805 119.396 33.8536C119.434 33.8498 119.461 33.7922 119.417 33.773C119.167 33.6598 118.854 33.656 118.584 33.6656C118.313 33.6752 118.041 33.7174 117.786 33.8114C117.363 33.9688 116.987 34.2528 116.82 34.6807C116.809 34.7076 116.851 34.721 116.864 34.6999L116.868 34.7018Z" fill="black"/>
<path d="M117.932 33.8767C117.943 33.9841 118.022 34.0839 118.064 34.1818C118.112 34.2931 118.15 34.4121 118.164 34.533C118.189 34.769 118.097 34.9763 117.951 35.1566C117.913 35.2046 117.962 35.291 118.022 35.2487C118.237 35.0952 118.339 34.8227 118.317 34.5656C118.306 34.4293 118.262 34.3008 118.2 34.1799C118.17 34.1185 118.135 34.0609 118.097 34.0033C118.058 33.9458 118.024 33.8901 117.964 33.8575C117.951 33.8498 117.928 33.8575 117.93 33.8767H117.932Z" fill="black"/>
<path d="M112.021 31.9251C112.362 31.691 112.742 31.5183 113.161 31.4914C113.717 31.455 114.241 31.643 114.773 31.7774C114.899 31.81 114.989 31.6219 114.865 31.5605C114.343 31.3015 113.711 31.146 113.128 31.217C112.664 31.2746 112.274 31.501 111.936 31.8158C111.879 31.8695 111.955 31.9693 112.021 31.9251Z" fill="black"/>
<path d="M110.475 31.2036C110.373 31.1384 110.275 31.0654 110.164 31.0155C110.052 30.9656 109.941 30.9254 109.824 30.8908C109.613 30.8275 109.398 30.791 109.179 30.7949C109.106 30.7949 109.047 30.8544 109.047 30.9273C109.047 31.0079 109.108 31.0501 109.179 31.0597C109.365 31.0846 109.565 31.1019 109.757 31.1345C109.862 31.1518 109.968 31.1748 110.072 31.2036C110.187 31.2343 110.304 31.2573 110.413 31.3072C110.482 31.3379 110.54 31.2458 110.475 31.2036Z" fill="black"/>
<path d="M110.791 31.4876C111.022 31.6949 111.225 31.9367 111.248 32.261C111.267 32.5584 111.091 32.7983 110.918 33.0247C110.759 33.2339 110.58 33.4411 110.5 33.6964C110.429 33.9228 110.452 34.2068 110.647 34.3642C110.918 34.5829 111.319 34.5561 111.59 34.3584C111.638 34.3219 111.597 34.2529 111.542 34.2778C111.286 34.3949 110.82 34.4755 110.649 34.1665C110.517 33.9266 110.647 33.6388 110.782 33.4335C111.054 33.019 111.49 32.6352 111.34 32.0902C111.267 31.8234 111.075 31.5586 110.811 31.4569C110.793 31.4492 110.778 31.4761 110.791 31.4895V31.4876Z" fill="black"/>
<path d="M122.611 54.4078L123.933 68.232C124.229 70.7996 126.428 72.5324 128.691 71.9836C130.535 71.5365 131.807 69.7134 131.807 67.6697C131.807 67.4241 131.788 67.1747 131.749 66.9233L129.915 53.0664L122.611 54.4058V54.4078Z" fill="#37353F"/>
<path d="M124.815 68.0765C122.449 74.1155 135.273 86.4583 135.273 86.4583L140.769 85.0767L130.491 65.6356C130.491 65.6356 126.016 65.0062 124.813 68.0765H124.815Z" fill="#37353F"/>
<path d="M119.408 27.1814C121.477 27.1814 123.154 25.5044 123.154 23.4356C123.154 21.3668 121.477 19.6898 119.408 19.6898C117.339 19.6898 115.662 21.3668 115.662 23.4356C115.662 25.5044 117.339 27.1814 119.408 27.1814Z" fill="black"/>
<path d="M125.59 24.6848C127.658 24.6848 129.335 23.0078 129.335 20.939C129.335 18.8702 127.658 17.1932 125.59 17.1932C123.521 17.1932 121.844 18.8702 121.844 20.939C121.844 23.0078 123.521 24.6848 125.59 24.6848Z" fill="black"/>
<path d="M129.693 29.9237C131.762 29.9237 133.439 28.2466 133.439 26.1778C133.439 24.1091 131.762 22.432 129.693 22.432C127.624 22.432 125.947 24.1091 125.947 26.1778C125.947 28.2466 127.624 29.9237 129.693 29.9237Z" fill="black"/>
<path d="M117.775 50.9651L109.813 58.7196L109.404 64.5936L118.383 64.9774L117.775 50.9651Z" fill="#37353F"/>
<path d="M118.051 50.6868L109.811 58.7196L112.81 82.912" stroke="black" stroke-width="0.0978673" stroke-linecap="round" stroke-linejoin="round"/>
<path d="M109.884 43.957L107.442 45.8894L108.376 48.6009L105.041 48.7851L110.51 58.0384" stroke="black" stroke-width="0.0978673" stroke-linecap="round" stroke-linejoin="round"/>
<path d="M122.345 42.5236L123.482 45.4231L121.305 47.2941L124.094 49.1344L110.043 60.1416" stroke="black" stroke-width="0.0978673" stroke-linecap="round" stroke-linejoin="round"/>
<path d="M123.4 52.2451L121.514 57.4032" stroke="black" stroke-width="0.0978673" stroke-linecap="round" stroke-linejoin="round"/>
<path d="M105.643 55.7952L104.171 53.8282C103.81 53.3446 103.67 52.7306 103.785 52.1395L104.25 49.7734" stroke="black" stroke-width="0.0978673" stroke-linecap="round" stroke-linejoin="round"/>
<path d="M111.512 66.0175C111.799 66.0175 112.032 65.7847 112.032 65.4975C112.032 65.2102 111.799 64.9774 111.512 64.9774C111.225 64.9774 110.992 65.2102 110.992 65.4975C110.992 65.7847 111.225 66.0175 111.512 66.0175Z" fill="black"/>
<path d="M117.298 45.569C117.442 45.569 117.559 45.4521 117.559 45.308C117.559 45.1638 117.442 45.047 117.298 45.047C117.154 45.047 117.037 45.1638 117.037 45.308C117.037 45.4521 117.154 45.569 117.298 45.569Z" fill="#FF9260"/>
<path d="M116.695 46.6897C116.839 46.6897 116.956 46.5728 116.956 46.4287C116.956 46.2846 116.839 46.1677 116.695 46.1677C116.55 46.1677 116.434 46.2846 116.434 46.4287C116.434 46.5728 116.55 46.6897 116.695 46.6897Z" fill="#FF9260"/>
<path d="M116.07 47.7163C116.214 47.7163 116.331 47.5995 116.331 47.4553C116.331 47.3112 116.214 47.1943 116.07 47.1943C115.925 47.1943 115.809 47.3112 115.809 47.4553C115.809 47.5995 115.925 47.7163 116.07 47.7163Z" fill="#FF9260"/>
<path d="M115.462 48.9656C115.606 48.9656 115.723 48.8487 115.723 48.7046C115.723 48.5604 115.606 48.4436 115.462 48.4436C115.318 48.4436 115.201 48.5604 115.201 48.7046C115.201 48.8487 115.318 48.9656 115.462 48.9656Z" fill="#FF9260"/>
<path d="M114.878 50.3683C115.022 50.3683 115.139 50.2514 115.139 50.1073C115.139 49.9632 115.022 49.8463 114.878 49.8463C114.734 49.8463 114.617 49.9632 114.617 50.1073C114.617 50.2514 114.734 50.3683 114.878 50.3683Z" fill="#FF9260"/>
<path d="M114.343 51.7461C114.487 51.7461 114.604 51.6293 114.604 51.4852C114.604 51.341 114.487 51.2242 114.343 51.2242C114.199 51.2242 114.082 51.341 114.082 51.4852C114.082 51.6293 114.199 51.7461 114.343 51.7461Z" fill="#FF9260"/>
<path d="M111.182 63.0968C111.469 63.0968 111.702 62.864 111.702 62.5768C111.702 62.2896 111.469 62.0568 111.182 62.0568C110.895 62.0568 110.662 62.2896 110.662 62.5768C110.662 62.864 110.895 63.0968 111.182 63.0968Z" fill="black"/>
<path d="M112.508 72.1141C112.796 72.1141 113.028 71.8812 113.028 71.594C113.028 71.3068 112.796 71.074 112.508 71.074C112.221 71.074 111.988 71.3068 111.988 71.594C111.988 71.8812 112.221 72.1141 112.508 72.1141Z" fill="black"/>
<path d="M114.704 48.3726L112.223 56.2672" stroke="#FF9260" stroke-width="0.0479742" stroke-linecap="round" stroke-linejoin="round"/>
<path d="M104.828 71.784L103.676 71.5L100.299 79.6153L101.404 80.5403L104.828 71.784Z" fill="black"/>
<path d="M125.151 73.037L124.092 73.5686L126.798 81.9334L128.239 81.918L125.151 73.037Z" fill="black"/>
<path d="M101.699 61.1241L79.6102 58.19L77.6797 63.0776L94.1444 68.372C96.1517 68.9343 98.274 67.9748 99.2239 66.075L101.699 61.1241Z" fill="#37353F"/>
<path d="M111.991 68.7828C112.278 68.7828 112.511 68.5499 112.511 68.2627C112.511 67.9755 112.278 67.7427 111.991 67.7427C111.704 67.7427 111.471 67.9755 111.471 68.2627C111.471 68.5499 111.704 68.7828 111.991 68.7828Z" fill="black"/>
<path d="M39.5507 99.6378C39.5162 96.9743 40.8748 94.4509 42.694 92.505C43.3964 91.7528 44.2158 91.0447 45.2155 90.801C46.2153 90.5573 47.4243 90.9161 47.8733 91.8411C48.0902 92.2901 48.1496 92.8696 48.5757 93.1306C48.7503 93.2381 48.9633 93.2707 49.1417 93.3724C49.5159 93.5873 49.656 94.0517 49.7309 94.4777C50.153 96.8438 49.5505 99.373 48.1093 101.294C47.2861 102.392 46.1961 103.28 44.968 103.89C44.3347 104.205 43.6823 104.406 43.003 104.593C42.032 104.859 41.0322 105.149 40.2972 104.215C39.9192 103.735 39.948 103.186 39.8635 102.618C39.7196 101.647 39.5623 100.615 39.5488 99.6378H39.5507Z" fill="#A7B964"/>
<path d="M48.3755 92.9579C46.4949 97.195 43.8985 101.131 40.7207 104.56" stroke="#496836" stroke-width="0.295521" stroke-linejoin="round"/>
<path d="M41.3848 94.044C41.2197 96.8822 41.5786 99.7491 42.4402 102.457" stroke="#496836" stroke-width="0.295521" stroke-linejoin="round"/>
<path d="M45.4047 90.8527C44.9634 93.1094 45.1476 95.487 45.9286 97.6497" stroke="#496836" stroke-width="0.295521" stroke-linejoin="round"/>
<path d="M43.6582 101.115C45.2586 100.795 46.8226 100.29 48.3079 99.611C48.7147 99.4248 49.1273 99.2176 49.4247 98.8818" stroke="#496836" stroke-width="0.295521" stroke-linejoin="round"/>
<path d="M46.5957 96.3372C47.6838 95.846 48.6912 95.1744 49.5643 94.3569" stroke="#496836" stroke-width="0.295521" stroke-linejoin="round"/>
<path d="M33.7904 115.109C33.0497 114.241 32.1286 113.543 31.1537 112.95C29.0544 111.674 26.4484 110.864 24.138 111.703C23.8175 111.82 23.5009 111.969 23.261 112.211C22.6873 112.783 22.5798 113.81 21.8352 114.128C21.6011 114.228 21.3401 114.236 21.0849 114.253C19.4692 114.366 17.8898 114.946 16.5849 115.905C13.2901 118.327 14.3359 123.207 17.8515 124.767C20.6973 126.03 24.4988 126.118 27.5499 125.838C30.2365 125.592 33.8556 125.135 35.7286 122.998C36.6401 121.957 36.2121 120.514 35.8974 119.294C35.504 117.77 34.8171 116.31 33.7923 115.109H33.7904Z" fill="#A7B964"/>
<path d="M22.0684 114.141C28.3261 116.58 31.9741 119.503 36.9097 123.679" stroke="#496836" stroke-width="0.295521" stroke-linejoin="round"/>
<path d="M16.2461 123.679C18.5949 122.591 20.8708 121.368 23.3367 120.553C25.9004 119.705 28.5812 119.196 31.2966 119.046" stroke="#496836" stroke-width="0.295521" stroke-linejoin="round"/>
<path d="M14.5625 119.183C18.1203 117.256 22.1252 116.158 26.1684 116.005" stroke="#496836" stroke-width="0.295521" stroke-linejoin="round"/>
<path d="M24.0781 111.722C26.07 113.167 27.6819 115.128 28.7124 117.361" stroke="#496836" stroke-width="0.295521" stroke-linejoin="round"/>
<path d="M30.7305 112.658C32.4019 115.091 33.4343 117.958 33.701 120.898" stroke="#496836" stroke-width="0.295521" stroke-linejoin="round"/>
<path d="M27.4219 125.878C29.6479 124.16 32.1157 122.754 34.7293 121.716" stroke="#496836" stroke-width="0.295521" stroke-linejoin="round"/>
<path d="M26.3501 107.152C25.2525 106.423 24.2066 105.575 23.4601 104.489C22.7137 103.401 22.2915 102.046 22.5256 100.749C22.7597 99.4516 23.7345 98.258 25.0222 97.9779C25.5365 97.8665 26.091 97.8915 26.5593 97.6516C26.8721 97.4904 27.1177 97.2256 27.3863 96.9973C28.7354 95.8593 30.7637 95.7422 32.3795 96.4484C33.9953 97.1546 35.2215 98.5766 35.9948 100.164C36.7682 101.749 37.1328 103.501 37.4072 105.243C37.6567 106.815 38.5183 110.946 36.0486 111.088C33.1912 111.253 32.5944 110.255 31.1552 109.657C29.4876 108.962 27.8584 108.158 26.352 107.156L26.3501 107.152Z" fill="#808F3C"/>
<path d="M26.3789 97.7917C27.5917 98.6092 29.764 102.123 30.948 103.149C34.1718 105.943 36.1215 109.645 37.9791 113.485" stroke="#496836" stroke-width="0.295521" stroke-linejoin="round"/>
<path d="M25.6387 106.746C28.5555 107.586 31.6259 107.809 34.6022 107.39" stroke="#496836" stroke-width="0.295521" stroke-linejoin="round"/>
<path d="M22.4668 100.762C24.8962 102.059 27.6461 102.745 30.3998 102.741" stroke="#496836" stroke-width="0.295521" stroke-linejoin="round"/>
<path d="M28.6387 96.3122C29.0225 97.6171 29.0628 99.0218 28.7538 100.346" stroke="#496836" stroke-width="0.295521" stroke-linejoin="round"/>
<path d="M33.7031 106.287C34.7125 103.733 35.0119 100.904 34.5609 98.1966" stroke="#496836" stroke-width="0.295521" stroke-linejoin="round"/>
<path d="M35.6074 108.699L36.0373 108.354C36.2042 108.219 36.3731 108.085 36.5285 107.937C36.8893 107.596 37.3537 106.63 37.559 106.178" stroke="#496836" stroke-width="0.295521" stroke-linejoin="round"/>
<path d="M41.0352 123.621C42.6126 120.802 45.5812 118.885 48.7571 118.29C50.4093 117.981 52.1479 118.01 53.7387 118.549C55.3315 119.089 56.7669 120.169 57.5786 121.641C57.7628 121.973 57.9183 122.33 58.1812 122.604C58.4556 122.888 58.8221 123.057 59.1771 123.232C60.6125 123.94 61.9615 124.82 63.1877 125.847C64.2374 126.728 65.266 127.883 65.2219 129.253C65.1681 130.861 63.6656 132.026 62.1937 132.675C57.1488 134.897 51.5204 133.924 46.3335 132.823C44.2053 132.372 41.4593 132.026 40.0431 130.165C38.7056 128.405 40.1294 125.239 41.0352 123.623V123.621Z" fill="#A7B964"/>
<path d="M58.2346 122.639C54.6998 122.811 51.0691 123.17 47.7896 124.602C43.9498 126.277 41.8293 128.438 39.7012 130.959" stroke="#496836" stroke-width="0.295521" stroke-linejoin="round"/>
<path d="M43.1406 127.469C46.827 130.161 50.8817 132.35 55.1534 133.959" stroke="#496836" stroke-width="0.295521" stroke-linejoin="round"/>
<path d="M46.8711 125.02C52.4822 127.85 58.7111 129.468 64.9881 129.727" stroke="#496836" stroke-width="0.295521" stroke-linejoin="round"/>
<path d="M52.668 123.138C55.8515 124.3 59.179 125.066 62.5506 125.41" stroke="#496836" stroke-width="0.295521" stroke-linejoin="round"/>
<path d="M43.575 127.054C43.1855 124.281 44.0663 121.353 45.9258 119.257" stroke="#496836" stroke-width="0.295521" stroke-linejoin="round"/>
<path d="M48.252 124.412C48.7432 123.13 49.5089 121.965 50.3801 120.908C51.1899 119.923 52.111 118.923 53.3123 118.421" stroke="#496836" stroke-width="0.295521" stroke-linejoin="round"/>
<path d="M53.3457 123.109C54.263 122.023 55.2781 121.017 56.3758 120.111" stroke="#496836" stroke-width="0.295521" stroke-linejoin="round"/>
<path d="M31.7871 125.239C29.7031 123.684 26.9417 122.844 24.4547 123.598C22.7909 124.103 21.3536 125.314 20.5745 126.868C20.2425 127.53 20.0909 128.468 20.6916 128.898C20.9622 129.092 21.3152 129.119 21.6491 129.14C24.3818 129.309 25.7615 129.716 28.4941 129.885C30.4898 130.007 34.7768 131.815 36.5941 132.897C36.1431 130.006 33.8711 126.791 31.789 125.239H31.7871Z" fill="#808F3C"/>
<path d="M24.4766 129.209C25.6491 129.407 26.8215 129.603 27.994 129.8C29.7019 130.088 31.4213 130.378 33.0831 131.015C34.745 131.652 36.3665 132.661 37.5869 134.183" stroke="#496836" stroke-width="0.295521" stroke-linejoin="round"/>
<path d="M21.5684 125.429C22.7082 125.646 23.7521 126.237 24.6406 126.983C25.5291 127.73 26.2756 128.628 26.9933 129.539" stroke="#496836" stroke-width="0.295521" stroke-linejoin="round"/>
<path d="M20.4082 127.091C21.243 127.233 22.0719 127.44 22.8395 127.795C23.6071 128.15 24.3152 128.66 24.8237 129.336" stroke="#496836" stroke-width="0.295521" stroke-linejoin="round"/>
<path d="M26.502 123.352C28.6147 124.93 29.8314 127.653 30.4665 130.149" stroke="#496836" stroke-width="0.295521" stroke-linejoin="round"/>
<path d="M33.1973 126.517C33.9533 128.04 34.3045 129.764 34.2028 131.464" stroke="#496836" stroke-width="0.295521" stroke-linejoin="round"/>
<path d="M36.7539 110.918C36.7539 110.918 38.4157 113.721 38.4157 115.187V144.129" stroke="#496836" stroke-width="0.443281" stroke-linejoin="round"/>
<path d="M38.416 122.353C38.416 122.353 38.6712 117.582 41.2196 115.74" stroke="#496836" stroke-width="0.443281" stroke-linejoin="round"/>
<path d="M35.7148 122.692C35.7148 122.692 38.0483 123.637 38.4129 126.937" stroke="#496836" stroke-width="0.443281" stroke-linejoin="round"/>
<path d="M36.3086 132.732C36.3086 132.732 38.2429 133.679 38.4175 136.743" stroke="#496836" stroke-width="0.443281" stroke-linejoin="round"/>
<path d="M40.3004 130.408C40.3004 130.408 38.416 131.706 38.416 134.223" stroke="#496836" stroke-width="0.443281" stroke-linejoin="round"/>
<path d="M40.8742 104.372C40.8742 104.372 38.416 106.395 38.416 110.444V119.965" stroke="#496836" stroke-width="0.443281" stroke-linejoin="round"/>
<path d="M41.7032 105.93C43.3286 103.704 46.2378 102.729 48.9166 102.906C51.9832 103.107 54.9269 104.717 56.7537 107.189C56.8477 107.316 56.9437 107.462 56.9303 107.619C56.9168 107.778 56.7978 107.907 56.6846 108.018C54.5699 110.112 52.0273 111.708 49.358 112.996C48.009 113.646 46.6235 114.222 45.2226 114.756C44.0751 115.193 42.6647 116.273 41.3713 115.984C40.6363 115.819 40.1642 115.435 40.0625 114.648C39.6998 111.858 39.9973 108.267 41.7013 105.932L41.7032 105.93Z" fill="#808F3C"/>
<path d="M55.732 108.289C51.3068 108.757 47.0506 110.762 43.6463 113.593C42.5525 114.502 41.6122 115.285 40.7832 116.043" stroke="#496836" stroke-width="0.295521" stroke-linejoin="round"/>
<path d="M44.0799 104.105C42.5889 106.773 41.9652 109.893 42.3125 112.932C42.372 113.46 42.4622 113.988 42.6272 114.495" stroke="#496836" stroke-width="0.295521" stroke-linejoin="round"/>
<path d="M50.065 103.136C48.2976 105.604 47.1328 108.479 46.6934 111.466" stroke="#496836" stroke-width="0.295521" stroke-linejoin="round"/>
<path d="M54.6749 105.051C53.7979 106.258 53.0438 107.554 52.4316 108.914" stroke="#496836" stroke-width="0.295521" stroke-linejoin="round"/>
<path d="M43.4453 113.666C44.6255 113.495 45.8172 114.024 47.0012 113.884" stroke="#496836" stroke-width="0.295521" stroke-linejoin="round"/>
<path d="M47.9492 110.72C49.4671 110.758 50.9812 110.946 52.4646 111.277" stroke="#496836" stroke-width="0.295521" stroke-linejoin="round"/>
<path d="M51.4195 137.952H23.7441V149.568H51.4195V137.952Z" fill="#FFDDBD"/>
<path d="M51.4195 149.568H23.7441" stroke="#FF9260" stroke-width="0.443281" stroke-miterlimit="10"/>
<path d="M23.7441 136.743V161.525" stroke="#FF9260" stroke-width="0.443281" stroke-miterlimit="10"/>
<path d="M42.3906 136.743V161.525" stroke="#FF9260" stroke-width="0.443281" stroke-miterlimit="10"/>
<path d="M51.4238 136.743V161.525" stroke="#FF9260" stroke-width="0.443281" stroke-miterlimit="10"/>
<path d="M121.682 166.009H99.3969C98.9287 166.009 98.6639 165.476 98.946 165.103L99.1858 164.785C99.9208 163.812 100.988 163.148 102.181 162.912C104.877 162.377 109.732 161.116 110.721 158.821C110.895 158.418 111.047 158.003 111.179 157.585C111.179 157.585 113.402 158.433 116.209 157.996C119.016 157.556 120.072 157.124 120.072 157.124L121.682 166.009Z" fill="#1A1A1A"/>
<path d="M142.189 164.762C141.69 164.461 140.73 159.936 139.953 155.835C139.953 155.835 142.342 157.531 144.566 156.257C146.792 154.985 146.66 152.53 146.66 152.53C148.59 155.944 150.791 159.771 152.572 162.666C155.341 167.166 143.112 165.318 142.189 164.762Z" fill="#1A1A1A"/>
</g>
<defs>
<clipPath id="clip0_2188_65357">
<rect width="207.248" height="166" fill="white" transform="translate(0.375)"/>
</clipPath>
</defs>
</svg>
